<svg xmlns="http://www.w3.org/2000/svg" viewBox="0 0 236.56 205"><defs><style>.cls-1{fill:none;stroke:#ff7473;stroke-linecap:round;stroke-linejoin:round;}</style></defs><title>Asset 1</title><g id="Layer_2" data-name="Layer 2"><g id="Layer_1-2" data-name="Layer 1"><polygon class="cls-1" points="120.58 200.51 231.45 0.5 2.8 4.5 120.58 200.51"/><polygon class="cls-1" points="236.06 0.5 118.28 204.5 0.5 0.5 236.06 0.5"/><polygon class="cls-1" points="122.75 196.59 226.97 0.58 5.11 8.33 122.75 196.59"/><polygon class="cls-1" points="124.79 192.75 222.63 0.73 7.41 12.02 124.79 192.75"/><polygon class="cls-1" points="126.7 188.99 218.41 0.95 9.7 15.55 126.7 188.99"/><polygon class="cls-1" points="128.49 185.31 214.32 1.24 11.99 18.94 128.49 185.31"/><polygon class="cls-1" points="130.17 181.71 210.36 1.58 14.27 22.2 130.17 181.71"/><polygon class="cls-1" points="131.74 178.18 206.52 1.99 16.54 25.32 131.74 178.18"/><polygon class="cls-1" points="133.2 174.73 202.8 2.44 18.79 28.31 133.2 174.73"/><polygon class="cls-1" points="134.56 171.36 199.2 2.95 21.03 31.17 134.56 171.36"/><polygon class="cls-1" points="135.82 168.06 195.71 3.5 23.25 33.92 135.82 168.06"/><polygon class="cls-1" points="136.99 164.84 192.34 4.1 25.45 36.54 136.99 164.84"/><polygon class="cls-1" points="138.07 161.69 189.07 4.73 27.63 39.05 138.07 161.69"/><polygon class="cls-1" points="139.06 158.62 185.91 5.41 29.8 41.45 139.06 158.62"/><polygon class="cls-1" points="139.98 155.62 182.85 6.11 31.93 43.74 139.98 155.62"/><polygon class="cls-1" points="140.82 152.7 179.9 6.85 34.05 45.93 140.82 152.7"/><polygon class="cls-1" points="141.58 149.84 177.04 7.61 36.13 48.02 141.58 149.84"/><polygon class="cls-1" points="142.27 147.06 174.28 8.4 38.2 50.01 142.27 147.06"/><polygon class="cls-1" points="142.9 144.34 171.62 9.22 40.23 51.91 142.9 144.34"/><polygon class="cls-1" points="143.46 141.7 169.04 10.05 42.24 53.72 143.46 141.7"/><polygon class="cls-1" points="143.95 139.12 166.56 10.91 44.22 55.44 143.95 139.12"/><polygon class="cls-1" points="144.39 136.61 164.16 11.78 46.17 57.08 144.39 136.61"/><polygon class="cls-1" points="144.78 134.17 161.85 12.67 48.09 58.63 144.78 134.17"/><polygon class="cls-1" points="145.11 131.79 159.63 13.57 49.98 60.11 145.11 131.79"/><polygon class="cls-1" points="145.39 129.48 157.48 14.48 51.85 61.51 145.39 129.48"/><polygon class="cls-1" points="145.63 127.23 155.41 15.4 53.68 62.84 145.63 127.23"/><polygon class="cls-1" points="145.82 125.04 153.42 16.33 55.47 64.1 145.82 125.04"/><polygon class="cls-1" points="145.97 122.91 151.5 17.26 57.24 65.3 145.97 122.91"/><polygon class="cls-1" points="146.07 120.84 149.66 18.2 58.98 66.42 146.07 120.84"/><polygon class="cls-1" points="146.14 118.83 147.88 19.15 60.68 67.49 146.14 118.83"/><polygon class="cls-1" points="146.17 116.88 146.17 20.09 62.35 68.49 146.17 116.88"/></g></g></svg>