<svg xmlns="http://www.w3.org/2000/svg" viewBox="0 0 191.55 221.15"><defs><style>.cls-1{fill:none;stroke:#fff;stroke-miterlimit:10;}</style></defs><title>Asset 4</title><g id="Layer_2" data-name="Layer 2"><g id="Layer_1-2" data-name="Layer 1"><polygon class="cls-1" points="0.51 55.58 95.78 0.58 191.04 55.58 191.04 165.58 95.78 220.58 0.51 165.58 0.51 55.58"/><polygon class="cls-1" points="0.51 62.04 90.18 3.81 185.44 52.35 191.04 159.12 101.37 217.35 6.11 168.81 0.51 62.04"/><polygon class="cls-1" points="0.84 68.31 84.92 7.23 179.85 49.5 190.71 152.84 106.64 213.93 11.71 171.66 0.84 68.31"/><polygon class="cls-1" points="1.48 74.38 79.98 10.82 174.27 47.01 190.07 146.77 111.58 210.34 17.28 174.14 1.48 74.38"/><polygon class="cls-1" points="2.41 80.24 75.37 14.55 168.73 44.89 189.15 140.91 116.19 206.6 22.82 176.27 2.41 80.24"/><polygon class="cls-1" points="3.61 85.88 71.08 18.41 163.25 43.1 187.95 135.27 120.47 202.75 28.3 178.05 3.61 85.88"/><polygon class="cls-1" points="5.06 91.3 67.12 22.37 157.84 41.65 186.5 129.86 124.44 198.78 33.72 179.5 5.06 91.3"/><polygon class="cls-1" points="6.74 96.48 63.47 26.42 152.51 40.52 184.81 124.68 128.08 194.74 39.05 180.63 6.74 96.48"/><polygon class="cls-1" points="8.64 101.42 60.14 30.54 147.28 39.69 182.91 119.74 131.41 190.62 44.28 181.46 8.64 101.42"/><polygon class="cls-1" points="10.73 106.12 57.12 34.7 142.16 39.16 180.82 115.03 134.44 186.46 49.4 182 10.73 106.12"/><polygon class="cls-1" points="13 110.58 54.39 38.89 137.16 38.89 178.55 110.58 137.16 182.26 54.39 182.26 13 110.58"/></g></g></svg>