<svg xmlns="http://www.w3.org/2000/svg" viewBox="0 0 239.41 239.41"><defs><style>.cls-1{fill:none;stroke:#31a9de;stroke-miterlimit:10;}</style></defs><title>Asset 6</title><g id="Layer_2" data-name="Layer 2"><g id="Layer_1-2" data-name="Layer 1"><rect class="cls-1" x="35.56" y="35.56" width="168.29" height="168.29" transform="translate(-49.58 119.71) rotate(-45)"/><rect class="cls-1" x="42.29" y="42.29" width="154.83" height="154.83" transform="translate(-48.94 134.46) rotate(-50)"/><rect class="cls-1" x="48.49" y="48.49" width="142.44" height="142.44" transform="translate(-47.01 149.1) rotate(-55)"/><rect class="cls-1" x="54.18" y="54.18" width="131.05" height="131.05" transform="translate(-43.82 163.52) rotate(-60)"/><rect class="cls-1" x="59.43" y="59.43" width="120.56" height="120.56" transform="translate(-39.37 177.61) rotate(-65)"/><rect class="cls-1" x="64.25" y="64.25" width="110.92" height="110.92" transform="translate(-33.72 191.25) rotate(-70)"/><rect class="cls-1" x="68.68" y="68.68" width="102.04" height="102.04" transform="translate(-26.9 204.35) rotate(-75)"/><rect class="cls-1" x="72.77" y="72.77" width="93.88" height="93.88" transform="translate(-18.97 216.81) rotate(-80)"/><rect class="cls-1" x="76.52" y="76.52" width="86.37" height="86.37" transform="translate(-9.98 228.53) rotate(-85)"/><rect class="cls-1" x="79.98" y="79.98" width="79.46" height="79.46"/></g></g></svg>