<svg xmlns="http://www.w3.org/2000/svg" viewBox="0 0 211.36 201.16"><defs><style>.cls-1{fill:none;stroke:#ffc952;stroke-miterlimit:10;}</style></defs><title>Asset 7</title><g id="Layer_2" data-name="Layer 2"><g id="Layer_1-2" data-name="Layer 1"><polyline class="cls-1" points="0.48 124.15 105.62 200.54 210.77 124.15 170.61 0.54 40.64 0.54 0.48 124.15"/><polyline class="cls-1" points="7.52 129.27 112.67 195.42 208.07 115.86 161.89 0.55 37.95 8.83 7.52 129.27"/><polyline class="cls-1" points="14.57 134.39 119.72 190.3 205.38 107.58 153.18 0.55 35.25 17.12 14.57 134.39"/><polyline class="cls-1" points="21.62 138.14 125.46 184.75 201.88 100.4 145.27 1.66 33.87 24.98 21.62 138.14"/><polyline class="cls-1" points="28.67 141.89 131.2 179.21 198.38 93.23 137.36 2.77 32.48 32.84 28.67 141.89"/><polyline class="cls-1" points="35.54 144.39 135.7 173.44 194.28 87.16 130.33 4.79 32.22 40.16 35.54 144.39"/><polyline class="cls-1" points="42.42 146.89 140.21 167.68 190.19 81.1 123.3 6.8 31.97 47.47 42.42 146.89"/><polyline class="cls-1" points="48.97 148.29 143.56 161.87 185.71 76.12 117.17 9.53 32.67 54.13 48.97 148.29"/><polyline class="cls-1" points="55.53 149.68 146.91 156.07 181.22 71.14 111.05 12.26 33.37 60.8 55.53 149.68"/><polyline class="cls-1" points="61.66 150.11 149.21 150.38 176.52 67.19 105.84 15.51 34.85 66.76 61.66 150.11"/><polyline class="cls-1" points="67.78 150.54 151.51 144.68 171.81 63.24 100.63 18.77 36.34 72.72 67.78 150.54"/><polyline class="cls-1" points="73.39 150.15 152.87 139.22 167.04 60.26 96.32 22.39 38.45 77.94 73.39 150.15"/><polyline class="cls-1" points="79.01 149.75 154.23 133.76 162.27 57.28 92.01 26 40.55 83.15 79.01 149.75"/><polyline class="cls-1" points="84.05 148.68 154.76 128.64 157.56 55.19 88.56 29.84 43.13 87.62 84.05 148.68"/><polyline class="cls-1" points="89.09 147.61 155.3 123.51 152.84 53.09 85.11 33.67 45.71 92.08 89.09 147.61"/><polyline class="cls-1" points="93.53 145.99 155.14 118.79 148.3 51.79 82.47 37.59 48.62 95.81 93.53 145.99"/><polyline class="cls-1" points="97.97 144.38 154.97 114.07 143.76 50.49 79.83 41.5 51.53 99.53 97.97 144.38"/><polyline class="cls-1" points="101.79 142.35 154.22 109.81 139.47 49.89 77.93 45.4 54.64 102.54 101.79 142.35"/><polyline class="cls-1" points="105.61 140.31 153.47 105.54 135.19 49.28 76.03 49.28 57.76 105.54 105.61 140.31"/></g></g></svg>