<?xml version="1.0" standalone="no"?>
<!DOCTYPE svg PUBLIC "-//W3C//DTD SVG 1.1//EN" "http://www.w3.org/Graphics/SVG/1.1/DTD/svg11.dtd" >
<svg>
<metadata>
Created by FontForge 20120731 at Tue Aug 30 23:21:31 2016
 By ,,,
Copyright (c) 2013 by TypeUnion. All rights reserved.
</metadata>
<defs>
<font id="NokioBold" horiz-adv-x="610" >
  <font-face 
    font-family="NokioBold"
    font-weight="400"
    font-stretch="normal"
    units-per-em="1000"
    panose-1="2 0 0 0 0 0 0 0 0 0"
    ascent="750"
    descent="-250"
    x-height="497"
    cap-height="700"
    bbox="-145 -285 1135 1024.33"
    underline-thickness="50"
    underline-position="-100"
    unicode-range="U+0020-FB02"
  />
<missing-glyph horiz-adv-x="350" 
 />
    <glyph glyph-name=".notdef" horiz-adv-x="350" 
 />
    <glyph glyph-name=".null" horiz-adv-x="0" 
 />
    <glyph glyph-name="nonmarkingreturn" horiz-adv-x="350" 
 />
    <glyph glyph-name="space" unicode=" " horiz-adv-x="350" 
 />
    <glyph glyph-name="exclam" unicode="!" horiz-adv-x="220" 
d="M160 250q0 -21 -14.5 -35.5t-35.5 -14.5t-35.5 14.5t-14.5 35.5v400q0 21 14.5 35.5t35.5 14.5t35.5 -14.5t14.5 -35.5v-400zM165 55q0 23 -16 39t-39 16t-39 -16t-16 -39t16 -39t39 -16t39 16t16 39z" />
    <glyph glyph-name="quotedbl" unicode="&#x22;" horiz-adv-x="360" 
d="M155 521q0 -21 -14.5 -35.5t-35.5 -14.5t-35.5 14.5t-14.5 35.5v179q0 21 14.5 35.5t35.5 14.5t35.5 -14.5t14.5 -35.5v-179zM305 521q0 -21 -14.5 -35.5t-35.5 -14.5t-35.5 14.5t-14.5 35.5v179q0 21 14.5 35.5t35.5 14.5t35.5 -14.5t14.5 -35.5v-179z" />
    <glyph glyph-name="numbersign" unicode="#" horiz-adv-x="625" 
d="M419 200l-35 -161q-5 -20 -22 -31.5t-37 -6.5t-31.5 22.5t-6.5 37.5l30 139h-78l-35 -161q-5 -20 -22.5 -31.5t-37.5 -6.5t-31.5 22.5t-6.5 37.5l30 139h-31q-21 0 -35.5 14.5t-14.5 35.5t14.5 35.5t35.5 14.5h53l22 100h-35q-21 0 -35.5 14.5t-14.5 35.5t14.5 35.5
t35.5 14.5h57l35 161q4 20 21.5 31.5t37.5 6.5t31.5 -22.5t6.5 -37.5l-30 -139h78l35 161q5 20 22.5 31.5t37.5 6.5t31.5 -22.5t6.5 -37.5l-31 -139h36q20 0 35 -14.5t15 -35.5t-15 -35.5t-35 -14.5h-57l-22 -100h39q21 0 35.5 -14.5t14.5 -35.5t-14.5 -35.5t-35.5 -14.5
h-61zM360 400h-78l-22 -100h79z" />
    <glyph glyph-name="dollar" unicode="$" 
d="M355 -50q0 -21 -14.5 -35.5t-35.5 -14.5t-35.5 14.5t-14.5 35.5v50h-150q-21 0 -35.5 14.5t-14.5 35.5t14.5 35.5t35.5 14.5h150v200q-42 0 -78.5 15.5t-63.5 42.5t-42.5 63.5t-15.5 78.5q0 41 15.5 77.5t42.5 63.5t63.5 43t78.5 16v50q0 21 14.5 35.5t35.5 14.5
t35.5 -14.5t14.5 -35.5v-50h70q21 0 35.5 -14.5t14.5 -35.5t-14.5 -35.5t-35.5 -14.5h-70v-200q41 0 77.5 -16t63.5 -43t43 -63.5t16 -77.5q0 -42 -16 -78.5t-43 -63.5t-63.5 -42.5t-77.5 -15.5v-50zM255 600q-42 0 -71 -29t-29 -71t29 -71t71 -29v200zM355 100q42 0 71 29
t29 71t-29 71t-71 29v-200z" />
    <glyph glyph-name="percent" unicode="%" horiz-adv-x="810" 
d="M230 350q-36 0 -68 13.5t-56 37.5t-37.5 56t-13.5 68t13.5 68t37.5 56t56 37.5t68 13.5t68 -13.5t56 -37.5t37.5 -56t13.5 -68t-13.5 -68t-37.5 -56t-56 -37.5t-68 -13.5zM305 525q0 31 -22 53t-53 22t-53 -22t-22 -53t22 -53t53 -22t53 22t22 53zM580 0q-36 0 -68 13.5
t-56 37.5t-37.5 56t-13.5 68t13.5 68t37.5 56t56 37.5t68 13.5t68 -13.5t56 -37.5t37.5 -56t13.5 -68t-13.5 -68t-37.5 -56t-56 -37.5t-68 -13.5zM580 100q31 0 53 22t22 53t-22 53t-53 22t-53 -22t-22 -53t22 -53t53 -22zM140 15q-14 -15 -35 -15t-35 15q-15 14 -15 35
t15 35l600 600q14 15 35 15t35 -15q15 -14 15 -35t-15 -35z" />
    <glyph glyph-name="ampersand" unicode="&#x26;" horiz-adv-x="670" 
d="M434 122l-72 -69q-24 -25 -56.5 -39t-70.5 -14q-37 0 -70 14t-57.5 38.5t-38.5 57.5t-14 70q0 39 16 72t40 59l78 88l-40 45q-44 47 -44 106q0 31 12 58.5t32 47.5t47.5 32t58.5 12t58.5 -12t47.5 -32t32 -47.5t12 -58.5t-12 -57.5t-32 -48.5l-39 -45l117 -133l90 87
q15 15 36 14.5t35 -15.5t14 -35.5t-15 -35.5l-93 -90l96 -108q14 -16 12.5 -36.5t-17.5 -34.5q-15 -14 -35.5 -12.5t-34.5 17.5zM290 515q6 8 10.5 16t4.5 19q0 21 -14.5 35.5t-35.5 14.5t-35.5 -14.5t-14.5 -35.5q0 -19 15 -35l35 -41zM255 323l-73 -83q-11 -14 -19 -28
t-8 -32q0 -33 23.5 -56.5t56.5 -23.5q17 0 30.5 6t26.5 17l75 74z" />
    <glyph glyph-name="quotesingle" unicode="'" horiz-adv-x="210" 
d="M155 521q0 -21 -14.5 -35.5t-35.5 -14.5t-35.5 14.5t-14.5 35.5v179q0 21 14.5 35.5t35.5 14.5t35.5 -14.5t14.5 -35.5v-179z" />
    <glyph glyph-name="parenleft" unicode="(" horiz-adv-x="288" 
d="M228 -123q8 -19 0.5 -38t-27.5 -27q-19 -8 -38 0t-27 27q-81 196 -81 411q0 214 81 411q8 19 27 27t38 0q20 -8 27.5 -27t-0.5 -39q-73 -179 -73 -372q0 -192 73 -373z" />
    <glyph glyph-name="parenright" unicode=")" horiz-adv-x="288" 
d="M60 -123q73 181 73 373q0 193 -73 372q-8 20 -0.5 39t27.5 27q19 8 38 0t27 -27q81 -197 81 -411q0 -215 -81 -411q-8 -19 -27 -27t-38 0q-20 8 -27.5 27t0.5 38z" />
    <glyph glyph-name="asterisk" unicode="*" horiz-adv-x="366" 
d="M286 608q18 -11 23.5 -30.5t-5.5 -37.5q-10 -18 -30 -23.5t-38 4.5l-3 2v-3q0 -21 -14.5 -35.5t-35.5 -14.5t-35.5 14.5t-14.5 35.5v3l-3 -2q-18 -10 -37.5 -4.5t-30.5 23.5t-5.5 37.5t23.5 30.5l3 2l-3 1q-18 11 -23.5 31t5.5 38t30.5 23.5t37.5 -5.5l3 -2v4
q0 20 14.5 35t35.5 15t35.5 -15t14.5 -35v-4l3 2q18 11 38 5.5t30 -23.5q11 -18 5.5 -38t-23.5 -31l-3 -1z" />
    <glyph glyph-name="plus" unicode="+" 
d="M355 200v-150q0 -21 -14.5 -35.5t-35.5 -14.5t-35.5 14.5t-14.5 35.5v150h-150q-21 0 -35.5 14.5t-14.5 35.5t14.5 35.5t35.5 14.5h150v150q0 21 14.5 35.5t35.5 14.5t35.5 -14.5t14.5 -35.5v-150h150q21 0 35.5 -14.5t14.5 -35.5t-14.5 -35.5t-35.5 -14.5h-150z" />
    <glyph glyph-name="comma" unicode="," horiz-adv-x="210" 
d="M105 110q21 0 35.5 -14.5t14.5 -35.5v-50q0 -26 -10 -48.5t-27 -39.5t-39.5 -27t-48.5 -10q-21 0 -35.5 14.5t-14.5 35.5t14.5 35.5t35.5 14.5q11 0 18 7t7 18v50q0 21 14.5 35.5t35.5 14.5z" />
    <glyph glyph-name="hyphen" unicode="-" horiz-adv-x="580" 
d="M105 200q-21 0 -35.5 14.5t-14.5 35.5t14.5 35.5t35.5 14.5h370q21 0 35.5 -14.5t14.5 -35.5t-14.5 -35.5t-35.5 -14.5h-370z" />
    <glyph glyph-name="period" unicode="." horiz-adv-x="220" 
d="M165 55q0 -23 -16 -39t-39 -16t-39 16t-16 39t16 39t39 16t39 -16t16 -39z" />
    <glyph glyph-name="slash" unicode="/" horiz-adv-x="611" 
d="M464 678q12 17 32.5 21t37.5 -8q17 -11 21 -31.5t-8 -37.5l-399 -600q-12 -17 -32.5 -21t-37.5 7q-17 12 -21 32.5t7 37.5z" />
    <glyph glyph-name="zero" unicode="0" horiz-adv-x="510" 
d="M455 200q0 -42 -16 -78.5t-43 -63.5t-63.5 -42.5t-77.5 -15.5q-42 0 -78.5 15.5t-63.5 42.5t-42.5 63.5t-15.5 78.5v300q0 41 15.5 77.5t42.5 63.5t63.5 43t78.5 16q41 0 77.5 -16t63.5 -43t43 -63.5t16 -77.5v-300zM355 500q0 42 -29 71t-71 29t-71 -29t-29 -71v-300
q0 -42 29 -71t71 -29t71 29t29 71v300z" />
    <glyph glyph-name="one" unicode="1" horiz-adv-x="360" 
d="M205 529l-65 -64q-14 -15 -35 -15t-35 15q-15 14 -15 35t15 35l150 150q15 15 35 15q21 0 35.5 -14.5t14.5 -35.5v-600q0 -21 -14.5 -35.5t-35.5 -14.5t-35.5 14.5t-14.5 35.5v479z" />
    <glyph glyph-name="two" unicode="2" horiz-adv-x="510" 
d="M105 0q-21 0 -35.5 14.5t-14.5 35.5q0 17 10 30l261 349q13 18 21 34t8 37q0 42 -29 71t-71 29t-71 -29t-29 -71q0 -21 -14.5 -35.5t-35.5 -14.5t-35.5 14.5t-14.5 35.5q0 41 15.5 77.5t42.5 63.5t63.5 43t78.5 16q41 0 77.5 -16t63.5 -43t43 -63.5t16 -77.5t-16 -73.5
t-40 -65.5l-195 -261h201q21 0 35.5 -14.5t14.5 -35.5t-14.5 -35.5t-35.5 -14.5h-300z" />
    <glyph glyph-name="three" unicode="3" horiz-adv-x="510" 
d="M387 350q32 -28 50 -66.5t18 -83.5q0 -42 -16 -78.5t-43 -63.5t-63.5 -42.5t-77.5 -15.5q-42 0 -78.5 15.5t-63.5 42.5t-42.5 63.5t-15.5 78.5q0 21 14.5 35.5t35.5 14.5t35.5 -14.5t14.5 -35.5q0 -42 29 -71t71 -29t71 29t29 71t-29 71t-71 29q-21 0 -35.5 14.5
t-14.5 35.5t14.5 35.5t35.5 14.5q42 0 71 29t29 71t-29 71t-71 29t-71 -29t-29 -71q0 -21 -14.5 -35.5t-35.5 -14.5t-35.5 14.5t-14.5 35.5q0 41 15.5 77.5t42.5 63.5t63.5 43t78.5 16q41 0 77.5 -16t63.5 -43t43 -63.5t16 -77.5q0 -45 -18 -83.5t-50 -66.5z" />
    <glyph glyph-name="four" unicode="4" horiz-adv-x="510" 
d="M275 180h-170q-21 0 -35.5 14.5t-14.5 35.5v420q0 21 14.5 35.5t35.5 14.5t35.5 -14.5t14.5 -35.5v-370h120v370q0 21 14.5 35.5t35.5 14.5t35.5 -14.5t14.5 -35.5v-370h30q21 0 35.5 -14.5t14.5 -35.5t-14.5 -35.5t-35.5 -14.5h-30v-130q0 -21 -14.5 -35.5t-35.5 -14.5
t-35.5 14.5t-14.5 35.5v130z" />
    <glyph glyph-name="five" unicode="5" horiz-adv-x="510" 
d="M157 300q-21 0 -35.5 14.5t-14.5 35.5h-2v300q0 21 14.5 35.5t35.5 14.5h200q21 0 35.5 -14.5t14.5 -35.5t-14.5 -35.5t-35.5 -14.5h-148v-200h48q41 0 77.5 -16t63.5 -43t43 -63.5t16 -77.5q0 -42 -16 -78.5t-43 -63.5t-63.5 -42.5t-77.5 -15.5q-42 0 -78.5 15.5
t-63.5 42.5t-42.5 63.5t-15.5 78.5q0 21 14.5 35.5t35.5 14.5t35.5 -14.5t14.5 -35.5q0 -42 29 -71t71 -29t71 29t29 71t-29 71t-71 29h-98z" />
    <glyph glyph-name="six" unicode="6" horiz-adv-x="510" 
d="M315 669q11 18 31 23t37 -6q18 -11 23 -31.5t-6 -37.5l-139 -224q40 -1 75.5 -17.5t62 -43.5t41.5 -63t15 -76q0 -42 -15.5 -78.5t-42.5 -63.5t-63.5 -42.5t-78.5 -15.5q-41 0 -77.5 15.5t-63.5 42.5t-43 63.5t-16 78.5q0 58 31 106zM355 193q0 42 -29 71t-71 29t-71 -29
t-29 -71t29 -71t71 -29t71 29t29 71z" />
    <glyph glyph-name="seven" unicode="7" horiz-adv-x="510" 
d="M335 600h-230q-21 0 -35.5 14.5t-14.5 35.5t14.5 35.5t35.5 14.5h300q21 0 35.5 -14.5t14.5 -35.5q0 -9 -3 -16l-208 -600q-7 -20 -25 -29t-38 -2t-29 25t-2 38z" />
    <glyph glyph-name="eight" unicode="8" horiz-adv-x="510" 
d="M387 350q32 -28 50 -66.5t18 -83.5q0 -42 -16 -78.5t-43 -63.5t-63.5 -42.5t-77.5 -15.5q-42 0 -78.5 15.5t-63.5 42.5t-42.5 63.5t-15.5 78.5q0 45 18 83.5t50 66.5q-32 28 -50 66.5t-18 83.5q0 41 15.5 77.5t42.5 63.5t63.5 43t78.5 16q41 0 77.5 -16t63.5 -43
t43 -63.5t16 -77.5q0 -45 -18 -83.5t-50 -66.5zM355 500q0 42 -29 71t-71 29t-71 -29t-29 -71t29 -71t71 -29t71 29t29 71zM255 100q42 0 71 29t29 71t-29 71t-71 29t-71 -29t-29 -71t29 -71t71 -29z" />
    <glyph glyph-name="nine" unicode="9" horiz-adv-x="510" 
d="M249 300q-41 1 -76 17.5t-61.5 43.5t-41.5 62.5t-15 76.5q0 42 15.5 78.5t42.5 63.5t63.5 42.5t78.5 15.5q41 0 77.5 -15.5t63.5 -42.5t43 -63.5t16 -78.5q0 -58 -31 -106l-229 -370q-11 -18 -31 -23t-37 6q-18 11 -23 31.5t6 37.5zM355 500q0 42 -29 71t-71 29t-71 -29
t-29 -71t29 -71t71 -29t71 29t29 71z" />
    <glyph glyph-name="colon" unicode=":" horiz-adv-x="220" 
d="M165 55q0 -23 -16 -39t-39 -16t-39 16t-16 39t16 39t39 16t39 -16t16 -39zM165 445q0 -23 -16 -39t-39 -16t-39 16t-16 39t16 39t39 16t39 -16t16 -39z" />
    <glyph glyph-name="semicolon" unicode=";" horiz-adv-x="220" 
d="M165 445q0 -23 -16 -39t-39 -16t-39 16t-16 39t16 39t39 16t39 -16t16 -39zM110 110q-21 0 -35.5 -14.5t-14.5 -35.5v-50q0 -11 -7 -18t-18 -7q-21 0 -35.5 -14.5t-14.5 -35.5t14.5 -35.5t35.5 -14.5q26 0 48.5 10t39.5 27t27 39.5t10 48.5v50q0 21 -14.5 35.5
t-35.5 14.5z" />
    <glyph glyph-name="less" unicode="&#x3c;" horiz-adv-x="611" 
d="M83 205q-8 4 -14 10q-5 5 -9.5 14t-4.5 21t4.5 20.5t9.5 13.5q6 6 14 11l399 200q19 9 38.5 2.5t29.5 -24.5q9 -19 2.5 -38.5t-24.5 -29.5l-311 -155l310 -155q19 -10 25.5 -29.5t-2.5 -37.5q-10 -19 -29.5 -25.5t-37.5 2.5z" />
    <glyph glyph-name="equal" unicode="=" 
d="M105 279q-21 0 -35.5 14.5t-14.5 35.5t14.5 35.5t35.5 14.5h400q21 0 35.5 -14.5t14.5 -35.5t-14.5 -35.5t-35.5 -14.5h-400zM105 121q-21 0 -35.5 14.5t-14.5 35.5t14.5 35.5t35.5 14.5h400q21 0 35.5 -14.5t14.5 -35.5t-14.5 -35.5t-35.5 -14.5h-400z" />
    <glyph glyph-name="greater" unicode="&#x3e;" horiz-adv-x="611" 
d="M128 5q-18 -9 -37.5 -2.5t-29.5 25.5q-9 18 -2.5 37.5t25.5 29.5l310 155l-311 155q-18 10 -24.5 29.5t2.5 38.5q10 18 29.5 24.5t38.5 -2.5l399 -200q8 -5 14 -11q5 -5 9.5 -13.5t4.5 -20.5t-4.5 -21t-9.5 -14q-6 -6 -14 -10z" />
    <glyph glyph-name="question" unicode="?" horiz-adv-x="510" 
d="M205 350q0 21 14.5 35.5t35.5 14.5q42 0 71 29t29 71t-29 71t-71 29t-71 -29t-29 -71q0 -21 -14.5 -35.5t-35.5 -14.5t-35.5 14.5t-14.5 35.5q0 41 15.5 77.5t42.5 63.5t63.5 43t78.5 16q41 0 77.5 -16t63.5 -43t43 -63.5t16 -77.5q0 -35 -11.5 -66.5t-31.5 -57
t-47.5 -44t-59.5 -26.5v-116q0 -21 -14.5 -35.5t-35.5 -14.5t-35.5 14.5t-14.5 35.5v160zM255 0q-21 0 -35.5 14.5t-14.5 35.5t14.5 35.5t35.5 14.5t35.5 -14.5t14.5 -35.5t-14.5 -35.5t-35.5 -14.5z" />
    <glyph glyph-name="at" unicode="@" horiz-adv-x="1010" 
d="M855 250q0 73 -27.5 136.5t-75 111t-111.5 75t-136 27.5t-136 -27.5t-111.5 -75t-75 -111.5t-27.5 -136t27.5 -136t75 -111.5t111.5 -75t136 -27.5q21 0 35.5 -14.5t14.5 -35.5t-14.5 -35.5t-35.5 -14.5q-93 0 -175 35.5t-143 96.5t-96.5 143t-35.5 175t35.5 175
t96.5 143t143 96.5t175 35.5t175 -35.5t143 -96.5t96.5 -143t35.5 -175v-250q0 -31 -12 -58.5t-32 -47.5t-47.5 -32t-58.5 -12t-58.5 12t-47.5 32t-32 47.5t-12 58.5v50v1q-32 -24 -70 -37t-80 -13q-52 0 -97.5 19.5t-79.5 53.5t-53.5 79.5t-19.5 97.5t19.5 97.5t53.5 79.5
t79.5 53.5t97.5 19.5t97.5 -19.5t79.5 -53.5t53.5 -79.5t19.5 -97.5v-251q0 -21 14.5 -35.5t35.5 -14.5t35.5 14.5t14.5 35.5v250zM505 101q31 0 58.5 12t47.5 32t32 47.5t12 58.5t-12 58.5t-32 47.5t-47.5 32t-58.5 12t-58.5 -12t-47.5 -32t-32 -47.5t-12 -58.5t12 -58.5
t32 -47.5t47.5 -32t58.5 -12z" />
    <glyph glyph-name="A" unicode="A" 
d="M455 200h-300v-150q0 -21 -14.5 -35.5t-35.5 -14.5t-35.5 14.5t-14.5 35.5v400q0 52 19.5 97.5t53.5 79.5t79.5 53.5t97.5 19.5t97.5 -19.5t79.5 -53.5t53.5 -79.5t19.5 -97.5v-400q0 -21 -14.5 -35.5t-35.5 -14.5t-35.5 14.5t-14.5 35.5v150zM455 450q0 31 -12 58.5
t-32 47.5t-47.5 32t-58.5 12t-58.5 -12t-47.5 -32t-32 -47.5t-12 -58.5v-150h300v150z" />
    <glyph glyph-name="B" unicode="B" 
d="M105 0q-21 0 -35.5 14.5t-14.5 35.5v600q0 21 14.5 35.5t35.5 14.5h200q41 0 77.5 -16t63.5 -43t43 -63.5t16 -77.5q0 -37 -12.5 -70t-34.5 -59q44 -26 70.5 -71t26.5 -100q0 -42 -16 -78.5t-43 -63.5t-63.5 -42.5t-77.5 -15.5h-250zM305 400q42 0 71 29t29 71t-29 71
t-71 29h-150v-200h150zM355 100q42 0 71 29t29 71t-29 71t-71 29h-200v-200h200z" />
    <glyph glyph-name="C" unicode="C" horiz-adv-x="552" 
d="M55 450q0 52 19.5 97.5t53.5 79.5t79.5 53.5t97.5 19.5t97 -19.5t80 -53.5q14 -15 14 -35.5t-14 -35.5q-15 -14 -36 -14t-35 14q-20 20 -47.5 32t-58.5 12t-58.5 -12t-47.5 -32t-32 -47.5t-12 -58.5v-200q0 -31 12 -58.5t32 -47.5t47.5 -32t58.5 -12t58.5 12t47.5 32
q15 15 35.5 15t35.5 -15q14 -14 14 -35t-14 -35q-34 -35 -79.5 -54.5t-97.5 -19.5t-97.5 19.5t-79.5 53.5t-53.5 79.5t-19.5 97.5v200z" />
    <glyph glyph-name="D" unicode="D" 
d="M105 0q-21 0 -35.5 14.5t-14.5 35.5v600q0 21 14.5 35.5t35.5 14.5h200q52 0 97.5 -19.5t79.5 -53.5t53.5 -79.5t19.5 -97.5v-200q0 -52 -19.5 -97.5t-53.5 -79.5t-79.5 -53.5t-97.5 -19.5h-200zM455 450q0 31 -12 58.5t-32 47.5t-47.5 32t-58.5 12h-150v-500h150
q31 0 58.5 12t47.5 32t32 47.5t12 58.5v200z" />
    <glyph glyph-name="E" unicode="E" 
d="M105 0q-21 0 -35.5 14.5t-14.5 35.5v600q0 21 14.5 35.5t35.5 14.5h400q21 0 35.5 -14.5t14.5 -35.5t-14.5 -35.5t-35.5 -14.5h-350v-300h284q20 0 35 -14.5t15 -35.5t-14.5 -34.5t-35.5 -15.5h-284v-100h350q21 0 35.5 -14.5t14.5 -35.5t-14.5 -35.5t-35.5 -14.5h-400z
" />
    <glyph glyph-name="F" unicode="F" 
d="M155 200v-150q0 -21 -14.5 -35.5t-35.5 -14.5t-35.5 14.5t-14.5 35.5v600q0 21 14.5 35.5t35.5 14.5h400q21 0 35.5 -14.5t14.5 -35.5t-14.5 -35.5t-35.5 -14.5h-350v-300h284q20 0 35 -14.5t15 -35.5t-15 -35.5t-35 -14.5h-284z" />
    <glyph glyph-name="G" unicode="G" 
d="M455 300h-100q-21 0 -35.5 14.5t-14.5 35.5t14.5 35.5t35.5 14.5h150q21 0 35.5 -14.5t14.5 -35.5v-100q0 -52 -19.5 -97.5t-53.5 -79.5t-79.5 -53.5t-97.5 -19.5t-97.5 19.5t-79.5 53.5t-53.5 79.5t-19.5 97.5v200q0 52 19.5 97.5t53.5 79.5t79.5 53.5t97.5 19.5
t97 -19.5t79 -53.5q15 -15 15 -35.5t-15 -35.5q-14 -15 -35 -15t-35 15l-3 3q-20 19 -46.5 30t-56.5 11q-31 0 -58.5 -12t-47.5 -32t-32 -47.5t-12 -58.5v-200q0 -31 12 -58.5t32 -47.5t47.5 -32t58.5 -12t58.5 12t47.5 32t32 47.5t12 58.5v50z" />
    <glyph glyph-name="H" unicode="H" 
d="M455 200h-300v-150q0 -21 -14.5 -35.5t-35.5 -14.5t-35.5 14.5t-14.5 35.5v600q0 21 14.5 35.5t35.5 14.5t35.5 -14.5t14.5 -35.5v-350h300v350q0 21 14.5 35.5t35.5 14.5t35.5 -14.5t14.5 -35.5v-600q0 -21 -14.5 -35.5t-35.5 -14.5t-35.5 14.5t-14.5 35.5v150z" />
    <glyph glyph-name="I" unicode="I" horiz-adv-x="210" 
d="M55 650q0 21 14.5 35.5t35.5 14.5t35.5 -14.5t14.5 -35.5v-600q0 -21 -14.5 -35.5t-35.5 -14.5t-35.5 14.5t-14.5 35.5v600z" />
    <glyph glyph-name="J" unicode="J" 
d="M455 650q0 21 14.5 35.5t35.5 14.5t35.5 -14.5t14.5 -35.5v-400q0 -52 -19.5 -97.5t-53.5 -79.5t-79.5 -53.5t-97.5 -19.5t-97.5 19.5t-79.5 53.5t-53.5 79.5t-19.5 97.5q0 21 14.5 35.5t35.5 14.5t35.5 -14.5t14.5 -35.5q0 -31 12 -58.5t32 -47.5t47.5 -32t58.5 -12
t58.5 12t47.5 32t32 47.5t12 58.5v400z" />
    <glyph glyph-name="K" unicode="K" 
d="M205 279l-50 -50v-179q0 -21 -14.5 -35.5t-35.5 -14.5t-35.5 14.5t-14.5 35.5v600q0 21 14.5 35.5t35.5 14.5t35.5 -14.5t14.5 -35.5v-279l315 314q14 15 35 15t35 -15q15 -14 15 -35t-15 -35l-264 -265l264 -265q15 -14 15 -35t-15 -35q-14 -15 -35 -15t-35 15z" />
    <glyph glyph-name="L" unicode="L" 
d="M105 0q-21 0 -35.5 14.5t-14.5 35.5v600q0 21 14.5 35.5t35.5 14.5t35.5 -14.5t14.5 -35.5v-550h350q21 0 35.5 -14.5t14.5 -35.5t-14.5 -35.5t-35.5 -14.5h-400z" />
    <glyph glyph-name="M" unicode="M" horiz-adv-x="710" 
d="M555 423l-155 -334q-4 -9 -10 -15q-5 -5 -14 -9.5t-21 -4.5q-13 0 -21.5 4.5t-13.5 9.5q-6 6 -10 15l-155 334v-373q0 -21 -14.5 -35.5t-35.5 -14.5t-35.5 14.5t-14.5 35.5v600q0 21 14.5 35.5t35.5 14.5q15 0 27 -8t18 -21l205 -442l205 442q6 13 18 21t27 8
q21 0 35.5 -14.5t14.5 -35.5v-600q0 -21 -14.5 -35.5t-35.5 -14.5t-35.5 14.5t-14.5 35.5v373z" />
    <glyph glyph-name="N" unicode="N" 
d="M155 485v-435q0 -21 -14.5 -35.5t-35.5 -14.5t-35.5 14.5t-14.5 35.5v600q0 21 14.5 35.5t35.5 14.5q13 0 24 -6t18 -16l308 -463v435q0 21 14.5 35.5t35.5 14.5t35.5 -14.5t14.5 -35.5v-600q0 -21 -14.5 -35.5t-35.5 -14.5q-13 0 -24 6t-18 16z" />
    <glyph glyph-name="O" unicode="O" 
d="M555 250q0 -52 -19.5 -97.5t-53.5 -79.5t-79.5 -53.5t-97.5 -19.5t-97.5 19.5t-79.5 53.5t-53.5 79.5t-19.5 97.5v200q0 52 19.5 97.5t53.5 79.5t79.5 53.5t97.5 19.5t97.5 -19.5t79.5 -53.5t53.5 -79.5t19.5 -97.5v-200zM455 450q0 31 -12 58.5t-32 47.5t-47.5 32
t-58.5 12t-58.5 -12t-47.5 -32t-32 -47.5t-12 -58.5v-200q0 -31 12 -58.5t32 -47.5t47.5 -32t58.5 -12t58.5 12t47.5 32t32 47.5t12 58.5v200z" />
    <glyph glyph-name="P" unicode="P" 
d="M155 210v-160q0 -21 -14.5 -35.5t-35.5 -14.5t-35.5 14.5t-14.5 35.5v600q0 21 14.5 35.5t35.5 14.5h205q51 0 95.5 -19.5t77.5 -52.5t52.5 -77.5t19.5 -95.5t-19.5 -95.5t-52.5 -77.5t-77.5 -52.5t-95.5 -19.5h-155zM310 310q30 0 56.5 11.5t46 31t31 46t11.5 56.5
t-11.5 56.5t-31 46t-46 31t-56.5 11.5h-155v-290h155z" />
    <glyph glyph-name="Q" unicode="Q" 
d="M443 41q-30 -20 -65 -30.5t-73 -10.5q-52 0 -97.5 19.5t-79.5 53.5t-53.5 79.5t-19.5 97.5v200q0 52 19.5 97.5t53.5 79.5t79.5 53.5t97.5 19.5t97.5 -19.5t79.5 -53.5t53.5 -79.5t19.5 -97.5v-200q0 -76 -42 -138l63 -63q15 -14 15 -35t-15 -35q-14 -15 -35 -15t-35 15z
M455 450q0 31 -12 58.5t-32 47.5t-47.5 32t-58.5 12t-58.5 -12t-47.5 -32t-32 -47.5t-12 -58.5v-200q0 -31 12 -58.5t32 -47.5t47.5 -32t58.5 -12t58.5 12t47.5 32t32 47.5t12 58.5v200z" />
    <glyph glyph-name="R" unicode="R" 
d="M274 210h1h-120v-160q0 -21 -14.5 -35.5t-35.5 -14.5t-35.5 14.5t-14.5 35.5v600q0 21 14.5 35.5t35.5 14.5h205q51 0 95.5 -19.5t77.5 -52.5t52.5 -77.5t19.5 -95.5q0 -39 -11.5 -74.5t-32.5 -65.5t-49.5 -52.5t-62.5 -35.5l141 -142q15 -14 15 -35t-15 -35
q-14 -15 -35 -15t-35 15zM310 310q30 0 56.5 11.5t46 31t31 46t11.5 56.5t-11.5 56.5t-31 46t-46 31t-56.5 11.5h-155v-290h155z" />
    <glyph glyph-name="S" unicode="S" 
d="M105 0q-21 0 -35.5 14.5t-14.5 35.5t14.5 35.5t35.5 14.5h250q42 0 71 29t29 71t-29 71t-71 29h-100q-42 0 -78.5 15.5t-63.5 42.5t-42.5 63.5t-15.5 78.5q0 41 15.5 77.5t42.5 63.5t63.5 43t78.5 16h170q21 0 35.5 -14.5t14.5 -35.5t-14.5 -35.5t-35.5 -14.5h-170
q-42 0 -71 -29t-29 -71t29 -71t71 -29h100q41 0 77.5 -16t63.5 -43t43 -63.5t16 -77.5q0 -42 -16 -78.5t-43 -63.5t-63.5 -42.5t-77.5 -15.5h-250z" />
    <glyph glyph-name="T" unicode="T" 
d="M255 600h-150q-21 0 -35.5 14.5t-14.5 35.5t14.5 35.5t35.5 14.5h400q21 0 35.5 -14.5t14.5 -35.5t-14.5 -35.5t-35.5 -14.5h-150v-550q0 -21 -14.5 -35.5t-35.5 -14.5t-35.5 14.5t-14.5 35.5v550z" />
    <glyph glyph-name="U" unicode="U" 
d="M455 650q0 21 14.5 35.5t35.5 14.5t35.5 -14.5t14.5 -35.5v-400q0 -52 -19.5 -97.5t-53.5 -79.5t-79.5 -53.5t-97.5 -19.5t-97.5 19.5t-79.5 53.5t-53.5 79.5t-19.5 97.5v400q0 21 14.5 35.5t35.5 14.5t35.5 -14.5t14.5 -35.5v-400q0 -31 12 -58.5t32 -47.5t47.5 -32
t58.5 -12t58.5 12t47.5 32t32 47.5t12 58.5v400z" />
    <glyph glyph-name="V" unicode="V" 
d="M58 634q-7 20 2 38.5t29 24.5q20 7 38.5 -2t24.5 -29l153 -458l153 458q6 20 24.5 29t38.5 2q20 -6 29 -24.5t2 -38.5l-200 -600q-4 -10 -10 -17q-5 -7 -14 -12t-23 -5t-23 5t-14 12q-6 7 -10 17z" />
    <glyph glyph-name="W" unicode="W" horiz-adv-x="811" 
d="M406 305l-100 -272q-4 -10 -10 -17q-5 -6 -14 -11t-23 -5q-15 0 -24.5 5.5t-14.5 13.5q-6 8 -9 19l-154 600q-5 20 6 37.5t31 22.5t37.5 -5.5t22.5 -30.5l114 -444l91 249q4 9 10 16q5 6 14 11.5t23 5.5t23 -5.5t14 -11.5q6 -7 10 -16l91 -249l113 444q5 20 23 30.5
t38 5.5t30.5 -22.5t5.5 -37.5l-153 -600q-3 -11 -9 -19q-5 -8 -15 -13.5t-24 -5.5t-23 5t-14 11q-6 7 -10 17z" />
    <glyph glyph-name="X" unicode="X" horiz-adv-x="612" 
d="M306 260l-158 -238q-12 -17 -32.5 -21t-37.5 7q-17 12 -21 32.5t7 37.5l182 272l-182 272q-11 17 -7 37.5t21 31.5q17 12 37.5 8t31.5 -21l159 -238l158 238q12 17 32.5 21t37.5 -8q17 -11 21 -31.5t-8 -37.5l-181 -272l182 -272q11 -17 7 -37.5t-21 -32.5
q-17 -11 -37.5 -7t-32.5 21z" />
    <glyph glyph-name="Y" unicode="Y" 
d="M255 255q-43 9 -79.5 31t-63.5 54.5t-42 73.5t-15 86v150q0 21 14.5 35.5t35.5 14.5t35.5 -14.5t14.5 -35.5v-150q0 -31 12 -58.5t32 -47.5t47.5 -32t58.5 -12t58.5 12t47.5 32t32 47.5t12 58.5v150q0 21 14.5 35.5t35.5 14.5t35.5 -14.5t14.5 -35.5v-150q0 -45 -15 -86
t-42 -73.5t-63.5 -54.5t-79.5 -31v-205q0 -21 -14.5 -35.5t-35.5 -14.5t-35.5 14.5t-14.5 35.5v205z" />
    <glyph glyph-name="Z" unicode="Z" 
d="M105 0q-21 0 -35.5 14.5t-14.5 35.5q0 15 8 28l349 522h-307q-21 0 -35.5 14.5t-14.5 35.5t14.5 35.5t35.5 14.5h400q21 0 35.5 -14.5t14.5 -35.5q0 -15 -8 -28l-349 -522h307q21 0 35.5 -14.5t14.5 -35.5t-14.5 -35.5t-35.5 -14.5h-400z" />
    <glyph glyph-name="bracketleft" unicode="[" horiz-adv-x="310" 
d="M105 -192q-21 0 -35.5 14.5t-14.5 35.5v782q0 21 14.5 35.5t35.5 14.5h100q21 0 35.5 -14.5t14.5 -35.5t-14.5 -35.5t-35.5 -14.5h-50v-682h50q21 0 35.5 -14.5t14.5 -35.5t-14.5 -35.5t-35.5 -14.5h-100z" />
    <glyph glyph-name="backslash" unicode="\" horiz-adv-x="611" 
d="M547 78q11 -17 7 -37.5t-21 -32.5q-17 -11 -37.5 -7t-32.5 21l-399 600q-12 17 -8 37.5t21 31.5q17 12 37.5 8t32.5 -21z" />
    <glyph glyph-name="bracketright" unicode="]" horiz-adv-x="310" 
d="M255 -142q0 -21 -14.5 -35.5t-35.5 -14.5h-100q-21 0 -35.5 14.5t-14.5 35.5t14.5 35.5t35.5 14.5h50v682h-50q-21 0 -35.5 14.5t-14.5 35.5t14.5 35.5t35.5 14.5h100q21 0 35.5 -14.5t14.5 -35.5v-782z" />
    <glyph glyph-name="asciicircum" unicode="^" horiz-adv-x="554" 
d="M277 332l-151 -70q-19 -9 -38.5 -2t-27.5 26q-9 19 -2 38.5t26 27.5l193 91l193 -91q19 -8 26 -27.5t-2 -38.5q-8 -19 -27.5 -26t-38.5 2z" />
    <glyph glyph-name="underscore" unicode="_" 
d="M105 -120q-21 0 -35.5 14.5t-14.5 35.5t14.5 35.5t35.5 14.5h400q21 0 35.5 -14.5t14.5 -35.5t-14.5 -35.5t-35.5 -14.5h-400z" />
    <glyph glyph-name="grave" unicode="`" horiz-adv-x="382" 
d="M298 655q19 -8 26 -27.5t-2 -38.5q-8 -19 -27.5 -26t-38.5 2l-172 80q-19 9 -26 28t2 38q8 19 27.5 26t38.5 -1z" />
    <glyph glyph-name="a" unicode="a" 
d="M455 51q-32 -24 -70 -37t-80 -13q-52 0 -97.5 19.5t-79.5 53.5t-53.5 79.5t-19.5 97.5t19.5 97.5t53.5 79.5t79.5 53.5t97.5 19.5t97.5 -19.5t79.5 -53.5t53.5 -79.5t19.5 -97.5v-201q0 -21 -14.5 -35.5t-35.5 -14.5t-35.5 14.5t-14.5 35.5v1zM305 101q31 0 58.5 12
t47.5 32t32 47.5t12 58.5t-12 58.5t-32 47.5t-47.5 32t-58.5 12t-58.5 -12t-47.5 -32t-32 -47.5t-12 -58.5t12 -58.5t32 -47.5t47.5 -32t58.5 -12z" />
    <glyph glyph-name="b" unicode="b" 
d="M55 700q0 21 14.5 35.5t35.5 14.5t35.5 -14.5t14.5 -35.5v-250q32 23 70 36.5t80 13.5q52 0 97.5 -19.5t79.5 -53.5t53.5 -79.5t19.5 -97.5t-19.5 -97.5t-53.5 -79.5t-79.5 -53.5t-97.5 -19.5q-42 0 -80 13.5t-70 36.5q0 -21 -14.5 -35.5t-35.5 -14.5t-35.5 14.5
t-14.5 35.5v650zM305 100q31 0 58.5 12t47.5 32t32 47.5t12 58.5t-12 58.5t-32 47.5t-47.5 32t-58.5 12t-58.5 -12t-47.5 -32t-32 -47.5t-12 -58.5t12 -58.5t32 -47.5t47.5 -32t58.5 -12z" />
    <glyph glyph-name="c" unicode="c" horiz-adv-x="552" 
d="M482 73q-34 -34 -79.5 -53.5t-97.5 -19.5t-97.5 19.5t-79.5 53.5t-53.5 79.5t-19.5 97.5t19.5 97.5t53.5 79.5t79.5 53.5t97.5 19.5t97 -19.5t80 -53.5q14 -15 14 -35.5t-14 -35.5q-15 -14 -36 -14t-35 14q-20 20 -47.5 32t-58.5 12t-58.5 -12t-47.5 -32t-32 -47.5
t-12 -58.5t12 -58.5t32 -47.5t47.5 -32t58.5 -12t58.5 12t47.5 32q15 14 35.5 14t35.5 -14q14 -15 14 -35.5t-14 -35.5z" />
    <glyph glyph-name="d" unicode="d" 
d="M555 50q0 -21 -14.5 -35.5t-35.5 -14.5t-35.5 14.5t-14.5 35.5q-32 -23 -70 -36.5t-80 -13.5q-52 0 -97.5 19.5t-79.5 53.5t-53.5 79.5t-19.5 97.5t19.5 97.5t53.5 79.5t79.5 53.5t97.5 19.5q42 0 80 -13.5t70 -36.5v250q0 21 14.5 35.5t35.5 14.5t35.5 -14.5t14.5 -35.5
v-650zM305 100q31 0 58.5 12t47.5 32t32 47.5t12 58.5t-12 58.5t-32 47.5t-47.5 32t-58.5 12t-58.5 -12t-47.5 -32t-32 -47.5t-12 -58.5t12 -58.5t32 -47.5t47.5 -32t58.5 -12z" />
    <glyph glyph-name="e" unicode="e" 
d="M164 200q15 -44 53.5 -72t87.5 -28q31 0 58.5 12t47.5 32q14 14 35 14t36 -14q14 -15 14 -35.5t-14 -35.5q-35 -34 -80 -53.5t-97 -19.5t-97.5 19.5t-79.5 53.5t-53.5 79.5t-19.5 97.5t19.5 97.5t53.5 79.5t79.5 53.5t97.5 19.5t97.5 -19.5t79.5 -53.5t53.5 -79.5
t19.5 -97.5q0 -20 -14.5 -35t-35.5 -15h-341zM446 300q-15 44 -53.5 72t-87.5 28t-87.5 -28t-54.5 -72h283z" />
    <glyph glyph-name="f" unicode="f" horiz-adv-x="381" 
d="M155 50q0 -21 -14.5 -35.5t-35.5 -14.5t-35.5 14.5t-14.5 35.5v550q0 31 12 58.5t32 47.5t47.5 32t58.5 12t58.5 -12t47.5 -32q15 -15 15 -36t-15 -35q-14 -15 -35 -15t-36 15t-35 15q-21 0 -35.5 -15t-14.5 -35v-100h118q21 0 35.5 -14.5t14.5 -35.5t-14.5 -35.5
t-35.5 -14.5h-118v-350z" />
    <glyph glyph-name="g" unicode="g" 
d="M455 50q-32 -23 -70 -36.5t-80 -13.5q-52 0 -97.5 19.5t-79.5 53.5t-53.5 79.5t-19.5 97.5t19.5 97.5t53.5 79.5t79.5 53.5t97.5 19.5q42 0 80 -13.5t70 -36.5q0 21 14.5 35.5t35.5 14.5t35.5 -14.5t14.5 -35.5v-450q0 -52 -19.5 -97.5t-53.5 -79.5t-79.5 -53.5
t-97.5 -19.5t-97 19.5t-79 53.5q-15 15 -15 35.5t15 35.5q14 14 35 14t35 -14q20 -20 47 -32t59 -12q31 0 58.5 12t47.5 32t32 47.5t12 58.5v50zM305 100q31 0 58.5 12t47.5 32t32 47.5t12 58.5t-12 58.5t-32 47.5t-47.5 32t-58.5 12t-58.5 -12t-47.5 -32t-32 -47.5
t-12 -58.5t12 -58.5t32 -47.5t47.5 -32t58.5 -12z" />
    <glyph glyph-name="h" unicode="h" 
d="M455 250q0 31 -12 58.5t-32 47.5t-47.5 32t-58.5 12t-58.5 -12t-47.5 -32t-32 -47.5t-12 -58.5v-200q0 -21 -14.5 -35.5t-35.5 -14.5t-35.5 14.5t-14.5 35.5v650q0 21 14.5 35.5t35.5 14.5t35.5 -14.5t14.5 -35.5v-250q32 23 70 36.5t80 13.5q52 0 97.5 -19.5t79.5 -53.5
t53.5 -79.5t19.5 -97.5v-200q0 -21 -14.5 -35.5t-35.5 -14.5t-35.5 14.5t-14.5 35.5v200z" />
    <glyph glyph-name="i" unicode="i" horiz-adv-x="220" 
d="M165 645q0 -23 -16 -39t-39 -16t-39 16t-16 39t16 39t39 16t39 -16t16 -39zM60 50q0 -21 14.5 -35.5t35.5 -14.5t35.5 14.5t14.5 35.5v400q0 21 -14.5 35.5t-35.5 14.5t-35.5 -14.5t-14.5 -35.5v-400z" />
    <glyph glyph-name="j" unicode="j" horiz-adv-x="215" 
d="M55 0q0 -31 -12 -58.5t-32 -47.5t-47.5 -32t-58.5 -12q-21 0 -35.5 -14.5t-14.5 -35.5t14.5 -35.5t35.5 -14.5q52 0 97.5 19.5t79.5 53.5t53.5 79.5t19.5 97.5v450q0 21 -14.5 35.5t-35.5 14.5t-35.5 -14.5t-14.5 -35.5v-450zM160 645q0 -23 -16 -39t-39 -16t-39 16
t-16 39t16 39t39 16t39 -16t16 -39z" />
    <glyph glyph-name="k" unicode="k" 
d="M305 179l-165 -164q-15 -15 -35 -15q-21 0 -35.5 14.5t-14.5 35.5v650q0 21 14.5 35.5t35.5 14.5t35.5 -14.5t14.5 -35.5v-529l315 314q14 15 35 15t35 -15q15 -14 15 -35t-15 -35l-164 -165l164 -165q15 -14 15 -35t-15 -35q-14 -15 -35 -15t-35 15z" />
    <glyph glyph-name="l" unicode="l" horiz-adv-x="210" 
d="M55 700q0 21 14.5 35.5t35.5 14.5t35.5 -14.5t14.5 -35.5v-650q0 -21 -14.5 -35.5t-35.5 -14.5t-35.5 14.5t-14.5 35.5v650z" />
    <glyph glyph-name="m" unicode="m" horiz-adv-x="910" 
d="M755 275q0 26 -10 48.5t-27 39.5t-39.5 27t-48.5 10t-48.5 -10t-39.5 -27t-27 -39.5t-10 -48.5v-225q0 -21 -14.5 -35.5t-35.5 -14.5t-35.5 14.5t-14.5 35.5v225q0 26 -10 48.5t-27 39.5t-39.5 27t-48.5 10t-48.5 -10t-39.5 -27t-27 -39.5t-10 -48.5v-225
q0 -21 -14.5 -35.5t-35.5 -14.5t-35.5 14.5t-14.5 35.5v400q0 21 14.5 35.5t35.5 14.5q18 0 31.5 -11t17.5 -28q56 39 126 39q54 0 99 -23t76 -61q31 38 76 61t99 23q46 0 87 -17.5t72 -48.5t48.5 -72t17.5 -87v-225q0 -21 -14.5 -35.5t-35.5 -14.5t-35.5 14.5t-14.5 35.5
v225z" />
    <glyph glyph-name="n" unicode="n" 
d="M55 450q0 21 14.5 35.5t35.5 14.5t35.5 -14.5t14.5 -35.5q32 23 70 36.5t80 13.5q52 0 97.5 -19.5t79.5 -53.5t53.5 -79.5t19.5 -97.5v-200q0 -21 -14.5 -35.5t-35.5 -14.5t-35.5 14.5t-14.5 35.5v200q0 31 -12 58.5t-32 47.5t-47.5 32t-58.5 12t-58.5 -12t-47.5 -32
t-32 -47.5t-12 -58.5v-200q0 -21 -14.5 -35.5t-35.5 -14.5t-35.5 14.5t-14.5 35.5v400z" />
    <glyph glyph-name="o" unicode="o" 
d="M305 0q-52 0 -97.5 19.5t-79.5 53.5t-53.5 79.5t-19.5 97.5t19.5 97.5t53.5 79.5t79.5 53.5t97.5 19.5t97.5 -19.5t79.5 -53.5t53.5 -79.5t19.5 -97.5t-19.5 -97.5t-53.5 -79.5t-79.5 -53.5t-97.5 -19.5zM305 100q31 0 58.5 12t47.5 32t32 47.5t12 58.5t-12 58.5
t-32 47.5t-47.5 32t-58.5 12t-58.5 -12t-47.5 -32t-32 -47.5t-12 -58.5t12 -58.5t32 -47.5t47.5 -32t58.5 -12z" />
    <glyph glyph-name="p" unicode="p" 
d="M155 -200q0 -21 -14.5 -35.5t-35.5 -14.5t-35.5 14.5t-14.5 35.5v650q0 21 14.5 35.5t35.5 14.5t35.5 -14.5t14.5 -35.5q32 23 70 36.5t80 13.5q52 0 97.5 -19.5t79.5 -53.5t53.5 -79.5t19.5 -97.5t-19.5 -97.5t-53.5 -79.5t-79.5 -53.5t-97.5 -19.5q-42 0 -80 13.5
t-70 36.5v-250zM305 100q31 0 58.5 12t47.5 32t32 47.5t12 58.5t-12 58.5t-32 47.5t-47.5 32t-58.5 12t-58.5 -12t-47.5 -32t-32 -47.5t-12 -58.5t12 -58.5t32 -47.5t47.5 -32t58.5 -12z" />
    <glyph glyph-name="q" unicode="q" 
d="M455 50q-32 -23 -70 -36.5t-80 -13.5q-52 0 -97.5 19.5t-79.5 53.5t-53.5 79.5t-19.5 97.5t19.5 97.5t53.5 79.5t79.5 53.5t97.5 19.5q42 0 80 -13.5t70 -36.5q0 21 14.5 35.5t35.5 14.5t35.5 -14.5t14.5 -35.5v-650q0 -21 -14.5 -35.5t-35.5 -14.5t-35.5 14.5
t-14.5 35.5v250zM455 250q0 31 -12 58.5t-32 47.5t-47.5 32t-58.5 12t-58.5 -12t-47.5 -32t-32 -47.5t-12 -58.5t12 -58.5t32 -47.5t47.5 -32t58.5 -12t58.5 12t47.5 32t32 47.5t12 58.5z" />
    <glyph glyph-name="r" unicode="r" horiz-adv-x="410" 
d="M55 450q0 21 14.5 35.5t35.5 14.5t35.5 -14.5t14.5 -35.5q32 23 70 36.5t80 13.5q21 0 35.5 -14.5t14.5 -35.5t-14.5 -35.5t-35.5 -14.5q-31 0 -58.5 -12t-47.5 -32t-32 -47.5t-12 -58.5v-200q0 -21 -14.5 -35.5t-35.5 -14.5t-35.5 14.5t-14.5 35.5v400z" />
    <glyph glyph-name="s" unicode="s" horiz-adv-x="510" 
d="M127 0q-21 0 -35.5 14.5t-14.5 35.5t14.5 35.5t35.5 14.5h200q21 0 35.5 14.5t14.5 35.5t-14.5 35.5t-35.5 14.5h-100q-31 0 -58.5 12t-47.5 32t-32 47.5t-12 58.5t12 58.5t32 47.5t47.5 32t58.5 12h141q20 0 35 -14.5t15 -35.5t-15 -35.5t-35 -14.5h-141
q-21 0 -35.5 -14.5t-14.5 -35.5t14.5 -35.5t35.5 -14.5h100q31 0 58.5 -12t47.5 -32t32 -47.5t12 -58.5t-12 -58.5t-32 -47.5t-47.5 -32t-58.5 -12h-200z" />
    <glyph glyph-name="t" unicode="t" horiz-adv-x="381" 
d="M55 650q0 21 14.5 35.5t35.5 14.5t35.5 -14.5t14.5 -35.5v-150h80q21 0 35.5 -14.5t14.5 -35.5t-14.5 -35.5t-35.5 -14.5h-80v-250q0 -20 14.5 -35t35.5 -15q20 0 35 15t36 15t35 -15q15 -14 15 -35t-15 -36q-20 -20 -47.5 -32t-58.5 -12t-58.5 12t-47.5 32t-32 47.5
t-12 58.5v500z" />
    <glyph glyph-name="u" unicode="u" 
d="M555 50q0 -21 -14.5 -35.5t-35.5 -14.5t-35.5 14.5t-14.5 35.5q-32 -23 -70 -36.5t-80 -13.5q-52 0 -97.5 19.5t-79.5 53.5t-53.5 79.5t-19.5 97.5v200q0 21 14.5 35.5t35.5 14.5t35.5 -14.5t14.5 -35.5v-200q0 -31 12 -58.5t32 -47.5t47.5 -32t58.5 -12t58.5 12t47.5 32
t32 47.5t12 58.5v200q0 21 14.5 35.5t35.5 14.5t35.5 -14.5t14.5 -35.5v-400z" />
    <glyph glyph-name="v" unicode="v" horiz-adv-x="612" 
d="M61 428q-9 18 -2.5 37.5t25.5 29.5q18 9 37.5 2.5t29.5 -25.5l155 -310l155 311q10 18 29.5 24.5t38.5 -2.5q18 -10 24.5 -29.5t-2.5 -38.5l-200 -399q-5 -8 -11 -14q-5 -5 -13.5 -9.5t-20.5 -4.5t-21 4.5t-14 9.5q-6 6 -10 14z" />
    <glyph glyph-name="w" unicode="w" horiz-adv-x="791" 
d="M396 191l-97 -166q-4 -8 -10 -13q-5 -5 -13.5 -8.5t-19.5 -3.5q-14 0 -23 5t-14 11q-6 7 -10 16l-150 401q-8 20 1 38t29 26q20 7 38 -1.5t26 -28.5l113 -301l87 149q4 7 10 12q5 5 13 9t20 4q11 0 19.5 -4t13.5 -9q6 -5 10 -12l87 -149l113 302q7 19 25.5 27.5t38.5 1.5
q20 -8 28.5 -26.5t0.5 -38.5l-149 -400q-4 -9 -10 -16q-5 -6 -14.5 -11t-22.5 -5q-11 0 -19.5 3.5t-13.5 8.5q-6 5 -11 13z" />
    <glyph glyph-name="x" unicode="x" 
d="M305 179l-165 -164q-14 -15 -35 -15t-35 15q-15 14 -15 35t15 35l164 165l-164 165q-15 14 -15 35t15 35q14 15 35 15t35 -15l165 -164l165 164q14 15 35 15t35 -15q15 -14 15 -35t-15 -35l-164 -165l164 -165q15 -14 15 -35t-15 -35q-14 -15 -35 -15t-35 15z" />
    <glyph glyph-name="y" unicode="y" horiz-adv-x="659" 
d="M297 49l-189 379q-9 18 -2.5 37.5t25.5 29.5q18 9 37.5 2.5t29.5 -25.5l155 -310l155 311q10 18 29.5 24.5t38.5 -2.5q18 -10 24.5 -29.5t-2.5 -38.5l-269 -539q-32 -62 -91 -100t-133 -38q-21 0 -35.5 14.5t-14.5 35.5t14.5 35.5t35.5 14.5q20 0 40 6t37.5 16.5t31 23.5
t21.5 28z" />
    <glyph glyph-name="z" unicode="z" 
d="M105 0q-21 0 -35.5 14.5t-14.5 35.5q0 20 15 35l314 315h-279q-21 0 -35.5 14.5t-14.5 35.5t14.5 35.5t35.5 14.5h400q21 0 35.5 -14.5t14.5 -35.5q0 -20 -15 -35l-314 -315h279q21 0 35.5 -14.5t14.5 -35.5t-14.5 -35.5t-35.5 -14.5h-400z" />
    <glyph glyph-name="braceleft" unicode="{" horiz-adv-x="510" 
d="M305 -191q-21 0 -35.5 14.5t-14.5 35.5v191q-41 0 -77.5 15.5t-63.5 42.5t-43 63.5t-16 78.5q0 41 16 77.5t43 63.5t63.5 43t77.5 16v191q0 21 14.5 35.5t35.5 14.5h100q21 0 35.5 -14.5t14.5 -35.5t-14.5 -35.5t-35.5 -14.5h-50v-241h-100q-42 0 -71 -29t-29 -71
q0 -21 8 -39.5t21.5 -32t31.5 -21t39 -7.5h100v-241h50q21 0 35.5 -14.5t14.5 -35.5t-14.5 -35.5t-35.5 -14.5h-100z" />
    <glyph glyph-name="bar" unicode="|" horiz-adv-x="210" 
d="M55 700q0 21 14.5 35.5t35.5 14.5t35.5 -14.5t14.5 -35.5v-900q0 -21 -14.5 -35.5t-35.5 -14.5t-35.5 14.5t-14.5 35.5v900z" />
    <glyph glyph-name="braceright" unicode="}" horiz-adv-x="510" 
d="M255 -141q0 -21 -14.5 -35.5t-35.5 -14.5h-100q-21 0 -35.5 14.5t-14.5 35.5t14.5 35.5t35.5 14.5h50v241h100q21 0 39 7.5t31.5 21t21.5 32t8 39.5q0 42 -29 71t-71 29h-100v241h-50q-21 0 -35.5 14.5t-14.5 35.5t14.5 35.5t35.5 14.5h100q21 0 35.5 -14.5t14.5 -35.5
v-191q41 0 77.5 -16t63.5 -43t43 -63.5t16 -77.5q0 -42 -16 -78.5t-43 -63.5t-63.5 -42.5t-77.5 -15.5v-191z" />
    <glyph glyph-name="asciitilde" unicode="~" horiz-adv-x="460" 
d="M293 414q23 0 43.5 -9t35.5 -24.5t24 -36t9 -43.5v-50q0 -20 -14.5 -35t-35.5 -15q-20 0 -35 15t-15 35v50q0 13 -12 13q-13 0 -13 -13q0 -23 -9 -43.5t-24 -35.5t-35.5 -24t-43.5 -9t-43.5 9t-36 24t-24.5 35.5t-9 43.5v50q0 21 15 35.5t35 14.5q21 0 35.5 -14.5
t14.5 -35.5v-50q0 -5 4 -8.5t9 -3.5t8.5 3.5t3.5 8.5q0 23 9 43.5t24.5 36t36 24.5t43.5 9z" />
    <glyph glyph-name="uni00A0" unicode="&#xa0;" horiz-adv-x="350" 
 />
    <glyph glyph-name="exclamdown" unicode="&#xa1;" horiz-adv-x="220" 
d="M60 -150q0 -21 14.5 -35.5t35.5 -14.5t35.5 14.5t14.5 35.5v400q0 21 -14.5 35.5t-35.5 14.5t-35.5 -14.5t-14.5 -35.5v-400zM165 445q0 -23 -16 -39t-39 -16t-39 16t-16 39t16 39t39 16t39 -16t16 -39z" />
    <glyph glyph-name="cent" unicode="&#xa2;" horiz-adv-x="552" 
d="M355 -50q0 -21 -14.5 -35.5t-35.5 -14.5t-35.5 14.5t-14.5 35.5v55q-43 9 -79.5 31t-63.5 54.5t-42 73.5t-15 86t15 86t42 73.5t63.5 54.5t79.5 31v55q0 21 14.5 35.5t35.5 14.5t35.5 -14.5t14.5 -35.5v-55q37 -8 69 -25t58 -43q14 -15 14 -35.5t-14 -35.5
q-15 -14 -36 -14t-35 14q-20 20 -47.5 32t-58.5 12t-58.5 -12t-47.5 -32t-32 -47.5t-12 -58.5t12 -58.5t32 -47.5t47.5 -32t58.5 -12t58.5 12t47.5 32q15 14 35.5 14t35.5 -14q14 -15 14 -35.5t-14 -35.5q-26 -26 -58 -43t-69 -25v-55z" />
    <glyph glyph-name="sterling" unicode="&#xa3;" horiz-adv-x="510" 
d="M155 0q-21 0 -35.5 14.5t-14.5 35.5v140q-21 0 -35.5 14.5t-14.5 35.5t14.5 35.5t35.5 14.5v30q-21 0 -35.5 14.5t-14.5 35.5t14.5 35.5t35.5 14.5v105q0 36 13.5 68t37.5 56t56 37.5t68 13.5t68 -13.5t56 -37.5t37.5 -56t13.5 -68q0 -21 -14.5 -35.5t-35.5 -14.5
t-35.5 14.5t-14.5 35.5q0 31 -22 53t-53 22t-53 -22t-22 -53v-105h150q21 0 35.5 -14.5t14.5 -35.5t-14.5 -35.5t-35.5 -14.5h-150v-30h150q21 0 35.5 -14.5t14.5 -35.5t-14.5 -35.5t-35.5 -14.5h-150v-90h200q21 0 35.5 -14.5t14.5 -35.5t-14.5 -35.5t-35.5 -14.5h-250z
" />
    <glyph glyph-name="currency" unicode="&#xa4;" 
d="M443 41q-30 -20 -65 -30.5t-73 -10.5t-73 10.5t-65 30.5l-27 -26q-14 -15 -35 -15t-35 15q-15 14 -15 35t15 35l26 27q-20 30 -30.5 65t-10.5 73t10.5 73t30.5 65l-26 27q-15 14 -15 35t15 35q14 15 35 15t35 -15l27 -27q62 42 138 42t138 -42l27 27q14 15 35 15t35 -15
q15 -14 15 -35t-15 -35l-27 -27q42 -62 42 -138t-42 -138l27 -27q15 -14 15 -35t-15 -35q-14 -15 -35 -15t-35 15zM455 250q0 31 -12 58.5t-32 47.5t-47.5 32t-58.5 12t-58.5 -12t-47.5 -32t-32 -47.5t-12 -58.5t12 -58.5t32 -47.5t47.5 -32t58.5 -12t58.5 12t47.5 32
t32 47.5t12 58.5z" />
    <glyph glyph-name="yen" unicode="&#xa5;" 
d="M355 50q0 -21 -14.5 -35.5t-35.5 -14.5t-35.5 14.5t-14.5 35.5h-150q-21 0 -35.5 14.5t-14.5 35.5t14.5 35.5t35.5 14.5h150v20h-150q-21 0 -35.5 14.5t-14.5 35.5t14.5 35.5t35.5 14.5h102q-33 14 -61 37.5t-48.5 53.5t-31.5 65t-11 74v150q0 21 14.5 35.5t35.5 14.5
t35.5 -14.5t14.5 -35.5v-150q0 -31 12 -58.5t32 -47.5t47.5 -32t58.5 -12t58.5 12t47.5 32t32 47.5t12 58.5v150q0 21 14.5 35.5t35.5 14.5t35.5 -14.5t14.5 -35.5v-150q0 -39 -11 -74t-31.5 -65t-48.5 -53.5t-61 -37.5h102q21 0 35.5 -14.5t14.5 -35.5t-14.5 -35.5
t-35.5 -14.5h-150v-20h150q21 0 35.5 -14.5t14.5 -35.5t-14.5 -35.5t-35.5 -14.5h-150z" />
    <glyph glyph-name="brokenbar" unicode="&#xa6;" horiz-adv-x="210" 
d="M55 620q0 21 14.5 35.5t35.5 14.5t35.5 -14.5t14.5 -35.5v-290q0 -21 -14.5 -35.5t-35.5 -14.5t-35.5 14.5t-14.5 35.5v290zM55 179q0 21 14.5 35.5t35.5 14.5t35.5 -14.5t14.5 -35.5v-290q0 -21 -14.5 -35.5t-35.5 -14.5t-35.5 14.5t-14.5 35.5v290z" />
    <glyph glyph-name="section" unicode="&#xa7;" horiz-adv-x="510" 
d="M105 0q-21 0 -35.5 14.5t-14.5 35.5t14.5 35.5t35.5 14.5h200q21 0 35.5 14.5t14.5 35.5t-14.5 35.5t-35.5 14.5h-100q-31 0 -58.5 12t-47.5 32t-32 47.5t-12 58.5q0 29 10 54.5t28 45.5q-38 41 -38 100q0 31 12 58.5t32 47.5t47.5 32t58.5 12h200q21 0 35.5 -14.5
t14.5 -35.5t-14.5 -35.5t-35.5 -14.5h-200q-21 0 -35.5 -14.5t-14.5 -35.5t14.5 -35.5t35.5 -14.5h100q31 0 58.5 -12t47.5 -32t32 -47.5t12 -58.5q0 -59 -38 -100q18 -20 28 -45.5t10 -54.5q0 -31 -12 -58.5t-32 -47.5t-47.5 -32t-58.5 -12h-200zM205 400
q-21 0 -35.5 -14.5t-14.5 -35.5t14.5 -35.5t35.5 -14.5h100q21 0 35.5 14.5t14.5 35.5t-14.5 35.5t-35.5 14.5h-100z" />
    <glyph glyph-name="dieresis" unicode="&#xa8;" horiz-adv-x="410" 
d="M165 615q0 -23 -16 -39t-39 -16t-39 16t-16 39t16 39t39 16t39 -16t16 -39zM355 615q0 -23 -16 -39t-39 -16t-39 16t-16 39t16 39t39 16t39 -16t16 -39z" />
    <glyph glyph-name="copyright" unicode="&#xa9;" horiz-adv-x="910" 
d="M455 -50q-83 0 -156 31.5t-127 85.5t-85.5 127t-31.5 156t31.5 156t85.5 127t127 85.5t156 31.5t156 -31.5t127 -85.5t85.5 -127t31.5 -156t-31.5 -156t-85.5 -127t-127 -85.5t-156 -31.5zM455 50q62 0 117 23.5t95.5 64t64 95.5t23.5 117t-23.5 117t-64 95.5t-95.5 64
t-117 23.5t-117 -23.5t-95.5 -64t-64 -95.5t-23.5 -117t23.5 -117t64 -95.5t95.5 -64t117 -23.5zM614 191q-31 -31 -71.5 -48.5t-87.5 -17.5t-87.5 17.5t-71.5 48t-48.5 71t-17.5 87.5q0 46 17.5 87t48.5 72t71.5 48.5t87.5 17.5t87.5 -17.5t71.5 -48.5q14 -14 14 -35
t-14 -35q-15 -15 -35.5 -15t-35.5 15q-17 17 -39.5 26.5t-48.5 9.5t-48.5 -10t-39.5 -27t-27 -39.5t-10 -48.5t10 -48.5t27 -39t39.5 -26.5t48.5 -10t48.5 10t39.5 27q15 14 35.5 14t35.5 -14q14 -15 14 -36t-14 -35z" />
    <glyph glyph-name="ordfeminine" unicode="&#xaa;" horiz-adv-x="460" 
d="M405 400q0 -21 -14.5 -35.5t-35.5 -14.5q-26 0 -41 21q-19 -10 -40 -15.5t-44 -5.5q-36 0 -68 13.5t-56 37.5t-37.5 56t-13.5 68t13.5 68t37.5 56t56 37.5t68 13.5t68 -13.5t56 -37.5t37.5 -56t13.5 -68v-125zM230 450q31 0 53 22t22 53t-22 53t-53 22t-53 -22t-22 -53
t22 -53t53 -22z" />
    <glyph glyph-name="guillemotleft" unicode="&#xab;" horiz-adv-x="583" 
d="M293 214q-15 15 -15 36t15 35l149 149q15 14 35.5 14t35.5 -14q14 -15 14 -35.5t-14 -35.5l-114 -113l112 -111q14 -15 14 -35.5t-14 -35.5q-15 -14 -35.5 -14t-35.5 14zM70 214q-15 17 -15 36q0 20 15 35l149 149q15 14 35.5 14t35.5 -14q15 -15 15 -35.5t-15 -35.5
l-114 -113l112 -111q15 -15 15 -35.5t-15 -35.5q-14 -14 -35 -14t-36 14z" />
    <glyph glyph-name="logicalnot" unicode="&#xac;" horiz-adv-x="710" 
d="M555 370h-450q-21 0 -35.5 14.5t-14.5 35.5t14.5 35.5t35.5 14.5h500q21 0 35.5 -14.5t14.5 -35.5v-320q0 -21 -14.5 -35.5t-35.5 -14.5t-35.5 14.5t-14.5 35.5v270z" />
    <glyph glyph-name="registered" unicode="&#xae;" horiz-adv-x="910" 
d="M393 278v-103q0 -21 -14.5 -35.5t-35.5 -14.5t-35.5 14.5t-14.5 35.5v350q0 21 14.5 35.5t35.5 14.5h126q31 0 58 -11.5t47 -31.5t31.5 -47t11.5 -58q0 -47 -26 -84t-68 -53l79 -80q15 -14 15 -35t-15 -35q-14 -15 -35 -15t-35 15zM469 370q24 0 41 17t17 40q0 24 -17 41
t-41 17h-76v-115h76zM455 -50q-83 0 -156 31.5t-127 85.5t-85.5 127t-31.5 156t31.5 156t85.5 127t127 85.5t156 31.5t156 -31.5t127 -85.5t85.5 -127t31.5 -156t-31.5 -156t-85.5 -127t-127 -85.5t-156 -31.5zM455 50q62 0 117 23.5t95.5 64t64 95.5t23.5 117t-23.5 117
t-64 95.5t-95.5 64t-117 23.5t-117 -23.5t-95.5 -64t-64 -95.5t-23.5 -117t23.5 -117t64 -95.5t95.5 -64t117 -23.5z" />
    <glyph glyph-name="macron" unicode="&#xaf;" 
d="M105 560q-21 0 -35.5 14.5t-14.5 35.5t14.5 35.5t35.5 14.5h400q21 0 35.5 -14.5t14.5 -35.5t-14.5 -35.5t-35.5 -14.5h-400z" />
    <glyph glyph-name="degree" unicode="&#xb0;" horiz-adv-x="360" 
d="M180 500q-26 0 -48.5 10t-39.5 27t-27 39.5t-10 48.5t10 48.5t27 39.5t39.5 27t48.5 10t48.5 -10t39.5 -27t27 -39.5t10 -48.5t-10 -48.5t-27 -39.5t-39.5 -27t-48.5 -10zM180 600q11 0 18 7t7 18t-7 18t-18 7t-18 -7t-7 -18t7 -18t18 -7z" />
    <glyph glyph-name="plusminus" unicode="&#xb1;" 
d="M105 0q-21 0 -35.5 14.5t-14.5 35.5t14.5 35.5t35.5 14.5h400q21 0 35.5 -14.5t14.5 -35.5t-14.5 -35.5t-35.5 -14.5h-400zM355 400v-150q0 -21 -14.5 -35.5t-35.5 -14.5t-35.5 14.5t-14.5 35.5v150h-150q-21 0 -35.5 14.5t-14.5 35.5t14.5 35.5t35.5 14.5h150v150
q0 21 14.5 35.5t35.5 14.5t35.5 -14.5t14.5 -35.5v-150h150q21 0 35.5 -14.5t14.5 -35.5t-14.5 -35.5t-35.5 -14.5h-150z" />
    <glyph glyph-name="twosuperior" unicode="&#xb2;" horiz-adv-x="360" 
d="M105 300q-21 0 -35.5 14.5t-14.5 35.5q0 15 7 25l128 214q3 7 7 13q3 5 5.5 11.5t2.5 11.5q0 11 -7 18t-18 7t-18 -7t-7 -18q0 -21 -14.5 -35.5t-35.5 -14.5t-35.5 14.5t-14.5 35.5q0 26 10 48.5t27 39.5t39.5 27t48.5 10t48.5 -10t39.5 -27t27 -39.5t10 -48.5
q0 -20 -10.5 -41.5t-20.5 -41.5q-5 -11 -18.5 -34t-27.5 -47q-17 -28 -36 -61h63q21 0 35.5 -14.5t14.5 -35.5t-14.5 -35.5t-35.5 -14.5h-150z" />
    <glyph glyph-name="threesuperior" unicode="&#xb3;" horiz-adv-x="385" 
d="M299 525q14 -18 22.5 -40t8.5 -48q0 -28 -11 -53t-29.5 -43.5t-44 -29.5t-53.5 -11t-53 11t-43.5 29.5t-29.5 43.5t-11 53q0 21 14.5 35.5t35.5 14.5t35.5 -14.5t14.5 -35.5q0 -15 11 -26t26 -11q16 0 27 11t11 26q0 16 -11 27t-27 11q-20 0 -35 14.5t-15 35.5t15 35.5
t35 14.5q16 0 27 11t11 26q0 16 -11 27t-27 11q-15 0 -26 -11t-11 -27q0 -20 -14.5 -35t-35.5 -15t-35.5 15t-14.5 35q0 28 11 53.5t29.5 44t43.5 29.5t53 11t53.5 -11t44 -29.5t29.5 -44t11 -53.5q0 -25 -8.5 -47t-22.5 -40z" />
    <glyph glyph-name="acute" unicode="&#xb4;" horiz-adv-x="382" 
d="M126 565q-19 -9 -38.5 -2t-27.5 26q-9 19 -2 38.5t26 27.5l172 81q19 8 38.5 1t27.5 -26q9 -19 2 -38t-26 -28z" />
    <glyph glyph-name="mu" unicode="&#xb5;" 
d="M55 250v200q0 21 14.5 35.5t35.5 14.5t35.5 -14.5t14.5 -35.5v-200q0 -31 12 -58.5t32 -47.5t47.5 -32t58.5 -12t58.5 12t47.5 32t32 47.5t12 58.5v200q0 21 14.5 35.5t35.5 14.5t35.5 -14.5t14.5 -35.5v-400q0 -21 -14.5 -35.5t-35.5 -14.5t-35.5 14.5t-14.5 35.5
q-32 -23 -70 -36.5t-80 -13.5t-80 13.5t-70 36.5v-250q0 -21 -14.5 -35.5t-35.5 -14.5q-20 0 -35 14.5t-15 35.5v450z" />
    <glyph glyph-name="paragraph" unicode="&#xb6;" horiz-adv-x="640" 
d="M425 600h-70v-550q0 -21 -14.5 -35.5t-35.5 -14.5t-35.5 14.5t-14.5 35.5v250q-42 0 -78.5 15.5t-63.5 42.5t-42.5 63.5t-15.5 78.5q0 41 15.5 77.5t42.5 63.5t63.5 43t78.5 16h270h10q21 0 35.5 -14.5t14.5 -35.5t-14.5 -35.5t-35.5 -14.5h-10v-550q0 -21 -14.5 -35.5
t-35.5 -14.5t-35.5 14.5t-14.5 35.5v550z" />
    <glyph glyph-name="periodcentered" unicode="&#xb7;" horiz-adv-x="220" 
d="M165 300q0 -23 -16 -39t-39 -16t-39 16t-16 39t16 39t39 16t39 -16t16 -39z" />
    <glyph glyph-name="cedilla" unicode="&#xb8;" horiz-adv-x="312" 
d="M197 -42q27 -14 43.5 -40t16.5 -58q0 -23 -8.5 -43t-23.5 -35t-35 -23.5t-43 -8.5q-45 0 -77 32q-15 15 -15 36t15 35q14 15 35 15t35 -15q3 -3 7 -3q10 0 10 10t-10 10q-21 0 -35.5 14.5t-14.5 35.5v80q0 21 14.5 35.5t35.5 14.5t35.5 -14.5t14.5 -35.5v-42z" />
    <glyph glyph-name="onesuperior" unicode="&#xb9;" horiz-adv-x="310" 
d="M155 584l-15 -14q-14 -15 -35 -15t-35 15q-15 14 -15 35t15 35l50 48q22 21 51 48q11 11 25.5 13t27.5 -3.5t22 -17.5t9 -28v-350q0 -21 -14.5 -35.5t-35.5 -14.5t-35.5 14.5t-14.5 35.5v234z" />
    <glyph glyph-name="ordmasculine" unicode="&#xba;" horiz-adv-x="460" 
d="M230 700q36 0 68 -13.5t56 -37.5t37.5 -56t13.5 -68t-13.5 -68t-37.5 -56t-56 -37.5t-68 -13.5t-68 13.5t-56 37.5t-37.5 56t-13.5 68t13.5 68t37.5 56t56 37.5t68 13.5zM230 450q31 0 53 22t22 53t-22 53t-53 22t-53 -22t-22 -53t22 -53t53 -22z" />
    <glyph glyph-name="guillemotright" unicode="&#xbb;" horiz-adv-x="583" 
d="M143 68q-15 -14 -35.5 -14t-35.5 14q-14 15 -14 35.5t14 35.5l112 111l-114 113q-14 15 -14 35.5t14 35.5q15 14 35.5 14t35.5 -14l149 -149q15 -14 15 -35t-15 -36zM366 68q-15 -14 -36 -14t-35 14q-15 15 -15 35.5t15 35.5l112 111l-114 113q-15 15 -15 35.5t15 35.5
q15 14 35.5 14t35.5 -14l149 -149q15 -15 15 -35q0 -19 -15 -36z" />
    <glyph glyph-name="onequarter" unicode="&#xbc;" horiz-adv-x="860" 
d="M779 50q0 -21 -14.5 -35.5t-35.5 -14.5t-35.5 14.5t-14.5 35.5v64h-74q-21 0 -35.5 14.5t-14.5 35.5v236q0 21 14.5 35.5t35.5 14.5t35.5 -14.5t14.5 -35.5v-186h24v186q0 21 14.5 35.5t35.5 14.5t35.5 -14.5t14.5 -35.5v-192q26 -15 26 -44t-26 -44v-70zM623 731
q13 16 33 18.5t37 -10.5t19.5 -33t-10.5 -37l-510 -650q-13 -17 -33 -19t-37 11t-19 33t11 37zM155 584l-15 -14q-14 -15 -35 -15t-35 15q-15 14 -15 35t15 35l50 48q22 21 51 48q11 11 25.5 13t27.5 -3.5t22 -17.5t9 -28v-350q0 -21 -14.5 -35.5t-35.5 -14.5t-35.5 14.5
t-14.5 35.5v234z" />
    <glyph glyph-name="onehalf" unicode="&#xbd;" horiz-adv-x="840" 
d="M623 731q13 16 33 18.5t37 -10.5t19.5 -33t-10.5 -37l-510 -650q-13 -17 -33 -19t-37 11t-19 33t11 37zM155 584l-15 -14q-14 -15 -35 -15t-35 15q-15 14 -15 35t15 35l50 48q22 21 51 48q11 11 25.5 13t27.5 -3.5t22 -17.5t9 -28v-350q0 -21 -14.5 -35.5t-35.5 -14.5
t-35.5 14.5t-14.5 35.5v234zM585 0q-21 0 -35.5 14.5t-14.5 35.5q0 15 7 25l128 214q3 7 7 13q3 5 5.5 11.5t2.5 11.5q0 11 -7 18t-18 7t-18 -7t-7 -18q0 -21 -14.5 -35.5t-35.5 -14.5t-35.5 14.5t-14.5 35.5q0 26 10 48.5t27 39.5t39.5 27t48.5 10t48.5 -10t39.5 -27
t27 -39.5t10 -48.5q0 -20 -10.5 -41.5t-20.5 -41.5q-5 -11 -18.5 -34t-27.5 -47q-17 -28 -36 -61h63q21 0 35.5 -14.5t14.5 -35.5t-14.5 -35.5t-35.5 -14.5h-150z" />
    <glyph glyph-name="threequarters" unicode="&#xbe;" horiz-adv-x="860" 
d="M779 50q0 -21 -14.5 -35.5t-35.5 -14.5t-35.5 14.5t-14.5 35.5v64h-74q-21 0 -35.5 14.5t-14.5 35.5v236q0 21 14.5 35.5t35.5 14.5t35.5 -14.5t14.5 -35.5v-186h24v186q0 21 14.5 35.5t35.5 14.5t35.5 -14.5t14.5 -35.5v-192q26 -15 26 -44t-26 -44v-70zM643 731
q13 16 33 18.5t37 -10.5t19.5 -33t-10.5 -37l-510 -650q-13 -17 -33 -19t-37 11t-19 33t11 37zM299 525q14 -18 22.5 -40t8.5 -48q0 -28 -11 -53t-29.5 -43.5t-44 -29.5t-53.5 -11t-53 11t-43.5 29.5t-29.5 43.5t-11 53q0 21 14.5 35.5t35.5 14.5t35.5 -14.5t14.5 -35.5
q0 -15 11 -26t26 -11q16 0 27 11t11 26q0 16 -11 27t-27 11q-20 0 -35 14.5t-15 35.5t15 35.5t35 14.5q16 0 27 11t11 26q0 16 -11 27t-27 11q-15 0 -26 -11t-11 -27q0 -20 -14.5 -35t-35.5 -15t-35.5 15t-14.5 35q0 28 11 53.5t29.5 44t43.5 29.5t53 11t53.5 -11t44 -29.5
t29.5 -44t11 -53.5q0 -25 -8.5 -47t-22.5 -40z" />
    <glyph glyph-name="questiondown" unicode="&#xbf;" horiz-adv-x="510" 
d="M205 260q0 21 14.5 35.5t35.5 14.5t35.5 -14.5t14.5 -35.5v-160q0 -21 -14.5 -35.5t-35.5 -14.5q-42 0 -71 -29t-29 -71t29 -71t71 -29t71 29t29 71q0 21 14.5 35.5t35.5 14.5t35.5 -14.5t14.5 -35.5q0 -41 -15.5 -77.5t-42.5 -63.5t-63.5 -43t-78.5 -16q-41 0 -77.5 16
t-63.5 43t-43 63.5t-16 77.5q0 35 11.5 66.5t31.5 57t47.5 44t59.5 26.5v116zM255 350q-21 0 -35.5 14.5t-14.5 35.5t14.5 35.5t35.5 14.5t35.5 -14.5t14.5 -35.5t-14.5 -35.5t-35.5 -14.5z" />
    <glyph glyph-name="Agrave" unicode="&#xc0;" 
d="M455 50q0 -21 14.5 -35.5t35.5 -14.5t35.5 14.5t14.5 35.5v400q0 52 -19.5 97.5t-53.5 79.5t-79.5 53.5t-97.5 19.5t-97.5 -19.5t-79.5 -53.5t-53.5 -79.5t-19.5 -97.5v-400q0 -21 14.5 -35.5t35.5 -14.5t35.5 14.5t14.5 35.5v150h300v-150zM455 300h-300v150
q0 31 12 58.5t32 47.5t47.5 32t58.5 12t58.5 -12t47.5 -32t32 -47.5t12 -58.5v-150zM412 855q19 -8 26 -27.5t-2 -38.5q-8 -19 -27.5 -26t-38.5 2l-172 80q-19 9 -26 28t2 38q8 19 27.5 26t38.5 -1z" />
    <glyph glyph-name="Aacute" unicode="&#xc1;" 
d="M455 200h-300v-150q0 -21 -14.5 -35.5t-35.5 -14.5t-35.5 14.5t-14.5 35.5v400q0 52 19.5 97.5t53.5 79.5t79.5 53.5t97.5 19.5t97.5 -19.5t79.5 -53.5t53.5 -79.5t19.5 -97.5v-400q0 -21 -14.5 -35.5t-35.5 -14.5t-35.5 14.5t-14.5 35.5v150zM455 450q0 31 -12 58.5
t-32 47.5t-47.5 32t-58.5 12t-58.5 -12t-47.5 -32t-32 -47.5t-12 -58.5v-150h300v150zM240 765q-19 -9 -38.5 -2t-27.5 26q-9 19 -2 38.5t26 27.5l172 81q19 8 38.5 1t27.5 -26q9 -19 2 -38t-26 -28z" />
    <glyph glyph-name="Acircumflex" unicode="&#xc2;" 
d="M305 835l-151 -70q-19 -9 -38.5 -2t-27.5 26q-9 19 -2 38.5t26 27.5l193 91l193 -91q19 -8 26 -27.5t-2 -38.5q-8 -19 -27.5 -26t-38.5 2zM455 200h-300v-150q0 -21 -14.5 -35.5t-35.5 -14.5t-35.5 14.5t-14.5 35.5v400q0 52 19.5 97.5t53.5 79.5t79.5 53.5t97.5 19.5
t97.5 -19.5t79.5 -53.5t53.5 -79.5t19.5 -97.5v-400q0 -21 -14.5 -35.5t-35.5 -14.5t-35.5 14.5t-14.5 35.5v150zM455 450q0 31 -12 58.5t-32 47.5t-47.5 32t-58.5 12t-58.5 -12t-47.5 -32t-32 -47.5t-12 -58.5v-150h300v150z" />
    <glyph glyph-name="Atilde" unicode="&#xc3;" horiz-adv-x="612" 
d="M455 200h-300v-150q0 -21 -14.5 -35.5t-35.5 -14.5t-35.5 14.5t-14.5 35.5v400q0 52 19.5 97.5t53.5 79.5t79.5 53.5t97.5 19.5t97.5 -19.5t79.5 -53.5t53.5 -79.5t19.5 -97.5v-400q0 -21 -14.5 -35.5t-35.5 -14.5t-35.5 14.5t-14.5 35.5v150zM455 450q0 31 -12 58.5
t-32 47.5t-47.5 32t-58.5 12t-58.5 -12t-47.5 -32t-32 -47.5t-12 -58.5v-150h300v150zM370 985q23 0 43.5 -9t35.5 -24.5t24 -36t9 -43.5v-50q0 -20 -14.5 -35t-35.5 -15q-20 0 -35 15t-15 35v50q0 13 -12 13q-13 0 -13 -13q0 -23 -9 -43.5t-24 -35.5t-35.5 -24t-43.5 -9
t-43.5 9t-36 24t-24.5 35.5t-9 43.5v50q0 21 15 35.5t35 14.5q21 0 35.5 -14.5t14.5 -35.5v-50q0 -5 4 -8.5t9 -3.5t8.5 3.5t3.5 8.5q0 23 9 43.5t24.5 36t36 24.5t43.5 9z" />
    <glyph glyph-name="Adieresis" unicode="&#xc4;" 
d="M265 815q0 -23 -16 -39t-39 -16t-39 16t-16 39t16 39t39 16t39 -16t16 -39zM455 815q0 -23 -16 -39t-39 -16t-39 16t-16 39t16 39t39 16t39 -16t16 -39zM455 50q0 -21 14.5 -35.5t35.5 -14.5t35.5 14.5t14.5 35.5v400q0 52 -19.5 97.5t-53.5 79.5t-79.5 53.5t-97.5 19.5
t-97.5 -19.5t-79.5 -53.5t-53.5 -79.5t-19.5 -97.5v-400q0 -21 14.5 -35.5t35.5 -14.5t35.5 14.5t14.5 35.5v150h300v-150zM455 300h-300v150q0 31 12 58.5t32 47.5t47.5 32t58.5 12t58.5 -12t47.5 -32t32 -47.5t12 -58.5v-150z" />
    <glyph glyph-name="Aring" unicode="&#xc5;" 
d="M300 730q-26 0 -48.5 10t-39.5 27t-27 39.5t-10 48.5t10 48.5t27 39.5t39.5 27t48.5 10t48.5 -10t39.5 -27t27 -39.5t10 -48.5t-10 -48.5t-27 -39.5t-39.5 -27t-48.5 -10zM300 830q11 0 18 7t7 18t-7 18t-18 7t-18 -7t-7 -18t7 -18t18 -7zM455 200h-300v-150
q0 -21 -14.5 -35.5t-35.5 -14.5t-35.5 14.5t-14.5 35.5v400q0 52 19.5 97.5t53.5 79.5t79.5 53.5t97.5 19.5t97.5 -19.5t79.5 -53.5t53.5 -79.5t19.5 -97.5v-400q0 -21 -14.5 -35.5t-35.5 -14.5t-35.5 14.5t-14.5 35.5v150zM455 450q0 31 -12 58.5t-32 47.5t-47.5 32
t-58.5 12t-58.5 -12t-47.5 -32t-32 -47.5t-12 -58.5v-150h300v150z" />
    <glyph glyph-name="AE" unicode="&#xc6;" horiz-adv-x="857" 
d="M752 100q21 0 35.5 -14.5t14.5 -35.5t-14.5 -35.5t-35.5 -14.5h-305q-21 0 -35.5 14.5t-14.5 35.5v150h-242v-150q0 -21 -14.5 -35.5t-35.5 -14.5t-35.5 14.5t-14.5 35.5v400q0 52 19.5 97.5t53.5 79.5t79.5 53.5t97.5 19.5h447q21 0 35.5 -14.5t14.5 -35.5t-14.5 -35.5
t-35.5 -14.5h-255v-300h189q20 0 35 -14.5t15 -35.5t-14.5 -34.5t-35.5 -15.5h-189v-100h255zM397 300v300h-92q-31 0 -58.5 -12t-47.5 -32t-32 -47.5t-12 -58.5v-150h242z" />
    <glyph glyph-name="Ccedilla" unicode="&#xc7;" horiz-adv-x="552" 
d="M355 -42q27 -14 43.5 -40t16.5 -58q0 -23 -8.5 -43t-23.5 -35t-35 -23.5t-43 -8.5q-45 0 -77 32q-15 15 -15 36t15 35q14 15 35 15t35 -15q3 -3 7 -3q10 0 10 10t-10 10q-21 0 -35.5 14.5t-14.5 35.5v85q-43 9 -79.5 31t-63.5 54.5t-42 73.5t-15 86v200q0 52 19.5 97.5
t53.5 79.5t79.5 53.5t97.5 19.5t97 -19.5t80 -53.5q14 -15 14 -35.5t-14 -35.5q-15 -14 -36 -14t-35 14q-20 20 -47.5 32t-58.5 12t-58.5 -12t-47.5 -32t-32 -47.5t-12 -58.5v-200q0 -31 12 -58.5t32 -47.5t47.5 -32t58.5 -12t58.5 12t47.5 32q15 15 35.5 15t35.5 -15
q14 -14 14 -35t-14 -35q-52 -54 -127 -69v-47z" />
    <glyph glyph-name="Egrave" unicode="&#xc8;" 
d="M412 855q19 -8 26 -27.5t-2 -38.5q-8 -19 -27.5 -26t-38.5 2l-172 80q-19 9 -26 28t2 38q8 19 27.5 26t38.5 -1zM505 0q21 0 35.5 14.5t14.5 35.5t-14.5 35.5t-35.5 14.5h-350v100h284q21 2 35.5 15.5t14.5 34.5t-15 35.5t-35 14.5h-284v300h350q21 0 35.5 14.5
t14.5 35.5t-14.5 35.5t-35.5 14.5h-400q-21 0 -35.5 -14.5t-14.5 -35.5v-600q0 -21 14.5 -35.5t35.5 -14.5h400z" />
    <glyph glyph-name="Eacute" unicode="&#xc9;" 
d="M240 765q-19 -9 -38.5 -2t-27.5 26q-9 19 -2 38.5t26 27.5l172 81q19 8 38.5 1t27.5 -26q9 -19 2 -38t-26 -28zM105 0q-21 0 -35.5 14.5t-14.5 35.5v600q0 21 14.5 35.5t35.5 14.5h400q21 0 35.5 -14.5t14.5 -35.5t-14.5 -35.5t-35.5 -14.5h-350v-300h284q20 0 35 -14.5
t15 -35.5t-14.5 -34.5t-35.5 -15.5h-284v-100h350q21 0 35.5 -14.5t14.5 -35.5t-14.5 -35.5t-35.5 -14.5h-400z" />
    <glyph glyph-name="Ecircumflex" unicode="&#xca;" 
d="M305 835l-151 -70q-19 -9 -38.5 -2t-27.5 26q-9 19 -2 38.5t26 27.5l193 91l193 -91q19 -8 26 -27.5t-2 -38.5q-8 -19 -27.5 -26t-38.5 2zM105 0q-21 0 -35.5 14.5t-14.5 35.5v600q0 21 14.5 35.5t35.5 14.5h400q21 0 35.5 -14.5t14.5 -35.5t-14.5 -35.5t-35.5 -14.5
h-350v-300h284q20 0 35 -14.5t15 -35.5t-14.5 -34.5t-35.5 -15.5h-284v-100h350q21 0 35.5 -14.5t14.5 -35.5t-14.5 -35.5t-35.5 -14.5h-400z" />
    <glyph glyph-name="Edieresis" unicode="&#xcb;" 
d="M265 815q0 -23 -16 -39t-39 -16t-39 16t-16 39t16 39t39 16t39 -16t16 -39zM455 815q0 -23 -16 -39t-39 -16t-39 16t-16 39t16 39t39 16t39 -16t16 -39zM505 0q21 0 35.5 14.5t14.5 35.5t-14.5 35.5t-35.5 14.5h-350v100h284q21 2 35.5 15.5t14.5 34.5t-15 35.5t-35 14.5
h-284v300h350q21 0 35.5 14.5t14.5 35.5t-14.5 35.5t-35.5 14.5h-400q-21 0 -35.5 -14.5t-14.5 -35.5v-600q0 -21 14.5 -35.5t35.5 -14.5h400z" />
    <glyph glyph-name="Igrave" unicode="&#xcc;" horiz-adv-x="210" 
d="M55 50q0 -21 14.5 -35.5t35.5 -14.5t35.5 14.5t14.5 35.5v600q0 21 -14.5 35.5t-35.5 14.5t-35.5 -14.5t-14.5 -35.5v-600zM212 855q19 -8 26 -27.5t-2 -38.5q-8 -19 -27.5 -26t-38.5 2l-172 80q-19 9 -26 28t2 38q8 19 27.5 26t38.5 -1z" />
    <glyph glyph-name="Iacute" unicode="&#xcd;" horiz-adv-x="210" 
d="M155 50q0 -21 -14.5 -35.5t-35.5 -14.5t-35.5 14.5t-14.5 35.5v600q0 21 14.5 35.5t35.5 14.5t35.5 -14.5t14.5 -35.5v-600zM40 765q-19 -9 -38.5 -2t-27.5 26q-9 19 -2 38.5t26 27.5l172 81q19 8 38.5 1t27.5 -26q9 -19 2 -38t-26 -28z" />
    <glyph glyph-name="Icircumflex" unicode="&#xce;" horiz-adv-x="210" 
d="M155 50q0 -21 -14.5 -35.5t-35.5 -14.5t-35.5 14.5t-14.5 35.5v600q0 21 14.5 35.5t35.5 14.5t35.5 -14.5t14.5 -35.5v-600zM105 835l-151 -70q-19 -9 -38.5 -2t-27.5 26q-9 19 -2 38.5t26 27.5l193 91l193 -91q19 -8 26 -27.5t-2 -38.5q-8 -19 -27.5 -26t-38.5 2z" />
    <glyph glyph-name="Idieresis" unicode="&#xcf;" horiz-adv-x="210" 
d="M155 50q0 -21 -14.5 -35.5t-35.5 -14.5t-35.5 14.5t-14.5 35.5v600q0 21 14.5 35.5t35.5 14.5t35.5 -14.5t14.5 -35.5v-600zM65 815q0 -23 -16 -39t-39 -16t-39 16t-16 39t16 39t39 16t39 -16t16 -39zM255 815q0 -23 -16 -39t-39 -16t-39 16t-16 39t16 39t39 16t39 -16
t16 -39z" />
    <glyph glyph-name="Eth" unicode="&#xd0;" horiz-adv-x="672" 
d="M167 0q-21 0 -35.5 14.5t-14.5 35.5v250h-12q-21 0 -35.5 14.5t-14.5 35.5t14.5 35.5t35.5 14.5h12v250q0 21 14.5 35.5t35.5 14.5h200q52 0 97.5 -19.5t79.5 -53.5t53.5 -79.5t19.5 -97.5v-200q0 -52 -19.5 -97.5t-53.5 -79.5t-79.5 -53.5t-97.5 -19.5h-200zM517 450
q0 31 -12 58.5t-32 47.5t-47.5 32t-58.5 12h-150v-200h131q21 0 35.5 -14.5t14.5 -35.5t-14.5 -35.5t-35.5 -14.5h-131v-200h150q31 0 58.5 12t47.5 32t32 47.5t12 58.5v200z" />
    <glyph glyph-name="Ntilde" unicode="&#xd1;" 
d="M155 485v-435q0 -21 -14.5 -35.5t-35.5 -14.5t-35.5 14.5t-14.5 35.5v600q0 21 14.5 35.5t35.5 14.5q13 0 24 -6t18 -16l308 -463v435q0 21 14.5 35.5t35.5 14.5t35.5 -14.5t14.5 -35.5v-600q0 -21 -14.5 -35.5t-35.5 -14.5q-13 0 -24 6t-18 16zM370 985q23 0 43.5 -9
t35.5 -24.5t24 -36t9 -43.5v-50q0 -20 -14.5 -35t-35.5 -15q-20 0 -35 15t-15 35v50q0 13 -12 13q-13 0 -13 -13q0 -23 -9 -43.5t-24 -35.5t-35.5 -24t-43.5 -9t-43.5 9t-36 24t-24.5 35.5t-9 43.5v50q0 21 15 35.5t35 14.5q21 0 35.5 -14.5t14.5 -35.5v-50q0 -5 4 -8.5
t9 -3.5t8.5 3.5t3.5 8.5q0 23 9 43.5t24.5 36t36 24.5t43.5 9z" />
    <glyph glyph-name="Ograve" unicode="&#xd2;" 
d="M555 450q0 52 -19.5 97.5t-53.5 79.5t-79.5 53.5t-97.5 19.5t-97.5 -19.5t-79.5 -53.5t-53.5 -79.5t-19.5 -97.5v-200q0 -52 19.5 -97.5t53.5 -79.5t79.5 -53.5t97.5 -19.5t97.5 19.5t79.5 53.5t53.5 79.5t19.5 97.5v200zM455 250q0 -31 -12 -58.5t-32 -47.5t-47.5 -32
t-58.5 -12t-58.5 12t-47.5 32t-32 47.5t-12 58.5v200q0 31 12 58.5t32 47.5t47.5 32t58.5 12t58.5 -12t47.5 -32t32 -47.5t12 -58.5v-200zM412 855q19 -8 26 -27.5t-2 -38.5q-8 -19 -27.5 -26t-38.5 2l-172 80q-19 9 -26 28t2 38q8 19 27.5 26t38.5 -1z" />
    <glyph glyph-name="Oacute" unicode="&#xd3;" 
d="M555 250q0 -52 -19.5 -97.5t-53.5 -79.5t-79.5 -53.5t-97.5 -19.5t-97.5 19.5t-79.5 53.5t-53.5 79.5t-19.5 97.5v200q0 52 19.5 97.5t53.5 79.5t79.5 53.5t97.5 19.5t97.5 -19.5t79.5 -53.5t53.5 -79.5t19.5 -97.5v-200zM455 450q0 31 -12 58.5t-32 47.5t-47.5 32
t-58.5 12t-58.5 -12t-47.5 -32t-32 -47.5t-12 -58.5v-200q0 -31 12 -58.5t32 -47.5t47.5 -32t58.5 -12t58.5 12t47.5 32t32 47.5t12 58.5v200zM240 765q-19 -9 -38.5 -2t-27.5 26q-9 19 -2 38.5t26 27.5l172 81q19 8 38.5 1t27.5 -26q9 -19 2 -38t-26 -28z" />
    <glyph glyph-name="Ocircumflex" unicode="&#xd4;" 
d="M305 835l-151 -70q-19 -9 -38.5 -2t-27.5 26q-9 19 -2 38.5t26 27.5l193 91l193 -91q19 -8 26 -27.5t-2 -38.5q-8 -19 -27.5 -26t-38.5 2zM555 250q0 -52 -19.5 -97.5t-53.5 -79.5t-79.5 -53.5t-97.5 -19.5t-97.5 19.5t-79.5 53.5t-53.5 79.5t-19.5 97.5v200
q0 52 19.5 97.5t53.5 79.5t79.5 53.5t97.5 19.5t97.5 -19.5t79.5 -53.5t53.5 -79.5t19.5 -97.5v-200zM455 450q0 31 -12 58.5t-32 47.5t-47.5 32t-58.5 12t-58.5 -12t-47.5 -32t-32 -47.5t-12 -58.5v-200q0 -31 12 -58.5t32 -47.5t47.5 -32t58.5 -12t58.5 12t47.5 32
t32 47.5t12 58.5v200z" />
    <glyph glyph-name="Otilde" unicode="&#xd5;" 
d="M555 250q0 -52 -19.5 -97.5t-53.5 -79.5t-79.5 -53.5t-97.5 -19.5t-97.5 19.5t-79.5 53.5t-53.5 79.5t-19.5 97.5v200q0 52 19.5 97.5t53.5 79.5t79.5 53.5t97.5 19.5t97.5 -19.5t79.5 -53.5t53.5 -79.5t19.5 -97.5v-200zM455 450q0 31 -12 58.5t-32 47.5t-47.5 32
t-58.5 12t-58.5 -12t-47.5 -32t-32 -47.5t-12 -58.5v-200q0 -31 12 -58.5t32 -47.5t47.5 -32t58.5 -12t58.5 12t47.5 32t32 47.5t12 58.5v200zM370 985q23 0 43.5 -9t35.5 -24.5t24 -36t9 -43.5v-50q0 -20 -14.5 -35t-35.5 -15q-20 0 -35 15t-15 35v50q0 13 -12 13
q-13 0 -13 -13q0 -23 -9 -43.5t-24 -35.5t-35.5 -24t-43.5 -9t-43.5 9t-36 24t-24.5 35.5t-9 43.5v50q0 21 15 35.5t35 14.5q21 0 35.5 -14.5t14.5 -35.5v-50q0 -5 4 -8.5t9 -3.5t8.5 3.5t3.5 8.5q0 23 9 43.5t24.5 36t36 24.5t43.5 9z" />
    <glyph glyph-name="Odieresis" unicode="&#xd6;" 
d="M555 450q0 52 -19.5 97.5t-53.5 79.5t-79.5 53.5t-97.5 19.5t-97.5 -19.5t-79.5 -53.5t-53.5 -79.5t-19.5 -97.5v-200q0 -52 19.5 -97.5t53.5 -79.5t79.5 -53.5t97.5 -19.5t97.5 19.5t79.5 53.5t53.5 79.5t19.5 97.5v200zM455 250q0 -31 -12 -58.5t-32 -47.5t-47.5 -32
t-58.5 -12t-58.5 12t-47.5 32t-32 47.5t-12 58.5v200q0 31 12 58.5t32 47.5t47.5 32t58.5 12t58.5 -12t47.5 -32t32 -47.5t12 -58.5v-200zM265 815q0 -23 -16 -39t-39 -16t-39 16t-16 39t16 39t39 16t39 -16t16 -39zM455 815q0 -23 -16 -39t-39 -16t-39 16t-16 39t16 39
t39 16t39 -16t16 -39z" />
    <glyph glyph-name="multiply" unicode="&#xd7;" 
d="M305 179l-165 -164q-14 -15 -35 -15t-35 15q-15 14 -15 35t15 35l164 165l-164 165q-15 14 -15 35t15 35q14 15 35 15t35 -15l165 -164l165 164q14 15 35 15t35 -15q15 -14 15 -35t-15 -35l-164 -165l164 -165q15 -14 15 -35t-15 -35q-14 -15 -35 -15t-35 15z" />
    <glyph glyph-name="Oslash" unicode="&#xd8;" horiz-adv-x="611" 
d="M148 22q-12 -17 -32.5 -21t-37.5 7q-17 12 -21 32.5t7 37.5l28 42q-36 59 -36 130v200q0 52 19.5 97.5t53.5 79.5t79.5 53.5t97.5 19.5q40 0 76 -12t67 -33l15 23q12 17 32.5 21t37.5 -8q17 -11 21 -31.5t-8 -37.5l-28 -42q37 -59 37 -130v-200q0 -52 -19.5 -97.5
t-53.5 -79.5t-79.5 -53.5t-97.5 -19.5q-40 0 -76 12t-67 33zM393 572q-37 28 -87 28q-31 0 -58.5 -12t-47.5 -32t-32 -47.5t-12 -58.5v-200q0 -15 3 -30zM456 450q0 16 -3 30l-235 -352q39 -28 88 -28q31 0 58.5 12t47.5 32t32 47.5t12 58.5v200z" />
    <glyph glyph-name="Ugrave" unicode="&#xd9;" 
d="M412 855q19 -8 26 -27.5t-2 -38.5q-8 -19 -27.5 -26t-38.5 2l-172 80q-19 9 -26 28t2 38q8 19 27.5 26t38.5 -1zM455 250q0 -31 -12 -58.5t-32 -47.5t-47.5 -32t-58.5 -12t-58.5 12t-47.5 32t-32 47.5t-12 58.5v400q0 21 -14.5 35.5t-35.5 14.5t-35.5 -14.5t-14.5 -35.5
v-400q0 -52 19.5 -97.5t53.5 -79.5t79.5 -53.5t97.5 -19.5t97.5 19.5t79.5 53.5t53.5 79.5t19.5 97.5v400q0 21 -14.5 35.5t-35.5 14.5t-35.5 -14.5t-14.5 -35.5v-400z" />
    <glyph glyph-name="Uacute" unicode="&#xda;" 
d="M240 765q-19 -9 -38.5 -2t-27.5 26q-9 19 -2 38.5t26 27.5l172 81q19 8 38.5 1t27.5 -26q9 -19 2 -38t-26 -28zM455 650q0 21 14.5 35.5t35.5 14.5t35.5 -14.5t14.5 -35.5v-400q0 -52 -19.5 -97.5t-53.5 -79.5t-79.5 -53.5t-97.5 -19.5t-97.5 19.5t-79.5 53.5t-53.5 79.5
t-19.5 97.5v400q0 21 14.5 35.5t35.5 14.5t35.5 -14.5t14.5 -35.5v-400q0 -31 12 -58.5t32 -47.5t47.5 -32t58.5 -12t58.5 12t47.5 32t32 47.5t12 58.5v400z" />
    <glyph glyph-name="Ucircumflex" unicode="&#xdb;" 
d="M305 835l-151 -70q-19 -9 -38.5 -2t-27.5 26q-9 19 -2 38.5t26 27.5l193 91l193 -91q19 -8 26 -27.5t-2 -38.5q-8 -19 -27.5 -26t-38.5 2zM455 650q0 21 14.5 35.5t35.5 14.5t35.5 -14.5t14.5 -35.5v-400q0 -52 -19.5 -97.5t-53.5 -79.5t-79.5 -53.5t-97.5 -19.5
t-97.5 19.5t-79.5 53.5t-53.5 79.5t-19.5 97.5v400q0 21 14.5 35.5t35.5 14.5t35.5 -14.5t14.5 -35.5v-400q0 -31 12 -58.5t32 -47.5t47.5 -32t58.5 -12t58.5 12t47.5 32t32 47.5t12 58.5v400z" />
    <glyph glyph-name="Udieresis" unicode="&#xdc;" 
d="M455 250q0 -31 -12 -58.5t-32 -47.5t-47.5 -32t-58.5 -12t-58.5 12t-47.5 32t-32 47.5t-12 58.5v400q0 21 -14.5 35.5t-35.5 14.5t-35.5 -14.5t-14.5 -35.5v-400q0 -52 19.5 -97.5t53.5 -79.5t79.5 -53.5t97.5 -19.5t97.5 19.5t79.5 53.5t53.5 79.5t19.5 97.5v400
q0 21 -14.5 35.5t-35.5 14.5t-35.5 -14.5t-14.5 -35.5v-400zM265 815q0 -23 -16 -39t-39 -16t-39 16t-16 39t16 39t39 16t39 -16t16 -39zM455 815q0 -23 -16 -39t-39 -16t-39 16t-16 39t16 39t39 16t39 -16t16 -39z" />
    <glyph glyph-name="Yacute" unicode="&#xdd;" 
d="M255 255q-43 9 -79.5 31t-63.5 54.5t-42 73.5t-15 86v150q0 21 14.5 35.5t35.5 14.5t35.5 -14.5t14.5 -35.5v-150q0 -31 12 -58.5t32 -47.5t47.5 -32t58.5 -12t58.5 12t47.5 32t32 47.5t12 58.5v150q0 21 14.5 35.5t35.5 14.5t35.5 -14.5t14.5 -35.5v-150q0 -45 -15 -86
t-42 -73.5t-63.5 -54.5t-79.5 -31v-205q0 -21 -14.5 -35.5t-35.5 -14.5t-35.5 14.5t-14.5 35.5v205zM240 765q-19 -9 -38.5 -2t-27.5 26q-9 19 -2 38.5t26 27.5l172 81q19 8 38.5 1t27.5 -26q9 -19 2 -38t-26 -28z" />
    <glyph glyph-name="Thorn" unicode="&#xde;" horiz-adv-x="556" 
d="M55 700q0 21 14.5 35.5t35.5 14.5t35.5 -14.5t14.5 -35.5v-94q46 19 96 19q52 0 97.5 -19.5t79.5 -53.5t53.5 -79.5t19.5 -97.5t-19.5 -97.5t-53.5 -79.5t-79.5 -53.5t-97.5 -19.5q-50 0 -96 19v-94q0 -20 -14.5 -35t-35.5 -15q-20 0 -35 15t-15 35v650zM251 525
q-28 0 -52 -9.5t-44 -25.5v-230q41 -35 96 -35q31 0 58.5 12t47.5 32t32 47.5t12 58.5t-12 58.5t-32 47.5t-47.5 32t-58.5 12z" />
    <glyph glyph-name="germandbls" unicode="&#xdf;" 
d="M227 0q-21 0 -35.5 14.5t-14.5 35.5t14.5 35.5t35.5 14.5h128q42 0 71 29t29 71t-29 71t-71 29h-70q-21 0 -35.5 14.5t-14.5 35.5t14.5 35.5t35.5 14.5h20q42 0 71 29t29 71t-29 71t-71 29h-50q-42 0 -71 -29t-29 -71v-550q0 -21 -14.5 -35.5t-35.5 -14.5t-35.5 14.5
t-14.5 35.5v550q0 41 16 77.5t43 63.5t63.5 43t77.5 16h50q41 0 77.5 -16t63.5 -43t43 -63.5t16 -77.5q0 -37 -12.5 -70t-34.5 -59q44 -26 70.5 -71t26.5 -100q0 -42 -16 -78.5t-43 -63.5t-63.5 -42.5t-77.5 -15.5h-128z" />
    <glyph glyph-name="agrave" unicode="&#xe0;" 
d="M455 50q0 -21 14.5 -35.5t35.5 -14.5t35.5 14.5t14.5 35.5v201q0 52 -19.5 97.5t-53.5 79.5t-79.5 53.5t-97.5 19.5t-97.5 -19.5t-79.5 -53.5t-53.5 -79.5t-19.5 -97.5t19.5 -97.5t53.5 -79.5t79.5 -53.5t97.5 -19.5q42 0 80 13t70 37v-1zM305 101q-31 0 -58.5 12
t-47.5 32t-32 47.5t-12 58.5t12 58.5t32 47.5t47.5 32t58.5 12t58.5 -12t47.5 -32t32 -47.5t12 -58.5t-12 -58.5t-32 -47.5t-47.5 -32t-58.5 -12zM412 655q19 -8 26 -27.5t-2 -38.5q-8 -19 -27.5 -26t-38.5 2l-172 80q-19 9 -26 28t2 38q8 19 27.5 26t38.5 -1z" />
    <glyph glyph-name="aacute" unicode="&#xe1;" 
d="M455 51q-32 -24 -70 -37t-80 -13q-52 0 -97.5 19.5t-79.5 53.5t-53.5 79.5t-19.5 97.5t19.5 97.5t53.5 79.5t79.5 53.5t97.5 19.5t97.5 -19.5t79.5 -53.5t53.5 -79.5t19.5 -97.5v-201q0 -21 -14.5 -35.5t-35.5 -14.5t-35.5 14.5t-14.5 35.5v1zM305 101q31 0 58.5 12
t47.5 32t32 47.5t12 58.5t-12 58.5t-32 47.5t-47.5 32t-58.5 12t-58.5 -12t-47.5 -32t-32 -47.5t-12 -58.5t12 -58.5t32 -47.5t47.5 -32t58.5 -12zM240 565q-19 -9 -38.5 -2t-27.5 26q-9 19 -2 38.5t26 27.5l172 81q19 8 38.5 1t27.5 -26q9 -19 2 -38t-26 -28z" />
    <glyph glyph-name="acircumflex" unicode="&#xe2;" 
d="M305 635l-151 -70q-19 -9 -38.5 -2t-27.5 26q-9 19 -2 38.5t26 27.5l193 91l193 -91q19 -8 26 -27.5t-2 -38.5q-8 -19 -27.5 -26t-38.5 2zM455 51q-32 -24 -70 -37t-80 -13q-52 0 -97.5 19.5t-79.5 53.5t-53.5 79.5t-19.5 97.5t19.5 97.5t53.5 79.5t79.5 53.5t97.5 19.5
t97.5 -19.5t79.5 -53.5t53.5 -79.5t19.5 -97.5v-201q0 -21 -14.5 -35.5t-35.5 -14.5t-35.5 14.5t-14.5 35.5v1zM305 101q31 0 58.5 12t47.5 32t32 47.5t12 58.5t-12 58.5t-32 47.5t-47.5 32t-58.5 12t-58.5 -12t-47.5 -32t-32 -47.5t-12 -58.5t12 -58.5t32 -47.5t47.5 -32
t58.5 -12z" />
    <glyph glyph-name="atilde" unicode="&#xe3;" 
d="M455 51q-32 -24 -70 -37t-80 -13q-52 0 -97.5 19.5t-79.5 53.5t-53.5 79.5t-19.5 97.5t19.5 97.5t53.5 79.5t79.5 53.5t97.5 19.5t97.5 -19.5t79.5 -53.5t53.5 -79.5t19.5 -97.5v-201q0 -21 -14.5 -35.5t-35.5 -14.5t-35.5 14.5t-14.5 35.5v1zM305 101q31 0 58.5 12
t47.5 32t32 47.5t12 58.5t-12 58.5t-32 47.5t-47.5 32t-58.5 12t-58.5 -12t-47.5 -32t-32 -47.5t-12 -58.5t12 -58.5t32 -47.5t47.5 -32t58.5 -12zM370 785q23 0 43.5 -9t35.5 -24.5t24 -36t9 -43.5v-50q0 -20 -14.5 -35t-35.5 -15q-20 0 -35 15t-15 35v50q0 13 -12 13
q-13 0 -13 -13q0 -23 -9 -43.5t-24 -35.5t-35.5 -24t-43.5 -9t-43.5 9t-36 24t-24.5 35.5t-9 43.5v50q0 21 15 35.5t35 14.5q21 0 35.5 -14.5t14.5 -35.5v-50q0 -5 4 -8.5t9 -3.5t8.5 3.5t3.5 8.5q0 23 9 43.5t24.5 36t36 24.5t43.5 9z" />
    <glyph glyph-name="adieresis" unicode="&#xe4;" 
d="M265 615q0 -23 -16 -39t-39 -16t-39 16t-16 39t16 39t39 16t39 -16t16 -39zM455 615q0 -23 -16 -39t-39 -16t-39 16t-16 39t16 39t39 16t39 -16t16 -39zM455 50q0 -21 14.5 -35.5t35.5 -14.5t35.5 14.5t14.5 35.5v201q0 52 -19.5 97.5t-53.5 79.5t-79.5 53.5t-97.5 19.5
t-97.5 -19.5t-79.5 -53.5t-53.5 -79.5t-19.5 -97.5t19.5 -97.5t53.5 -79.5t79.5 -53.5t97.5 -19.5q42 0 80 13t70 37v-1zM305 101q-31 0 -58.5 12t-47.5 32t-32 47.5t-12 58.5t12 58.5t32 47.5t47.5 32t58.5 12t58.5 -12t47.5 -32t32 -47.5t12 -58.5t-12 -58.5t-32 -47.5
t-47.5 -32t-58.5 -12z" />
    <glyph glyph-name="aring" unicode="&#xe5;" 
d="M455 51q-32 -24 -70 -37t-80 -13q-52 0 -97.5 19.5t-79.5 53.5t-53.5 79.5t-19.5 97.5t19.5 97.5t53.5 79.5t79.5 53.5t97.5 19.5t97.5 -19.5t79.5 -53.5t53.5 -79.5t19.5 -97.5v-201q0 -21 -14.5 -35.5t-35.5 -14.5t-35.5 14.5t-14.5 35.5v1zM305 101q31 0 58.5 12
t47.5 32t32 47.5t12 58.5t-12 58.5t-32 47.5t-47.5 32t-58.5 12t-58.5 -12t-47.5 -32t-32 -47.5t-12 -58.5t12 -58.5t32 -47.5t47.5 -32t58.5 -12zM305 560q-26 0 -48.5 10t-39.5 27t-27 39.5t-10 48.5t10 48.5t27 39.5t39.5 27t48.5 10t48.5 -10t39.5 -27t27 -39.5
t10 -48.5t-10 -48.5t-27 -39.5t-39.5 -27t-48.5 -10zM305 660q11 0 18 7t7 18t-7 18t-18 7t-18 -7t-7 -18t7 -18t18 -7z" />
    <glyph glyph-name="ae" unicode="&#xe6;" horiz-adv-x="970" 
d="M555 200v-52q20 -22 49 -35t61 -13q31 0 58.5 12t47.5 32q14 14 35 14t36 -14q14 -15 14 -35.5t-14 -35.5q-35 -34 -80 -53.5t-97 -19.5q-62 0 -115 28q-13 -28 -45 -28q-21 0 -35.5 14.5t-14.5 35.5v1q-32 -24 -70 -37t-80 -13q-52 0 -97.5 19.5t-79.5 53.5t-53.5 79.5
t-19.5 97.5t19.5 97.5t53.5 79.5t79.5 53.5t97.5 19.5q54 0 100 -21t80 -56q35 35 81 55.5t99 20.5q52 0 97.5 -19.5t79.5 -53.5t53.5 -79.5t19.5 -97.5q0 -21 -14.5 -35.5t-35.5 -14.5h-310zM305 101q31 0 58.5 12t47.5 32t32 47.5t12 58.5t-12 58.5t-32 47.5t-47.5 32
t-58.5 12t-58.5 -12t-47.5 -32t-32 -47.5t-12 -58.5t12 -58.5t32 -47.5t47.5 -32t58.5 -12zM806 300q-15 44 -53.5 72t-87.5 28q-38 0 -71 -18t-53 -48q6 -17 9 -34h256z" />
    <glyph glyph-name="ccedilla" unicode="&#xe7;" horiz-adv-x="552" 
d="M355 -42q27 -14 43.5 -40t16.5 -58q0 -23 -8.5 -43t-23.5 -35t-35 -23.5t-43 -8.5q-45 0 -77 32q-15 15 -15 36t15 35q14 15 35 15t35 -15q3 -3 7 -3q10 0 10 10t-10 10q-21 0 -35.5 14.5t-14.5 35.5v85q-43 9 -79.5 31t-63.5 54.5t-42 73.5t-15 86q0 52 19.5 97.5
t53.5 79.5t79.5 53.5t97.5 19.5t97 -19.5t80 -53.5q14 -15 14 -35.5t-14 -35.5q-15 -14 -36 -14t-35 14q-20 20 -47.5 32t-58.5 12t-58.5 -12t-47.5 -32t-32 -47.5t-12 -58.5t12 -58.5t32 -47.5t47.5 -32t58.5 -12t58.5 12t47.5 32q15 14 35.5 14t35.5 -14q14 -15 14 -35.5
t-14 -35.5q-26 -26 -58 -43t-69 -25v-47z" />
    <glyph glyph-name="egrave" unicode="&#xe8;" 
d="M412 655q19 -8 26 -27.5t-2 -38.5q-8 -19 -27.5 -26t-38.5 2l-172 80q-19 9 -26 28t2 38q8 19 27.5 26t38.5 -1zM505 200q21 0 35.5 15t14.5 35q0 52 -19.5 97.5t-53.5 79.5t-79.5 53.5t-97.5 19.5t-97.5 -19.5t-79.5 -53.5t-53.5 -79.5t-19.5 -97.5t19.5 -97.5
t53.5 -79.5t79.5 -53.5t97.5 -19.5t97 19.5t80 53.5q14 15 14 35.5t-14 35.5q-15 14 -36 14t-35 -14q-20 -20 -47.5 -32t-58.5 -12q-49 0 -87.5 28t-53.5 72h341zM163 300q16 44 54.5 72t87.5 28t87.5 -28t53.5 -72h-283z" />
    <glyph glyph-name="eacute" unicode="&#xe9;" 
d="M240 565q-19 -9 -38.5 -2t-27.5 26q-9 19 -2 38.5t26 27.5l172 81q19 8 38.5 1t27.5 -26q9 -19 2 -38t-26 -28zM164 200q15 -44 53.5 -72t87.5 -28q31 0 58.5 12t47.5 32q14 14 35 14t36 -14q14 -15 14 -35.5t-14 -35.5q-35 -34 -80 -53.5t-97 -19.5t-97.5 19.5
t-79.5 53.5t-53.5 79.5t-19.5 97.5t19.5 97.5t53.5 79.5t79.5 53.5t97.5 19.5t97.5 -19.5t79.5 -53.5t53.5 -79.5t19.5 -97.5q0 -20 -14.5 -35t-35.5 -15h-341zM446 300q-15 44 -53.5 72t-87.5 28t-87.5 -28t-54.5 -72h283z" />
    <glyph glyph-name="ecircumflex" unicode="&#xea;" 
d="M305 635l-151 -70q-19 -9 -38.5 -2t-27.5 26q-9 19 -2 38.5t26 27.5l193 91l193 -91q19 -8 26 -27.5t-2 -38.5q-8 -19 -27.5 -26t-38.5 2zM164 200q15 -44 53.5 -72t87.5 -28q31 0 58.5 12t47.5 32q14 14 35 14t36 -14q14 -15 14 -35.5t-14 -35.5q-35 -34 -80 -53.5
t-97 -19.5t-97.5 19.5t-79.5 53.5t-53.5 79.5t-19.5 97.5t19.5 97.5t53.5 79.5t79.5 53.5t97.5 19.5t97.5 -19.5t79.5 -53.5t53.5 -79.5t19.5 -97.5q0 -20 -14.5 -35t-35.5 -15h-341zM446 300q-15 44 -53.5 72t-87.5 28t-87.5 -28t-54.5 -72h283z" />
    <glyph glyph-name="edieresis" unicode="&#xeb;" 
d="M265 615q0 -23 -16 -39t-39 -16t-39 16t-16 39t16 39t39 16t39 -16t16 -39zM455 615q0 -23 -16 -39t-39 -16t-39 16t-16 39t16 39t39 16t39 -16t16 -39zM505 200q21 0 35.5 15t14.5 35q0 52 -19.5 97.5t-53.5 79.5t-79.5 53.5t-97.5 19.5t-97.5 -19.5t-79.5 -53.5
t-53.5 -79.5t-19.5 -97.5t19.5 -97.5t53.5 -79.5t79.5 -53.5t97.5 -19.5t97 19.5t80 53.5q14 15 14 35.5t-14 35.5q-15 14 -36 14t-35 -14q-20 -20 -47.5 -32t-58.5 -12q-49 0 -87.5 28t-53.5 72h341zM163 300q16 44 54.5 72t87.5 28t87.5 -28t53.5 -72h-283z" />
    <glyph glyph-name="igrave" unicode="&#xec;" horiz-adv-x="210" 
d="M155 50q0 -21 -14.5 -35.5t-35.5 -14.5t-35.5 14.5t-14.5 35.5v400q0 21 14.5 35.5t35.5 14.5t35.5 -14.5t14.5 -35.5v-400zM212 655q19 -8 26 -27.5t-2 -38.5q-8 -19 -27.5 -26t-38.5 2l-172 80q-19 9 -26 28t2 38q8 19 27.5 26t38.5 -1z" />
    <glyph glyph-name="iacute" unicode="&#xed;" horiz-adv-x="210" 
d="M55 450q0 21 14.5 35.5t35.5 14.5t35.5 -14.5t14.5 -35.5v-400q0 -21 -14.5 -35.5t-35.5 -14.5t-35.5 14.5t-14.5 35.5v400zM40 565q-19 -9 -38.5 -2t-27.5 26q-9 19 -2 38.5t26 27.5l172 81q19 8 38.5 1t27.5 -26q9 -19 2 -38t-26 -28z" />
    <glyph glyph-name="icircumflex" unicode="&#xee;" horiz-adv-x="210" 
d="M55 450q0 21 14.5 35.5t35.5 14.5t35.5 -14.5t14.5 -35.5v-400q0 -21 -14.5 -35.5t-35.5 -14.5t-35.5 14.5t-14.5 35.5v400zM105 635l-151 -70q-19 -9 -38.5 -2t-27.5 26q-9 19 -2 38.5t26 27.5l193 91l193 -91q19 -8 26 -27.5t-2 -38.5q-8 -19 -27.5 -26t-38.5 2z" />
    <glyph glyph-name="idieresis" unicode="&#xef;" horiz-adv-x="210" 
d="M55 50q0 -21 14.5 -35.5t35.5 -14.5t35.5 14.5t14.5 35.5v400q0 21 -14.5 35.5t-35.5 14.5t-35.5 -14.5t-14.5 -35.5v-400zM65 615q0 -23 -16 -39t-39 -16t-39 16t-16 39t16 39t39 16t39 -16t16 -39zM255 615q0 -23 -16 -39t-39 -16t-39 16t-16 39t16 39t39 16t39 -16
t16 -39z" />
    <glyph glyph-name="eth" unicode="&#xf0;" horiz-adv-x="611" 
d="M187 560l-46 -45q-14 -15 -35 -15t-35 15q-15 14 -15 35t15 35l41 42l-39 36q-16 14 -17 34.5t13 35.5q14 16 34.5 17t35.5 -13l44 -39l38 37q14 15 35 15t35 -15q15 -14 15 -35t-15 -35l-34 -34q80 -72 124.5 -112.5t66 -60t27.5 -24.5t8 -8q34 -34 53.5 -79t19.5 -97
t-19.5 -97.5t-53.5 -79.5t-79.5 -53.5t-97.5 -19.5t-97.5 19.5t-79.5 53.5t-53.5 79.5t-19.5 97.5q0 46 15.5 87t42.5 73t64 54.5t80 30.5zM306 100q31 0 58.5 12t47.5 32t32 47.5t12 58.5t-12 58.5t-32 47.5t-47.5 32t-58.5 12t-58.5 -12t-47.5 -32t-32 -47.5t-12 -58.5
t12 -58.5t32 -47.5t47.5 -32t58.5 -12z" />
    <glyph glyph-name="ntilde" unicode="&#xf1;" 
d="M55 450q0 21 14.5 35.5t35.5 14.5t35.5 -14.5t14.5 -35.5q32 23 70 36.5t80 13.5q52 0 97.5 -19.5t79.5 -53.5t53.5 -79.5t19.5 -97.5v-200q0 -21 -14.5 -35.5t-35.5 -14.5t-35.5 14.5t-14.5 35.5v200q0 31 -12 58.5t-32 47.5t-47.5 32t-58.5 12t-58.5 -12t-47.5 -32
t-32 -47.5t-12 -58.5v-200q0 -21 -14.5 -35.5t-35.5 -14.5t-35.5 14.5t-14.5 35.5v400zM370 785q23 0 43.5 -9t35.5 -24.5t24 -36t9 -43.5v-50q0 -20 -14.5 -35t-35.5 -15q-20 0 -35 15t-15 35v50q0 13 -12 13q-13 0 -13 -13q0 -23 -9 -43.5t-24 -35.5t-35.5 -24t-43.5 -9
t-43.5 9t-36 24t-24.5 35.5t-9 43.5v50q0 21 15 35.5t35 14.5q21 0 35.5 -14.5t14.5 -35.5v-50q0 -5 4 -8.5t9 -3.5t8.5 3.5t3.5 8.5q0 23 9 43.5t24.5 36t36 24.5t43.5 9z" />
    <glyph glyph-name="ograve" unicode="&#xf2;" 
d="M305 0q52 0 97.5 19.5t79.5 53.5t53.5 79.5t19.5 97.5t-19.5 97.5t-53.5 79.5t-79.5 53.5t-97.5 19.5t-97.5 -19.5t-79.5 -53.5t-53.5 -79.5t-19.5 -97.5t19.5 -97.5t53.5 -79.5t79.5 -53.5t97.5 -19.5zM305 100q-31 0 -58.5 12t-47.5 32t-32 47.5t-12 58.5t12 58.5
t32 47.5t47.5 32t58.5 12t58.5 -12t47.5 -32t32 -47.5t12 -58.5t-12 -58.5t-32 -47.5t-47.5 -32t-58.5 -12zM412 655q19 -8 26 -27.5t-2 -38.5q-8 -19 -27.5 -26t-38.5 2l-172 80q-19 9 -26 28t2 38q8 19 27.5 26t38.5 -1z" />
    <glyph glyph-name="oacute" unicode="&#xf3;" 
d="M305 0q-52 0 -97.5 19.5t-79.5 53.5t-53.5 79.5t-19.5 97.5t19.5 97.5t53.5 79.5t79.5 53.5t97.5 19.5t97.5 -19.5t79.5 -53.5t53.5 -79.5t19.5 -97.5t-19.5 -97.5t-53.5 -79.5t-79.5 -53.5t-97.5 -19.5zM305 100q31 0 58.5 12t47.5 32t32 47.5t12 58.5t-12 58.5
t-32 47.5t-47.5 32t-58.5 12t-58.5 -12t-47.5 -32t-32 -47.5t-12 -58.5t12 -58.5t32 -47.5t47.5 -32t58.5 -12zM240 565q-19 -9 -38.5 -2t-27.5 26q-9 19 -2 38.5t26 27.5l172 81q19 8 38.5 1t27.5 -26q9 -19 2 -38t-26 -28z" />
    <glyph glyph-name="ocircumflex" unicode="&#xf4;" 
d="M305 635l-151 -70q-19 -9 -38.5 -2t-27.5 26q-9 19 -2 38.5t26 27.5l193 91l193 -91q19 -8 26 -27.5t-2 -38.5q-8 -19 -27.5 -26t-38.5 2zM305 0q-52 0 -97.5 19.5t-79.5 53.5t-53.5 79.5t-19.5 97.5t19.5 97.5t53.5 79.5t79.5 53.5t97.5 19.5t97.5 -19.5t79.5 -53.5
t53.5 -79.5t19.5 -97.5t-19.5 -97.5t-53.5 -79.5t-79.5 -53.5t-97.5 -19.5zM305 100q31 0 58.5 12t47.5 32t32 47.5t12 58.5t-12 58.5t-32 47.5t-47.5 32t-58.5 12t-58.5 -12t-47.5 -32t-32 -47.5t-12 -58.5t12 -58.5t32 -47.5t47.5 -32t58.5 -12z" />
    <glyph glyph-name="otilde" unicode="&#xf5;" 
d="M305 0q-52 0 -97.5 19.5t-79.5 53.5t-53.5 79.5t-19.5 97.5t19.5 97.5t53.5 79.5t79.5 53.5t97.5 19.5t97.5 -19.5t79.5 -53.5t53.5 -79.5t19.5 -97.5t-19.5 -97.5t-53.5 -79.5t-79.5 -53.5t-97.5 -19.5zM305 100q31 0 58.5 12t47.5 32t32 47.5t12 58.5t-12 58.5
t-32 47.5t-47.5 32t-58.5 12t-58.5 -12t-47.5 -32t-32 -47.5t-12 -58.5t12 -58.5t32 -47.5t47.5 -32t58.5 -12zM370 785q23 0 43.5 -9t35.5 -24.5t24 -36t9 -43.5v-50q0 -20 -14.5 -35t-35.5 -15q-20 0 -35 15t-15 35v50q0 13 -12 13q-13 0 -13 -13q0 -23 -9 -43.5
t-24 -35.5t-35.5 -24t-43.5 -9t-43.5 9t-36 24t-24.5 35.5t-9 43.5v50q0 21 15 35.5t35 14.5q21 0 35.5 -14.5t14.5 -35.5v-50q0 -5 4 -8.5t9 -3.5t8.5 3.5t3.5 8.5q0 23 9 43.5t24.5 36t36 24.5t43.5 9z" />
    <glyph glyph-name="odieresis" unicode="&#xf6;" 
d="M305 0q52 0 97.5 19.5t79.5 53.5t53.5 79.5t19.5 97.5t-19.5 97.5t-53.5 79.5t-79.5 53.5t-97.5 19.5t-97.5 -19.5t-79.5 -53.5t-53.5 -79.5t-19.5 -97.5t19.5 -97.5t53.5 -79.5t79.5 -53.5t97.5 -19.5zM305 100q-31 0 -58.5 12t-47.5 32t-32 47.5t-12 58.5t12 58.5
t32 47.5t47.5 32t58.5 12t58.5 -12t47.5 -32t32 -47.5t12 -58.5t-12 -58.5t-32 -47.5t-47.5 -32t-58.5 -12zM265 615q0 -23 -16 -39t-39 -16t-39 16t-16 39t16 39t39 16t39 -16t16 -39zM455 615q0 -23 -16 -39t-39 -16t-39 16t-16 39t16 39t39 16t39 -16t16 -39z" />
    <glyph glyph-name="divide" unicode="&#xf7;" 
d="M505 200q21 0 35.5 14.5t14.5 35.5t-14.5 35.5t-35.5 14.5h-400q-21 0 -35.5 -14.5t-14.5 -35.5t14.5 -35.5t35.5 -14.5h400zM360 445q0 -23 -16 -39t-39 -16t-39 16t-16 39t16 39t39 16t39 -16t16 -39zM360 55q0 -23 -16 -39t-39 -16t-39 16t-16 39t16 39t39 16t39 -16
t16 -39z" />
    <glyph glyph-name="oslash" unicode="&#xf8;" 
d="M140 15q-14 -15 -35 -15t-35 15q-15 14 -15 35t15 35l26 27q-20 30 -30.5 65t-10.5 73q0 52 19.5 97.5t53.5 79.5t79.5 53.5t97.5 19.5q76 0 138 -42l27 27q14 15 35 15t35 -15q15 -14 15 -35t-15 -35l-27 -27q42 -62 42 -138q0 -52 -19.5 -97.5t-53.5 -79.5t-79.5 -53.5
t-97.5 -19.5q-38 0 -73 10.5t-65 30.5zM370 385q-30 15 -65 15q-31 0 -58.5 -12t-47.5 -32t-32 -47.5t-12 -58.5q0 -35 15 -65zM240 115q30 -15 65 -15q31 0 58.5 12t47.5 32t32 47.5t12 58.5q0 35 -15 65z" />
    <glyph glyph-name="ugrave" unicode="&#xf9;" 
d="M412 655q19 -8 26 -27.5t-2 -38.5q-8 -19 -27.5 -26t-38.5 2l-172 80q-19 9 -26 28t2 38q8 19 27.5 26t38.5 -1zM555 450q0 21 -14.5 35.5t-35.5 14.5t-35.5 -14.5t-14.5 -35.5v-200q0 -31 -12 -58.5t-32 -47.5t-47.5 -32t-58.5 -12t-58.5 12t-47.5 32t-32 47.5t-12 58.5
v200q0 21 -14.5 35.5t-35.5 14.5t-35.5 -14.5t-14.5 -35.5v-200q0 -52 19.5 -97.5t53.5 -79.5t79.5 -53.5t97.5 -19.5q42 0 80 13.5t70 36.5q0 -21 14.5 -35.5t35.5 -14.5t35.5 14.5t14.5 35.5v400z" />
    <glyph glyph-name="uacute" unicode="&#xfa;" 
d="M555 50q0 -21 -14.5 -35.5t-35.5 -14.5t-35.5 14.5t-14.5 35.5q-32 -23 -70 -36.5t-80 -13.5q-52 0 -97.5 19.5t-79.5 53.5t-53.5 79.5t-19.5 97.5v200q0 21 14.5 35.5t35.5 14.5t35.5 -14.5t14.5 -35.5v-200q0 -31 12 -58.5t32 -47.5t47.5 -32t58.5 -12t58.5 12t47.5 32
t32 47.5t12 58.5v200q0 21 14.5 35.5t35.5 14.5t35.5 -14.5t14.5 -35.5v-400zM240 565q-19 -9 -38.5 -2t-27.5 26q-9 19 -2 38.5t26 27.5l172 81q19 8 38.5 1t27.5 -26q9 -19 2 -38t-26 -28z" />
    <glyph glyph-name="ucircumflex" unicode="&#xfb;" 
d="M305 635l-151 -70q-19 -9 -38.5 -2t-27.5 26q-9 19 -2 38.5t26 27.5l193 91l193 -91q19 -8 26 -27.5t-2 -38.5q-8 -19 -27.5 -26t-38.5 2zM555 50q0 -21 -14.5 -35.5t-35.5 -14.5t-35.5 14.5t-14.5 35.5q-32 -23 -70 -36.5t-80 -13.5q-52 0 -97.5 19.5t-79.5 53.5
t-53.5 79.5t-19.5 97.5v200q0 21 14.5 35.5t35.5 14.5t35.5 -14.5t14.5 -35.5v-200q0 -31 12 -58.5t32 -47.5t47.5 -32t58.5 -12t58.5 12t47.5 32t32 47.5t12 58.5v200q0 21 14.5 35.5t35.5 14.5t35.5 -14.5t14.5 -35.5v-400z" />
    <glyph glyph-name="udieresis" unicode="&#xfc;" 
d="M555 450q0 21 -14.5 35.5t-35.5 14.5t-35.5 -14.5t-14.5 -35.5v-200q0 -31 -12 -58.5t-32 -47.5t-47.5 -32t-58.5 -12t-58.5 12t-47.5 32t-32 47.5t-12 58.5v200q0 21 -14.5 35.5t-35.5 14.5t-35.5 -14.5t-14.5 -35.5v-200q0 -52 19.5 -97.5t53.5 -79.5t79.5 -53.5
t97.5 -19.5q42 0 80 13.5t70 36.5q0 -21 14.5 -35.5t35.5 -14.5t35.5 14.5t14.5 35.5v400zM265 615q0 -23 -16 -39t-39 -16t-39 16t-16 39t16 39t39 16t39 -16t16 -39zM455 615q0 -23 -16 -39t-39 -16t-39 16t-16 39t16 39t39 16t39 -16t16 -39z" />
    <glyph glyph-name="yacute" unicode="&#xfd;" horiz-adv-x="659" 
d="M288 565q-19 -9 -38.5 -2t-27.5 26q-9 19 -2 38.5t26 27.5l172 81q19 8 38.5 1t27.5 -26q9 -19 2 -38t-26 -28zM297 49l-189 379q-9 18 -2.5 37.5t25.5 29.5q18 9 37.5 2.5t29.5 -25.5l155 -310l155 311q10 18 29.5 24.5t38.5 -2.5q18 -10 24.5 -29.5t-2.5 -38.5
l-269 -539q-32 -62 -91 -100t-133 -38q-21 0 -35.5 14.5t-14.5 35.5t14.5 35.5t35.5 14.5q20 0 40 6t37.5 16.5t31 23.5t21.5 28z" />
    <glyph glyph-name="thorn" unicode="&#xfe;" 
d="M55 50v650q0 21 14.5 35.5t35.5 14.5t35.5 -14.5t14.5 -35.5v-250q32 23 70 36.5t80 13.5q52 0 97.5 -19.5t79.5 -53.5t53.5 -79.5t19.5 -97.5t-19.5 -97.5t-53.5 -79.5t-79.5 -53.5t-97.5 -19.5q-42 0 -80 13t-70 37v-250q0 -21 -14.5 -35.5t-35.5 -14.5q-20 0 -35 14.5
t-15 35.5v250zM305 100q31 0 58.5 12t47.5 32t32 47.5t12 58.5t-12 58.5t-32 47.5t-47.5 32t-58.5 12t-58.5 -12t-47.5 -32t-32 -47.5t-12 -58.5t12 -58.5t32 -47.5t47.5 -32t58.5 -12z" />
    <glyph glyph-name="ydieresis" unicode="&#xff;" horiz-adv-x="659" 
d="M313 615q0 -23 -16 -39t-39 -16t-39 16t-16 39t16 39t39 16t39 -16t16 -39zM503 615q0 -23 -16 -39t-39 -16t-39 16t-16 39t16 39t39 16t39 -16t16 -39zM235 -76q-8 -15 -21.5 -28t-31 -23.5t-37.5 -16.5t-40 -6q-21 0 -35.5 -14.5t-14.5 -35.5t14.5 -35.5t35.5 -14.5
q74 0 133 38t91 100l269 539q9 19 2.5 38.5t-24.5 29.5q-19 9 -38.5 2.5t-29.5 -24.5l-155 -311l-155 310q-10 19 -29.5 25.5t-37.5 -2.5q-19 -10 -25.5 -29.5t2.5 -37.5l189 -379z" />
    <glyph glyph-name="Amacron" unicode="&#x100;" 
d="M105 760q-21 0 -35.5 14.5t-14.5 35.5t14.5 35.5t35.5 14.5h400q21 0 35.5 -14.5t14.5 -35.5t-14.5 -35.5t-35.5 -14.5h-400zM455 200h-300v-150q0 -21 -14.5 -35.5t-35.5 -14.5t-35.5 14.5t-14.5 35.5v400q0 52 19.5 97.5t53.5 79.5t79.5 53.5t97.5 19.5t97.5 -19.5
t79.5 -53.5t53.5 -79.5t19.5 -97.5v-400q0 -21 -14.5 -35.5t-35.5 -14.5t-35.5 14.5t-14.5 35.5v150zM455 450q0 31 -12 58.5t-32 47.5t-47.5 32t-58.5 12t-58.5 -12t-47.5 -32t-32 -47.5t-12 -58.5v-150h300v150z" />
    <glyph glyph-name="amacron" unicode="&#x101;" 
d="M105 560q-21 0 -35.5 14.5t-14.5 35.5t14.5 35.5t35.5 14.5h400q21 0 35.5 -14.5t14.5 -35.5t-14.5 -35.5t-35.5 -14.5h-400zM455 51q-32 -24 -70 -37t-80 -13q-52 0 -97.5 19.5t-79.5 53.5t-53.5 79.5t-19.5 97.5t19.5 97.5t53.5 79.5t79.5 53.5t97.5 19.5t97.5 -19.5
t79.5 -53.5t53.5 -79.5t19.5 -97.5v-201q0 -21 -14.5 -35.5t-35.5 -14.5t-35.5 14.5t-14.5 35.5v1zM305 101q31 0 58.5 12t47.5 32t32 47.5t12 58.5t-12 58.5t-32 47.5t-47.5 32t-58.5 12t-58.5 -12t-47.5 -32t-32 -47.5t-12 -58.5t12 -58.5t32 -47.5t47.5 -32t58.5 -12z
" />
    <glyph glyph-name="Abreve" unicode="&#x102;" 
d="M305 761q-26 0 -48.5 10t-39.5 27t-27 39.5t-10 48.5q0 21 14.5 35.5t35.5 14.5t35.5 -14.5t14.5 -35.5q0 -11 7 -18t18 -7t18 7t7 18q0 21 14.5 35.5t35.5 14.5t35.5 -14.5t14.5 -35.5q0 -26 -10 -48.5t-27 -39.5t-39.5 -27t-48.5 -10zM455 200h-300v-150
q0 -21 -14.5 -35.5t-35.5 -14.5t-35.5 14.5t-14.5 35.5v400q0 52 19.5 97.5t53.5 79.5t79.5 53.5t97.5 19.5t97.5 -19.5t79.5 -53.5t53.5 -79.5t19.5 -97.5v-400q0 -21 -14.5 -35.5t-35.5 -14.5t-35.5 14.5t-14.5 35.5v150zM455 450q0 31 -12 58.5t-32 47.5t-47.5 32
t-58.5 12t-58.5 -12t-47.5 -32t-32 -47.5t-12 -58.5v-150h300v150z" />
    <glyph glyph-name="abreve" unicode="&#x103;" 
d="M305 561q-26 0 -48.5 10t-39.5 27t-27 39.5t-10 48.5q0 21 14.5 35.5t35.5 14.5t35.5 -14.5t14.5 -35.5q0 -11 7 -18t18 -7t18 7t7 18q0 21 14.5 35.5t35.5 14.5t35.5 -14.5t14.5 -35.5q0 -26 -10 -48.5t-27 -39.5t-39.5 -27t-48.5 -10zM455 51q-32 -24 -70 -37t-80 -13
q-52 0 -97.5 19.5t-79.5 53.5t-53.5 79.5t-19.5 97.5t19.5 97.5t53.5 79.5t79.5 53.5t97.5 19.5t97.5 -19.5t79.5 -53.5t53.5 -79.5t19.5 -97.5v-201q0 -21 -14.5 -35.5t-35.5 -14.5t-35.5 14.5t-14.5 35.5v1zM305 101q31 0 58.5 12t47.5 32t32 47.5t12 58.5t-12 58.5
t-32 47.5t-47.5 32t-58.5 12t-58.5 -12t-47.5 -32t-32 -47.5t-12 -58.5t12 -58.5t32 -47.5t47.5 -32t58.5 -12z" />
    <glyph glyph-name="Aogonek" unicode="&#x104;" 
d="M505 -250q-23 0 -43 8.5t-35 23.5t-23.5 35t-8.5 43q0 32 16.5 58t43.5 40v242h-300v-150q0 -21 -14.5 -35.5t-35.5 -14.5t-35.5 14.5t-14.5 35.5v400q0 52 19.5 97.5t53.5 79.5t79.5 53.5t97.5 19.5t97.5 -19.5t79.5 -53.5t53.5 -79.5t19.5 -97.5v-530
q0 -21 -14.5 -35.5t-35.5 -14.5q-10 0 -10 -10t10 -10h70q21 0 35.5 -14.5t14.5 -35.5t-14.5 -35.5t-35.5 -14.5h-70zM455 450q0 31 -12 58.5t-32 47.5t-47.5 32t-58.5 12t-58.5 -12t-47.5 -32t-32 -47.5t-12 -58.5v-150h300v150z" />
    <glyph glyph-name="aogonek" unicode="&#x105;" 
d="M505 -250q-23 0 -43 8.5t-35 23.5t-23.5 35t-8.5 43q0 32 16.5 58t43.5 40v93q-32 -24 -70 -37t-80 -13q-52 0 -97.5 19.5t-79.5 53.5t-53.5 79.5t-19.5 97.5t19.5 97.5t53.5 79.5t79.5 53.5t97.5 19.5t97.5 -19.5t79.5 -53.5t53.5 -79.5t19.5 -97.5v-331
q0 -21 -14.5 -35.5t-35.5 -14.5q-10 0 -10 -10t10 -10h70q21 0 35.5 -14.5t14.5 -35.5t-14.5 -35.5t-35.5 -14.5h-70zM305 101q31 0 58.5 12t47.5 32t32 47.5t12 58.5t-12 58.5t-32 47.5t-47.5 32t-58.5 12t-58.5 -12t-47.5 -32t-32 -47.5t-12 -58.5t12 -58.5t32 -47.5
t47.5 -32t58.5 -12z" />
    <glyph glyph-name="Cacute" unicode="&#x106;" horiz-adv-x="552" 
d="M55 450q0 52 19.5 97.5t53.5 79.5t79.5 53.5t97.5 19.5t97 -19.5t80 -53.5q14 -15 14 -35.5t-14 -35.5q-15 -14 -36 -14t-35 14q-20 20 -47.5 32t-58.5 12t-58.5 -12t-47.5 -32t-32 -47.5t-12 -58.5v-200q0 -31 12 -58.5t32 -47.5t47.5 -32t58.5 -12t58.5 12t47.5 32
q15 15 35.5 15t35.5 -15q14 -14 14 -35t-14 -35q-34 -35 -79.5 -54.5t-97.5 -19.5t-97.5 19.5t-79.5 53.5t-53.5 79.5t-19.5 97.5v200zM240 765q-19 -9 -38.5 -2t-27.5 26q-9 19 -2 38.5t26 27.5l172 81q19 8 38.5 1t27.5 -26q9 -19 2 -38t-26 -28z" />
    <glyph glyph-name="cacute" unicode="&#x107;" horiz-adv-x="552" 
d="M482 144q14 -15 14 -35.5t-14 -35.5q-34 -34 -79.5 -53.5t-97.5 -19.5t-97.5 19.5t-79.5 53.5t-53.5 79.5t-19.5 97.5t19.5 97.5t53.5 79.5t79.5 53.5t97.5 19.5t97 -19.5t80 -53.5q14 -15 14 -35.5t-14 -35.5q-15 -14 -36 -14t-35 14q-20 20 -47.5 32t-58.5 12
t-58.5 -12t-47.5 -32t-32 -47.5t-12 -58.5t12 -58.5t32 -47.5t47.5 -32t58.5 -12t58.5 12t47.5 32q15 14 35.5 14t35.5 -14zM240 565q-19 -9 -38.5 -2t-27.5 26q-9 19 -2 38.5t26 27.5l172 81q19 8 38.5 1t27.5 -26q9 -19 2 -38t-26 -28z" />
    <glyph glyph-name="Ccircumflex" unicode="&#x108;" horiz-adv-x="582" 
d="M55 450q0 52 19.5 97.5t53.5 79.5t79.5 53.5t97.5 19.5t97 -19.5t80 -53.5q14 -15 14 -35.5t-14 -35.5q-15 -14 -36 -14t-35 14q-20 20 -47.5 32t-58.5 12t-58.5 -12t-47.5 -32t-32 -47.5t-12 -58.5v-200q0 -31 12 -58.5t32 -47.5t47.5 -32t58.5 -12t58.5 12t47.5 32
q15 15 35.5 15t35.5 -15q14 -14 14 -35t-14 -35q-34 -35 -79.5 -54.5t-97.5 -19.5t-97.5 19.5t-79.5 53.5t-53.5 79.5t-19.5 97.5v200zM305 835l-151 -70q-19 -9 -38.5 -2t-27.5 26q-9 19 -2 38.5t26 27.5l193 91l193 -91q19 -8 26 -27.5t-2 -38.5q-8 -19 -27.5 -26t-38.5 2
z" />
    <glyph glyph-name="ccircumflex" unicode="&#x109;" horiz-adv-x="582" 
d="M305 635l-151 -70q-19 -9 -38.5 -2t-27.5 26q-9 19 -2 38.5t26 27.5l193 91l193 -91q19 -8 26 -27.5t-2 -38.5q-8 -19 -27.5 -26t-38.5 2zM482 144q14 -15 14 -35.5t-14 -35.5q-34 -34 -79.5 -53.5t-97.5 -19.5t-97.5 19.5t-79.5 53.5t-53.5 79.5t-19.5 97.5t19.5 97.5
t53.5 79.5t79.5 53.5t97.5 19.5t97 -19.5t80 -53.5q14 -15 14 -35.5t-14 -35.5q-15 -14 -36 -14t-35 14q-20 20 -47.5 32t-58.5 12t-58.5 -12t-47.5 -32t-32 -47.5t-12 -58.5t12 -58.5t32 -47.5t47.5 -32t58.5 -12t58.5 12t47.5 32q15 14 35.5 14t35.5 -14z" />
    <glyph glyph-name="Cdotaccent" unicode="&#x10a;" horiz-adv-x="552" 
d="M360 815q0 -23 -16 -39t-39 -16t-39 16t-16 39t16 39t39 16t39 -16t16 -39zM55 250q0 -52 19.5 -97.5t53.5 -79.5t79.5 -53.5t97.5 -19.5t97.5 19.5t79.5 54.5q14 14 14 35t-14 35q-15 15 -35.5 15t-35.5 -15q-20 -20 -47.5 -32t-58.5 -12t-58.5 12t-47.5 32t-32 47.5
t-12 58.5v200q0 31 12 58.5t32 47.5t47.5 32t58.5 12t58.5 -12t47.5 -32q14 -14 35 -14t36 14q14 15 14 35.5t-14 35.5q-35 34 -80 53.5t-97 19.5t-97.5 -19.5t-79.5 -53.5t-53.5 -79.5t-19.5 -97.5v-200z" />
    <glyph glyph-name="cdotaccent" unicode="&#x10b;" horiz-adv-x="552" 
d="M360 615q0 -23 -16 -39t-39 -16t-39 16t-16 39t16 39t39 16t39 -16t16 -39zM482 144q-15 14 -35.5 14t-35.5 -14q-20 -20 -47.5 -32t-58.5 -12t-58.5 12t-47.5 32t-32 47.5t-12 58.5t12 58.5t32 47.5t47.5 32t58.5 12t58.5 -12t47.5 -32q14 -14 35 -14t36 14
q14 15 14 35.5t-14 35.5q-35 34 -80 53.5t-97 19.5t-97.5 -19.5t-79.5 -53.5t-53.5 -79.5t-19.5 -97.5t19.5 -97.5t53.5 -79.5t79.5 -53.5t97.5 -19.5t97.5 19.5t79.5 53.5q14 15 14 35.5t-14 35.5z" />
    <glyph glyph-name="Ccaron" unicode="&#x10c;" horiz-adv-x="582" 
d="M55 250q0 -52 19.5 -97.5t53.5 -79.5t79.5 -53.5t97.5 -19.5t97.5 19.5t79.5 54.5q14 14 14 35t-14 35q-15 15 -35.5 15t-35.5 -15q-20 -20 -47.5 -32t-58.5 -12t-58.5 12t-47.5 32t-32 47.5t-12 58.5v200q0 31 12 58.5t32 47.5t47.5 32t58.5 12t58.5 -12t47.5 -32
q14 -14 35 -14t36 14q14 15 14 35.5t-14 35.5q-35 34 -80 53.5t-97 19.5t-97.5 -19.5t-79.5 -53.5t-53.5 -79.5t-19.5 -97.5v-200zM305 760l-193 91q-19 8 -26 27.5t2 38.5q8 19 27.5 26t38.5 -2l151 -70l151 70q19 9 38.5 2t27.5 -26q9 -19 2 -38.5t-26 -27.5z" />
    <glyph glyph-name="ccaron" unicode="&#x10d;" horiz-adv-x="552" 
d="M305 560l-193 91q-19 8 -26 27.5t2 38.5q8 19 27.5 26t38.5 -2l151 -70l151 70q19 9 38.5 2t27.5 -26q9 -19 2 -38.5t-26 -27.5zM482 144q-15 14 -35.5 14t-35.5 -14q-20 -20 -47.5 -32t-58.5 -12t-58.5 12t-47.5 32t-32 47.5t-12 58.5t12 58.5t32 47.5t47.5 32t58.5 12
t58.5 -12t47.5 -32q14 -14 35 -14t36 14q14 15 14 35.5t-14 35.5q-35 34 -80 53.5t-97 19.5t-97.5 -19.5t-79.5 -53.5t-53.5 -79.5t-19.5 -97.5t19.5 -97.5t53.5 -79.5t79.5 -53.5t97.5 -19.5t97.5 19.5t79.5 53.5q14 15 14 35.5t-14 35.5z" />
    <glyph glyph-name="Dcaron" unicode="&#x10e;" 
d="M305 0q52 0 97.5 19.5t79.5 53.5t53.5 79.5t19.5 97.5v200q0 52 -19.5 97.5t-53.5 79.5t-79.5 53.5t-97.5 19.5h-200q-21 0 -35.5 -14.5t-14.5 -35.5v-600q0 -21 14.5 -35.5t35.5 -14.5h200zM455 250q0 -31 -12 -58.5t-32 -47.5t-47.5 -32t-58.5 -12h-150v500h150
q31 0 58.5 -12t47.5 -32t32 -47.5t12 -58.5v-200zM305 760l-193 91q-19 8 -26 27.5t2 38.5q8 19 27.5 26t38.5 -2l151 -70l151 70q19 9 38.5 2t27.5 -26q9 -19 2 -38.5t-26 -27.5z" />
    <glyph glyph-name="dcaron" unicode="&#x10f;" horiz-adv-x="824" 
d="M555 50q0 -21 -14.5 -35.5t-35.5 -14.5t-35.5 14.5t-14.5 35.5q-32 -23 -70 -36.5t-80 -13.5q-52 0 -97.5 19.5t-79.5 53.5t-53.5 79.5t-19.5 97.5t19.5 97.5t53.5 79.5t79.5 53.5t97.5 19.5q42 0 80 -13.5t70 -36.5v250q0 21 14.5 35.5t35.5 14.5t35.5 -14.5t14.5 -35.5
v-650zM305 100q31 0 58.5 12t47.5 32t32 47.5t12 58.5t-12 58.5t-32 47.5t-47.5 32t-58.5 12t-58.5 -12t-47.5 -32t-32 -47.5t-12 -58.5t12 -58.5t32 -47.5t47.5 -32t58.5 -12zM719 700q-21 0 -35.5 -14.5t-14.5 -35.5v-50q0 -11 -7 -18t-18 -7q-21 0 -35.5 -14.5
t-14.5 -35.5t14.5 -35.5t35.5 -14.5q26 0 48.5 10t39.5 27t27 39.5t10 48.5v50q0 21 -14.5 35.5t-35.5 14.5z" />
    <glyph glyph-name="Dcroat" unicode="&#x110;" horiz-adv-x="672" 
d="M167 0q-21 0 -35.5 14.5t-14.5 35.5v250h-12q-21 0 -35.5 14.5t-14.5 35.5t14.5 35.5t35.5 14.5h12v250q0 21 14.5 35.5t35.5 14.5h200q52 0 97.5 -19.5t79.5 -53.5t53.5 -79.5t19.5 -97.5v-200q0 -52 -19.5 -97.5t-53.5 -79.5t-79.5 -53.5t-97.5 -19.5h-200zM517 450
q0 31 -12 58.5t-32 47.5t-47.5 32t-58.5 12h-150v-200h131q21 0 35.5 -14.5t14.5 -35.5t-14.5 -35.5t-35.5 -14.5h-131v-200h150q31 0 58.5 12t47.5 32t32 47.5t12 58.5v200z" />
    <glyph glyph-name="dcroat" unicode="&#x111;" horiz-adv-x="690" 
d="M455 580h-133q-21 0 -35.5 14.5t-14.5 35.5t14.5 35.5t35.5 14.5h133v20q0 21 14.5 35.5t35.5 14.5t35.5 -14.5t14.5 -35.5v-20h30q21 0 35.5 -14.5t14.5 -35.5t-14.5 -35.5t-35.5 -14.5h-30v-530q0 -21 -14.5 -35.5t-35.5 -14.5t-35.5 14.5t-14.5 35.5
q-32 -23 -70 -36.5t-80 -13.5q-52 0 -97.5 19.5t-79.5 53.5t-53.5 79.5t-19.5 97.5t19.5 97.5t53.5 79.5t79.5 53.5t97.5 19.5q42 0 80 -13.5t70 -36.5v130zM305 100q31 0 58.5 12t47.5 32t32 47.5t12 58.5t-12 58.5t-32 47.5t-47.5 32t-58.5 12t-58.5 -12t-47.5 -32
t-32 -47.5t-12 -58.5t12 -58.5t32 -47.5t47.5 -32t58.5 -12z" />
    <glyph glyph-name="Emacron" unicode="&#x112;" 
d="M105 760q-21 0 -35.5 14.5t-14.5 35.5t14.5 35.5t35.5 14.5h400q21 0 35.5 -14.5t14.5 -35.5t-14.5 -35.5t-35.5 -14.5h-400zM105 0q-21 0 -35.5 14.5t-14.5 35.5v600q0 21 14.5 35.5t35.5 14.5h400q21 0 35.5 -14.5t14.5 -35.5t-14.5 -35.5t-35.5 -14.5h-350v-300h284
q20 0 35 -14.5t15 -35.5t-14.5 -34.5t-35.5 -15.5h-284v-100h350q21 0 35.5 -14.5t14.5 -35.5t-14.5 -35.5t-35.5 -14.5h-400z" />
    <glyph glyph-name="emacron" unicode="&#x113;" 
d="M105 560q-21 0 -35.5 14.5t-14.5 35.5t14.5 35.5t35.5 14.5h400q21 0 35.5 -14.5t14.5 -35.5t-14.5 -35.5t-35.5 -14.5h-400zM164 200q15 -44 53.5 -72t87.5 -28q31 0 58.5 12t47.5 32q14 14 35 14t36 -14q14 -15 14 -35.5t-14 -35.5q-35 -34 -80 -53.5t-97 -19.5
t-97.5 19.5t-79.5 53.5t-53.5 79.5t-19.5 97.5t19.5 97.5t53.5 79.5t79.5 53.5t97.5 19.5t97.5 -19.5t79.5 -53.5t53.5 -79.5t19.5 -97.5q0 -20 -14.5 -35t-35.5 -15h-341zM446 300q-15 44 -53.5 72t-87.5 28t-87.5 -28t-54.5 -72h283z" />
    <glyph glyph-name="Edotaccent" unicode="&#x116;" 
d="M360 815q0 -23 -16 -39t-39 -16t-39 16t-16 39t16 39t39 16t39 -16t16 -39zM505 0q21 0 35.5 14.5t14.5 35.5t-14.5 35.5t-35.5 14.5h-350v100h284q21 2 35.5 15.5t14.5 34.5t-15 35.5t-35 14.5h-284v300h350q21 0 35.5 14.5t14.5 35.5t-14.5 35.5t-35.5 14.5h-400
q-21 0 -35.5 -14.5t-14.5 -35.5v-600q0 -21 14.5 -35.5t35.5 -14.5h400z" />
    <glyph glyph-name="edotaccent" unicode="&#x117;" 
d="M360 615q0 -23 -16 -39t-39 -16t-39 16t-16 39t16 39t39 16t39 -16t16 -39zM505 200q21 0 35.5 15t14.5 35q0 52 -19.5 97.5t-53.5 79.5t-79.5 53.5t-97.5 19.5t-97.5 -19.5t-79.5 -53.5t-53.5 -79.5t-19.5 -97.5t19.5 -97.5t53.5 -79.5t79.5 -53.5t97.5 -19.5t97 19.5
t80 53.5q14 15 14 35.5t-14 35.5q-15 14 -36 14t-35 -14q-20 -20 -47.5 -32t-58.5 -12q-49 0 -87.5 28t-53.5 72h341zM163 300q16 44 54.5 72t87.5 28t87.5 -28t53.5 -72h-283z" />
    <glyph glyph-name="Eogonek" unicode="&#x118;" 
d="M505 -250q-23 0 -43 8.5t-35 23.5t-23.5 35t-8.5 43q0 32 16.5 58t43.5 40v42h-350q-21 0 -35.5 14.5t-14.5 35.5v600q0 21 14.5 35.5t35.5 14.5h400q21 0 35.5 -14.5t14.5 -35.5t-14.5 -35.5t-35.5 -14.5h-350v-300h284q20 0 35 -14.5t15 -35.5t-15 -35.5t-35 -14.5
h-284v-100h350q21 0 35.5 -14.5t14.5 -35.5v-130q0 -21 -14.5 -35.5t-35.5 -14.5q-10 0 -10 -10t10 -10h70q21 0 35.5 -14.5t14.5 -35.5t-14.5 -35.5t-35.5 -14.5h-70z" />
    <glyph glyph-name="eogonek" unicode="&#x119;" 
d="M305 -250q-23 0 -43 8.5t-35 23.5t-23.5 35t-8.5 43q0 32 16.5 58t43.5 40v47q-43 9 -79.5 31t-63.5 54.5t-42 73.5t-15 86q0 52 19.5 97.5t53.5 79.5t79.5 53.5t97.5 19.5t97.5 -19.5t79.5 -53.5t53.5 -79.5t19.5 -97.5q0 -21 -14.5 -35.5t-35.5 -14.5h-341
q15 -44 53.5 -72t87.5 -28q31 0 58.5 12t47.5 32q14 14 35 14t36 -14q14 -15 14 -35.5t-14 -35.5q-26 -26 -58 -43t-69 -25v-85q0 -21 -14.5 -35.5t-35.5 -14.5q-10 0 -10 -10t10 -10h70q21 0 35.5 -14.5t14.5 -35.5t-14.5 -35.5t-35.5 -14.5h-70zM446 300q-15 44 -53.5 72
t-87.5 28t-87.5 -28t-54.5 -72h283z" />
    <glyph glyph-name="Ecaron" unicode="&#x11a;" 
d="M305 760l-193 91q-19 8 -26 27.5t2 38.5q8 19 27.5 26t38.5 -2l151 -70l151 70q19 9 38.5 2t27.5 -26q9 -19 2 -38.5t-26 -27.5zM505 0q21 0 35.5 14.5t14.5 35.5t-14.5 35.5t-35.5 14.5h-350v100h284q21 2 35.5 15.5t14.5 34.5t-15 35.5t-35 14.5h-284v300h350
q21 0 35.5 14.5t14.5 35.5t-14.5 35.5t-35.5 14.5h-400q-21 0 -35.5 -14.5t-14.5 -35.5v-600q0 -21 14.5 -35.5t35.5 -14.5h400z" />
    <glyph glyph-name="ecaron" unicode="&#x11b;" 
d="M305 560l-193 91q-19 8 -26 27.5t2 38.5q8 19 27.5 26t38.5 -2l151 -70l151 70q19 9 38.5 2t27.5 -26q9 -19 2 -38.5t-26 -27.5zM505 200q21 0 35.5 15t14.5 35q0 52 -19.5 97.5t-53.5 79.5t-79.5 53.5t-97.5 19.5t-97.5 -19.5t-79.5 -53.5t-53.5 -79.5t-19.5 -97.5
t19.5 -97.5t53.5 -79.5t79.5 -53.5t97.5 -19.5t97 19.5t80 53.5q14 15 14 35.5t-14 35.5q-15 14 -36 14t-35 -14q-20 -20 -47.5 -32t-58.5 -12q-49 0 -87.5 28t-53.5 72h341zM163 300q16 44 54.5 72t87.5 28t87.5 -28t53.5 -72h-283z" />
    <glyph glyph-name="Gcircumflex" unicode="&#x11c;" 
d="M305 835l-151 -70q-19 -9 -38.5 -2t-27.5 26q-9 19 -2 38.5t26 27.5l193 91l193 -91q19 -8 26 -27.5t-2 -38.5q-8 -19 -27.5 -26t-38.5 2zM455 300h-100q-21 0 -35.5 14.5t-14.5 35.5t14.5 35.5t35.5 14.5h150q21 0 35.5 -14.5t14.5 -35.5v-100q0 -52 -19.5 -97.5
t-53.5 -79.5t-79.5 -53.5t-97.5 -19.5t-97.5 19.5t-79.5 53.5t-53.5 79.5t-19.5 97.5v200q0 52 19.5 97.5t53.5 79.5t79.5 53.5t97.5 19.5t97 -19.5t79 -53.5q15 -15 15 -35.5t-15 -35.5q-14 -15 -35 -15t-35 15l-3 3q-20 19 -46.5 30t-56.5 11q-31 0 -58.5 -12t-47.5 -32
t-32 -47.5t-12 -58.5v-200q0 -31 12 -58.5t32 -47.5t47.5 -32t58.5 -12t58.5 12t47.5 32t32 47.5t12 58.5v50z" />
    <glyph glyph-name="gcircumflex" unicode="&#x11d;" 
d="M305 635l-151 -70q-19 -9 -38.5 -2t-27.5 26q-9 19 -2 38.5t26 27.5l193 91l193 -91q19 -8 26 -27.5t-2 -38.5q-8 -19 -27.5 -26t-38.5 2zM455 50q-32 -23 -70 -36.5t-80 -13.5q-52 0 -97.5 19.5t-79.5 53.5t-53.5 79.5t-19.5 97.5t19.5 97.5t53.5 79.5t79.5 53.5
t97.5 19.5q42 0 80 -13.5t70 -36.5q0 21 14.5 35.5t35.5 14.5t35.5 -14.5t14.5 -35.5v-450q0 -52 -19.5 -97.5t-53.5 -79.5t-79.5 -53.5t-97.5 -19.5t-97 19.5t-79 53.5q-15 15 -15 35.5t15 35.5q14 14 35 14t35 -14q20 -20 47 -32t59 -12q31 0 58.5 12t47.5 32t32 47.5
t12 58.5v50zM305 100q31 0 58.5 12t47.5 32t32 47.5t12 58.5t-12 58.5t-32 47.5t-47.5 32t-58.5 12t-58.5 -12t-47.5 -32t-32 -47.5t-12 -58.5t12 -58.5t32 -47.5t47.5 -32t58.5 -12z" />
    <glyph glyph-name="Gbreve" unicode="&#x11e;" 
d="M305 761q-26 0 -48.5 10t-39.5 27t-27 39.5t-10 48.5q0 21 14.5 35.5t35.5 14.5t35.5 -14.5t14.5 -35.5q0 -11 7 -18t18 -7t18 7t7 18q0 21 14.5 35.5t35.5 14.5t35.5 -14.5t14.5 -35.5q0 -26 -10 -48.5t-27 -39.5t-39.5 -27t-48.5 -10zM455 300h-100q-21 0 -35.5 14.5
t-14.5 35.5t14.5 35.5t35.5 14.5h150q21 0 35.5 -14.5t14.5 -35.5v-100q0 -52 -19.5 -97.5t-53.5 -79.5t-79.5 -53.5t-97.5 -19.5t-97.5 19.5t-79.5 53.5t-53.5 79.5t-19.5 97.5v200q0 52 19.5 97.5t53.5 79.5t79.5 53.5t97.5 19.5t97 -19.5t79 -53.5q15 -15 15 -35.5
t-15 -35.5q-14 -15 -35 -15t-35 15l-3 3q-20 19 -46.5 30t-56.5 11q-31 0 -58.5 -12t-47.5 -32t-32 -47.5t-12 -58.5v-200q0 -31 12 -58.5t32 -47.5t47.5 -32t58.5 -12t58.5 12t47.5 32t32 47.5t12 58.5v50z" />
    <glyph glyph-name="gbreve" unicode="&#x11f;" 
d="M305 561q-26 0 -48.5 10t-39.5 27t-27 39.5t-10 48.5q0 21 14.5 35.5t35.5 14.5t35.5 -14.5t14.5 -35.5q0 -11 7 -18t18 -7t18 7t7 18q0 21 14.5 35.5t35.5 14.5t35.5 -14.5t14.5 -35.5q0 -26 -10 -48.5t-27 -39.5t-39.5 -27t-48.5 -10zM455 50q-32 -23 -70 -36.5
t-80 -13.5q-52 0 -97.5 19.5t-79.5 53.5t-53.5 79.5t-19.5 97.5t19.5 97.5t53.5 79.5t79.5 53.5t97.5 19.5q42 0 80 -13.5t70 -36.5q0 21 14.5 35.5t35.5 14.5t35.5 -14.5t14.5 -35.5v-450q0 -52 -19.5 -97.5t-53.5 -79.5t-79.5 -53.5t-97.5 -19.5t-97 19.5t-79 53.5
q-15 15 -15 35.5t15 35.5q14 14 35 14t35 -14q20 -20 47 -32t59 -12q31 0 58.5 12t47.5 32t32 47.5t12 58.5v50zM305 100q31 0 58.5 12t47.5 32t32 47.5t12 58.5t-12 58.5t-32 47.5t-47.5 32t-58.5 12t-58.5 -12t-47.5 -32t-32 -47.5t-12 -58.5t12 -58.5t32 -47.5t47.5 -32
t58.5 -12z" />
    <glyph glyph-name="Gdotaccent" unicode="&#x120;" 
d="M360 815q0 -23 -16 -39t-39 -16t-39 16t-16 39t16 39t39 16t39 -16t16 -39zM455 250q0 -31 -12 -58.5t-32 -47.5t-47.5 -32t-58.5 -12t-58.5 12t-47.5 32t-32 47.5t-12 58.5v200q0 31 12 58.5t32 47.5t47.5 32t58.5 12q30 0 56.5 -11t46.5 -30l3 -3q14 -15 35 -15t35 15
q15 15 15 35.5t-15 35.5q-34 34 -79 53.5t-97 19.5t-97.5 -19.5t-79.5 -53.5t-53.5 -79.5t-19.5 -97.5v-200q0 -52 19.5 -97.5t53.5 -79.5t79.5 -53.5t97.5 -19.5t97.5 19.5t79.5 53.5t53.5 79.5t19.5 97.5v100q0 21 -14.5 35.5t-35.5 14.5h-150q-21 0 -35.5 -14.5
t-14.5 -35.5t14.5 -35.5t35.5 -14.5h100v-50z" />
    <glyph glyph-name="gdotaccent" unicode="&#x121;" 
d="M360 615q0 -23 -16 -39t-39 -16t-39 16t-16 39t16 39t39 16t39 -16t16 -39zM455 0q0 -31 -12 -58.5t-32 -47.5t-47.5 -32t-58.5 -12q-32 0 -59 12t-47 32q-14 14 -35 14t-35 -14q-15 -15 -15 -35.5t15 -35.5q34 -34 79 -53.5t97 -19.5t97.5 19.5t79.5 53.5t53.5 79.5
t19.5 97.5v450q0 21 -14.5 35.5t-35.5 14.5t-35.5 -14.5t-14.5 -35.5q-32 23 -70 36.5t-80 13.5q-52 0 -97.5 -19.5t-79.5 -53.5t-53.5 -79.5t-19.5 -97.5t19.5 -97.5t53.5 -79.5t79.5 -53.5t97.5 -19.5q42 0 80 13.5t70 36.5v-50zM305 100q-31 0 -58.5 12t-47.5 32
t-32 47.5t-12 58.5t12 58.5t32 47.5t47.5 32t58.5 12t58.5 -12t47.5 -32t32 -47.5t12 -58.5t-12 -58.5t-32 -47.5t-47.5 -32t-58.5 -12z" />
    <glyph glyph-name="Gcommaaccent" unicode="&#x122;" 
d="M455 300h-100q-21 0 -35.5 14.5t-14.5 35.5t14.5 35.5t35.5 14.5h150q21 0 35.5 -14.5t14.5 -35.5v-100q0 -52 -19.5 -97.5t-53.5 -79.5t-79.5 -53.5t-97.5 -19.5t-97.5 19.5t-79.5 53.5t-53.5 79.5t-19.5 97.5v200q0 52 19.5 97.5t53.5 79.5t79.5 53.5t97.5 19.5
t97 -19.5t79 -53.5q15 -15 15 -35.5t-15 -35.5q-14 -15 -35 -15t-35 15l-3 3q-20 19 -46.5 30t-56.5 11q-31 0 -58.5 -12t-47.5 -32t-32 -47.5t-12 -58.5v-200q0 -31 12 -58.5t32 -47.5t47.5 -32t58.5 -12t58.5 12t47.5 32t32 47.5t12 58.5v50zM305 -60q21 0 35.5 -14.5
t14.5 -35.5v-50q0 -26 -10 -48.5t-27 -39.5t-39.5 -27t-48.5 -10q-21 0 -35.5 14.5t-14.5 35.5t14.5 35.5t35.5 14.5q11 0 18 7t7 18v50q0 21 14.5 35.5t35.5 14.5z" />
    <glyph glyph-name="gcommaaccent" unicode="&#x123;" 
d="M455 50q-32 -23 -70 -36.5t-80 -13.5q-52 0 -97.5 19.5t-79.5 53.5t-53.5 79.5t-19.5 97.5t19.5 97.5t53.5 79.5t79.5 53.5t97.5 19.5q42 0 80 -13.5t70 -36.5q0 21 14.5 35.5t35.5 14.5t35.5 -14.5t14.5 -35.5v-450q0 -52 -19.5 -97.5t-53.5 -79.5t-79.5 -53.5
t-97.5 -19.5t-97 19.5t-79 53.5q-15 15 -15 35.5t15 35.5q14 14 35 14t35 -14q20 -20 47 -32t59 -12q31 0 58.5 12t47.5 32t32 47.5t12 58.5v50zM305 100q31 0 58.5 12t47.5 32t32 47.5t12 58.5t-12 58.5t-32 47.5t-47.5 32t-58.5 12t-58.5 -12t-47.5 -32t-32 -47.5
t-12 -58.5t12 -58.5t32 -47.5t47.5 -32t58.5 -12zM305 560q-21 0 -35.5 14.5t-14.5 35.5v50q0 26 10 48.5t27 39.5t39.5 27t48.5 10q21 0 35.5 -14.5t14.5 -35.5t-14.5 -35.5t-35.5 -14.5q-11 0 -18 -7t-7 -18v-50q0 -21 -14.5 -35.5t-35.5 -14.5z" />
    <glyph glyph-name="Hcircumflex" unicode="&#x124;" 
d="M305 835l-151 -70q-19 -9 -38.5 -2t-27.5 26q-9 19 -2 38.5t26 27.5l193 91l193 -91q19 -8 26 -27.5t-2 -38.5q-8 -19 -27.5 -26t-38.5 2zM455 200h-300v-150q0 -21 -14.5 -35.5t-35.5 -14.5t-35.5 14.5t-14.5 35.5v600q0 21 14.5 35.5t35.5 14.5t35.5 -14.5t14.5 -35.5
v-350h300v350q0 21 14.5 35.5t35.5 14.5t35.5 -14.5t14.5 -35.5v-600q0 -21 -14.5 -35.5t-35.5 -14.5t-35.5 14.5t-14.5 35.5v150z" />
    <glyph glyph-name="hcircumflex" unicode="&#x125;" 
d="M305 835l-151 -70q-19 -9 -38.5 -2t-27.5 26q-9 19 -2 38.5t26 27.5l193 91l193 -91q19 -8 26 -27.5t-2 -38.5q-8 -19 -27.5 -26t-38.5 2zM455 250q0 31 -12 58.5t-32 47.5t-47.5 32t-58.5 12t-58.5 -12t-47.5 -32t-32 -47.5t-12 -58.5v-200q0 -21 -14.5 -35.5
t-35.5 -14.5t-35.5 14.5t-14.5 35.5v650q0 21 14.5 35.5t35.5 14.5t35.5 -14.5t14.5 -35.5v-250q32 23 70 36.5t80 13.5q52 0 97.5 -19.5t79.5 -53.5t53.5 -79.5t19.5 -97.5v-200q0 -21 -14.5 -35.5t-35.5 -14.5t-35.5 14.5t-14.5 35.5v200z" />
    <glyph glyph-name="Hbar" unicode="&#x126;" horiz-adv-x="806" 
d="M553 200h-300v-150q0 -21 -14.5 -35.5t-35.5 -14.5t-35.5 14.5t-14.5 35.5v360h-48q-21 0 -35.5 14.5t-14.5 35.5t14.5 35.5t35.5 14.5h48v140q0 21 14.5 35.5t35.5 14.5t35.5 -14.5t14.5 -35.5v-140h300v140q0 21 14.5 35.5t35.5 14.5t35.5 -14.5t14.5 -35.5v-140h48
q21 0 35.5 -14.5t14.5 -35.5t-14.5 -35.5t-35.5 -14.5h-48v-360q0 -21 -14.5 -35.5t-35.5 -14.5t-35.5 14.5t-14.5 35.5v150zM553 410h-300v-110h300v110z" />
    <glyph glyph-name="hbar" unicode="&#x127;" horiz-adv-x="705" 
d="M550 250q0 31 -12 58.5t-32 47.5t-47.5 32t-58.5 12t-58.5 -12t-47.5 -32t-32 -47.5t-12 -58.5v-200q0 -21 -14.5 -35.5t-35.5 -14.5t-35.5 14.5t-14.5 35.5v514h-45q-21 0 -35.5 14.5t-14.5 35.5t14.5 35.5t35.5 14.5h45v36q0 21 14.5 35.5t35.5 14.5t35.5 -14.5
t14.5 -35.5v-36h43q21 0 35.5 -14.5t14.5 -35.5t-14.5 -35.5t-35.5 -14.5h-43v-114q32 23 70 36.5t80 13.5q52 0 97.5 -19.5t79.5 -53.5t53.5 -79.5t19.5 -97.5v-200q0 -21 -14.5 -35.5t-35.5 -14.5t-35.5 14.5t-14.5 35.5v200z" />
    <glyph glyph-name="Itilde" unicode="&#x128;" horiz-adv-x="210" 
d="M55 650q0 21 14.5 35.5t35.5 14.5t35.5 -14.5t14.5 -35.5v-600q0 -21 -14.5 -35.5t-35.5 -14.5t-35.5 14.5t-14.5 35.5v600zM168 985q23 0 43.5 -9t35.5 -24.5t24 -36t9 -43.5v-50q0 -20 -14.5 -35t-35.5 -15q-20 0 -35 15t-15 35v50q0 13 -12 13q-13 0 -13 -13
q0 -23 -9 -43.5t-24 -35.5t-35.5 -24t-43.5 -9t-43.5 9t-36 24t-24.5 35.5t-9 43.5v50q0 21 15 35.5t35 14.5q21 0 35.5 -14.5t14.5 -35.5v-50q0 -5 4 -8.5t9 -3.5t8.5 3.5t3.5 8.5q0 23 9 43.5t24.5 36t36 24.5t43.5 9z" />
    <glyph glyph-name="itilde" unicode="&#x129;" horiz-adv-x="210" 
d="M55 450q0 21 14.5 35.5t35.5 14.5t35.5 -14.5t14.5 -35.5v-400q0 -21 -14.5 -35.5t-35.5 -14.5t-35.5 14.5t-14.5 35.5v400zM168 786q23 0 43.5 -9t35.5 -24.5t24 -36t9 -43.5v-50q0 -20 -14.5 -35t-35.5 -15q-20 0 -35 15t-15 35v50q0 13 -12 13q-13 0 -13 -13
q0 -23 -9 -43.5t-24 -35.5t-35.5 -24t-43.5 -9t-43.5 9t-36 24t-24.5 35.5t-9 43.5v50q0 21 15 35.5t35 14.5q21 0 35.5 -14.5t14.5 -35.5v-50q0 -5 4 -8.5t9 -3.5t8.5 3.5t3.5 8.5q0 23 9 43.5t24.5 36t36 24.5t43.5 9z" />
    <glyph glyph-name="Imacron" unicode="&#x12a;" horiz-adv-x="210" 
d="M10 760q-21 0 -35.5 14.5t-14.5 35.5t14.5 35.5t35.5 14.5h190q21 0 35.5 -14.5t14.5 -35.5t-14.5 -35.5t-35.5 -14.5h-190zM55 650q0 21 14.5 35.5t35.5 14.5t35.5 -14.5t14.5 -35.5v-600q0 -21 -14.5 -35.5t-35.5 -14.5t-35.5 14.5t-14.5 35.5v600z" />
    <glyph glyph-name="imacron" unicode="&#x12b;" horiz-adv-x="210" 
d="M10 560q-21 0 -35.5 14.5t-14.5 35.5t14.5 35.5t35.5 14.5h190q21 0 35.5 -14.5t14.5 -35.5t-14.5 -35.5t-35.5 -14.5h-190zM55 450q0 21 14.5 35.5t35.5 14.5t35.5 -14.5t14.5 -35.5v-400q0 -21 -14.5 -35.5t-35.5 -14.5t-35.5 14.5t-14.5 35.5v400z" />
    <glyph glyph-name="Iogonek" unicode="&#x12e;" horiz-adv-x="210" 
d="M105 -250q-23 0 -43 8.5t-35 23.5t-23.5 35t-8.5 43q0 32 16.5 58t43.5 40v692q0 21 14.5 35.5t35.5 14.5t35.5 -14.5t14.5 -35.5v-730q0 -21 -14.5 -35.5t-35.5 -14.5q-10 0 -10 -10t10 -10h70q21 0 35.5 -14.5t14.5 -35.5t-14.5 -35.5t-35.5 -14.5h-70z" />
    <glyph glyph-name="iogonek" unicode="&#x12f;" horiz-adv-x="210" 
d="M105 -250q-23 0 -43 8.5t-35 23.5t-23.5 35t-8.5 43q0 32 16.5 58t43.5 40v492q0 21 14.5 35.5t35.5 14.5t35.5 -14.5t14.5 -35.5v-530q0 -21 -14.5 -35.5t-35.5 -14.5q-10 0 -10 -10t10 -10h70q21 0 35.5 -14.5t14.5 -35.5t-14.5 -35.5t-35.5 -14.5h-70zM105 590
q-23 0 -39 16t-16 39t16 39t39 16t39 -16t16 -39t-16 -39t-39 -16z" />
    <glyph glyph-name="Idotaccent" unicode="&#x130;" horiz-adv-x="220" 
d="M60 50q0 -21 14.5 -35.5t35.5 -14.5t35.5 14.5t14.5 35.5v600q0 21 -14.5 35.5t-35.5 14.5t-35.5 -14.5t-14.5 -35.5v-600zM165 815q0 -23 -16 -39t-39 -16t-39 16t-16 39t16 39t39 16t39 -16t16 -39z" />
    <glyph glyph-name="dotlessi" unicode="&#x131;" horiz-adv-x="210" 
d="M55 450q0 21 14.5 35.5t35.5 14.5t35.5 -14.5t14.5 -35.5v-400q0 -21 -14.5 -35.5t-35.5 -14.5t-35.5 14.5t-14.5 35.5v400z" />
    <glyph glyph-name="Jcircumflex" unicode="&#x134;" 
d="M455 650q0 21 14.5 35.5t35.5 14.5t35.5 -14.5t14.5 -35.5v-400q0 -52 -19.5 -97.5t-53.5 -79.5t-79.5 -53.5t-97.5 -19.5t-97.5 19.5t-79.5 53.5t-53.5 79.5t-19.5 97.5q0 21 14.5 35.5t35.5 14.5t35.5 -14.5t14.5 -35.5q0 -31 12 -58.5t32 -47.5t47.5 -32t58.5 -12
t58.5 12t47.5 32t32 47.5t12 58.5v400zM305 835l-151 -70q-19 -9 -38.5 -2t-27.5 26q-9 19 -2 38.5t26 27.5l193 91l193 -91q19 -8 26 -27.5t-2 -38.5q-8 -19 -27.5 -26t-38.5 2z" />
    <glyph glyph-name="jcircumflex" unicode="&#x135;" horiz-adv-x="210" 
d="M105 635l-151 -70q-19 -9 -38.5 -2t-27.5 26q-9 19 -2 38.5t26 27.5l193 91l193 -91q19 -8 26 -27.5t-2 -38.5q-8 -19 -27.5 -26t-38.5 2zM55 450q0 21 14.5 35.5t35.5 14.5t35.5 -14.5t14.5 -35.5v-450q0 -52 -19.5 -97.5t-53.5 -79.5t-79.5 -53.5t-97.5 -19.5
q-21 0 -35.5 14.5t-14.5 35.5t14.5 35.5t35.5 14.5q31 0 58.5 12t47.5 32t32 47.5t12 58.5v450z" />
    <glyph glyph-name="Kcommaaccent" unicode="&#x136;" 
d="M205 279l-50 -50v-179q0 -21 -14.5 -35.5t-35.5 -14.5t-35.5 14.5t-14.5 35.5v600q0 21 14.5 35.5t35.5 14.5t35.5 -14.5t14.5 -35.5v-279l315 314q14 15 35 15t35 -15q15 -14 15 -35t-15 -35l-264 -265l264 -265q15 -14 15 -35t-15 -35q-14 -15 -35 -15t-35 15zM305 -60
q21 0 35.5 -14.5t14.5 -35.5v-50q0 -26 -10 -48.5t-27 -39.5t-39.5 -27t-48.5 -10q-21 0 -35.5 14.5t-14.5 35.5t14.5 35.5t35.5 14.5q11 0 18 7t7 18v50q0 21 14.5 35.5t35.5 14.5z" />
    <glyph glyph-name="kcommaaccent" unicode="&#x137;" 
d="M305 179l-165 -164q-15 -15 -35 -15q-21 0 -35.5 14.5t-14.5 35.5v650q0 21 14.5 35.5t35.5 14.5t35.5 -14.5t14.5 -35.5v-529l315 314q14 15 35 15t35 -15q15 -14 15 -35t-15 -35l-164 -165l164 -165q15 -14 15 -35t-15 -35q-14 -15 -35 -15t-35 15zM305 -60
q21 0 35.5 -14.5t14.5 -35.5v-50q0 -26 -10 -48.5t-27 -39.5t-39.5 -27t-48.5 -10q-21 0 -35.5 14.5t-14.5 35.5t14.5 35.5t35.5 14.5q11 0 18 7t7 18v50q0 21 14.5 35.5t35.5 14.5z" />
    <glyph glyph-name="Lacute" unicode="&#x139;" 
d="M105 0q-21 0 -35.5 14.5t-14.5 35.5v600q0 21 14.5 35.5t35.5 14.5t35.5 -14.5t14.5 -35.5v-550h350q21 0 35.5 -14.5t14.5 -35.5t-14.5 -35.5t-35.5 -14.5h-400zM240 765q-19 -9 -38.5 -2t-27.5 26q-9 19 -2 38.5t26 27.5l172 81q19 8 38.5 1t27.5 -26q9 -19 2 -38
t-26 -28z" />
    <glyph glyph-name="lacute" unicode="&#x13a;" horiz-adv-x="210" 
d="M55 700q0 21 14.5 35.5t35.5 14.5t35.5 -14.5t14.5 -35.5v-650q0 -21 -14.5 -35.5t-35.5 -14.5t-35.5 14.5t-14.5 35.5v650zM40 815q-19 -9 -38.5 -2t-27.5 26q-9 19 -2 38.5t26 27.5l172 81q19 8 38.5 1t27.5 -26q9 -19 2 -38t-26 -28z" />
    <glyph glyph-name="Lcommaaccent" unicode="&#x13b;" 
d="M105 0q-21 0 -35.5 14.5t-14.5 35.5v600q0 21 14.5 35.5t35.5 14.5t35.5 -14.5t14.5 -35.5v-550h350q21 0 35.5 -14.5t14.5 -35.5t-14.5 -35.5t-35.5 -14.5h-400zM305 -60q21 0 35.5 -14.5t14.5 -35.5v-50q0 -26 -10 -48.5t-27 -39.5t-39.5 -27t-48.5 -10
q-21 0 -35.5 14.5t-14.5 35.5t14.5 35.5t35.5 14.5q11 0 18 7t7 18v50q0 21 14.5 35.5t35.5 14.5z" />
    <glyph glyph-name="lcommaaccent" unicode="&#x13c;" horiz-adv-x="220" 
d="M60 650q0 21 14.5 35.5t35.5 14.5t35.5 -14.5t14.5 -35.5v-600q0 -21 -14.5 -35.5t-35.5 -14.5t-35.5 14.5t-14.5 35.5v600zM110 -60q21 0 35.5 -14.5t14.5 -35.5v-50q0 -26 -10 -48.5t-27 -39.5t-39.5 -27t-48.5 -10q-21 0 -35.5 14.5t-14.5 35.5t14.5 35.5t35.5 14.5
q11 0 18 7t7 18v50q0 21 14.5 35.5t35.5 14.5z" />
    <glyph glyph-name="Lcaron" unicode="&#x13d;" 
d="M505 0q21 0 35.5 14.5t14.5 35.5t-14.5 35.5t-35.5 14.5h-350v550q0 21 -14.5 35.5t-35.5 14.5t-35.5 -14.5t-14.5 -35.5v-600q0 -21 14.5 -35.5t35.5 -14.5h400zM305 760l-193 91q-19 8 -26 27.5t2 38.5q8 19 27.5 26t38.5 -2l151 -70l151 70q19 9 38.5 2t27.5 -26
q9 -19 2 -38.5t-26 -27.5z" />
    <glyph glyph-name="lcaron" unicode="&#x13e;" horiz-adv-x="424" 
d="M55 700q0 21 14.5 35.5t35.5 14.5t35.5 -14.5t14.5 -35.5v-650q0 -21 -14.5 -35.5t-35.5 -14.5t-35.5 14.5t-14.5 35.5v650zM319 700q21 0 35.5 -14.5t14.5 -35.5v-50q0 -26 -10 -48.5t-27 -39.5t-39.5 -27t-48.5 -10q-21 0 -35.5 14.5t-14.5 35.5t14.5 35.5t35.5 14.5
q11 0 18 7t7 18v50q0 21 14.5 35.5t35.5 14.5z" />
    <glyph glyph-name="Lslash" unicode="&#x141;" horiz-adv-x="696" 
d="M191 0q-21 0 -35.5 14.5t-14.5 35.5v222l-15 -7q-19 -9 -38.5 -2t-27.5 26q-9 19 -2 38.5t26 27.5l57 27v268q0 21 14.5 35.5t35.5 14.5t35.5 -14.5t14.5 -35.5v-221l15 7q19 8 38.5 1t27.5 -26q9 -19 2 -38t-26 -28l-57 -27v-218h350q21 0 35.5 -14.5t14.5 -35.5
t-14.5 -35.5t-35.5 -14.5h-400z" />
    <glyph glyph-name="lslash" unicode="&#x142;" horiz-adv-x="382" 
d="M141 297l-15 -7q-19 -9 -38.5 -2t-27.5 26q-9 19 -2 38.5t26 27.5l57 27v293q0 21 14.5 35.5t35.5 14.5t35.5 -14.5t14.5 -35.5v-246l15 7q19 8 38.5 1t27.5 -26q9 -19 2 -38t-26 -28l-57 -27v-293q0 -21 -14.5 -35.5t-35.5 -14.5t-35.5 14.5t-14.5 35.5v247z" />
    <glyph glyph-name="Nacute" unicode="&#x143;" 
d="M155 485v-435q0 -21 -14.5 -35.5t-35.5 -14.5t-35.5 14.5t-14.5 35.5v600q0 21 14.5 35.5t35.5 14.5q13 0 24 -6t18 -16l308 -463v435q0 21 14.5 35.5t35.5 14.5t35.5 -14.5t14.5 -35.5v-600q0 -21 -14.5 -35.5t-35.5 -14.5q-13 0 -24 6t-18 16zM240 765q-19 -9 -38.5 -2
t-27.5 26q-9 19 -2 38.5t26 27.5l172 81q19 8 38.5 1t27.5 -26q9 -19 2 -38t-26 -28z" />
    <glyph glyph-name="nacute" unicode="&#x144;" 
d="M240 565q-19 -9 -38.5 -2t-27.5 26q-9 19 -2 38.5t26 27.5l172 81q19 8 38.5 1t27.5 -26q9 -19 2 -38t-26 -28zM55 450q0 21 14.5 35.5t35.5 14.5t35.5 -14.5t14.5 -35.5q32 23 70 36.5t80 13.5q52 0 97.5 -19.5t79.5 -53.5t53.5 -79.5t19.5 -97.5v-200
q0 -21 -14.5 -35.5t-35.5 -14.5t-35.5 14.5t-14.5 35.5v200q0 31 -12 58.5t-32 47.5t-47.5 32t-58.5 12t-58.5 -12t-47.5 -32t-32 -47.5t-12 -58.5v-200q0 -21 -14.5 -35.5t-35.5 -14.5t-35.5 14.5t-14.5 35.5v400z" />
    <glyph glyph-name="Ncommaaccent" unicode="&#x145;" 
d="M155 485v-435q0 -21 -14.5 -35.5t-35.5 -14.5t-35.5 14.5t-14.5 35.5v600q0 21 14.5 35.5t35.5 14.5q13 0 24 -6t18 -16l308 -463v435q0 21 14.5 35.5t35.5 14.5t35.5 -14.5t14.5 -35.5v-600q0 -21 -14.5 -35.5t-35.5 -14.5q-13 0 -24 6t-18 16zM305 -60q21 0 35.5 -14.5
t14.5 -35.5v-50q0 -26 -10 -48.5t-27 -39.5t-39.5 -27t-48.5 -10q-21 0 -35.5 14.5t-14.5 35.5t14.5 35.5t35.5 14.5q11 0 18 7t7 18v50q0 21 14.5 35.5t35.5 14.5z" />
    <glyph glyph-name="ncommaaccent" unicode="&#x146;" 
d="M55 450q0 21 14.5 35.5t35.5 14.5t35.5 -14.5t14.5 -35.5q32 23 70 36.5t80 13.5q52 0 97.5 -19.5t79.5 -53.5t53.5 -79.5t19.5 -97.5v-200q0 -21 -14.5 -35.5t-35.5 -14.5t-35.5 14.5t-14.5 35.5v200q0 31 -12 58.5t-32 47.5t-47.5 32t-58.5 12t-58.5 -12t-47.5 -32
t-32 -47.5t-12 -58.5v-200q0 -21 -14.5 -35.5t-35.5 -14.5t-35.5 14.5t-14.5 35.5v400zM305 -60q21 0 35.5 -14.5t14.5 -35.5v-50q0 -26 -10 -48.5t-27 -39.5t-39.5 -27t-48.5 -10q-21 0 -35.5 14.5t-14.5 35.5t14.5 35.5t35.5 14.5q11 0 18 7t7 18v50q0 21 14.5 35.5
t35.5 14.5z" />
    <glyph glyph-name="Ncaron" unicode="&#x147;" 
d="M463 22q7 -10 18 -16t24 -6q21 0 35.5 14.5t14.5 35.5v600q0 21 -14.5 35.5t-35.5 14.5t-35.5 -14.5t-14.5 -35.5v-435l-308 463q-7 10 -18 16t-24 6q-21 0 -35.5 -14.5t-14.5 -35.5v-600q0 -21 14.5 -35.5t35.5 -14.5t35.5 14.5t14.5 35.5v435zM310 760l-193 91
q-19 8 -26 27.5t2 38.5q8 19 27.5 26t38.5 -2l151 -70l151 70q19 9 38.5 2t27.5 -26q9 -19 2 -38.5t-26 -27.5z" />
    <glyph glyph-name="ncaron" unicode="&#x148;" 
d="M305 560l-193 91q-19 8 -26 27.5t2 38.5q8 19 27.5 26t38.5 -2l151 -70l151 70q19 9 38.5 2t27.5 -26q9 -19 2 -38.5t-26 -27.5zM55 50q0 -21 14.5 -35.5t35.5 -14.5t35.5 14.5t14.5 35.5v200q0 31 12 58.5t32 47.5t47.5 32t58.5 12t58.5 -12t47.5 -32t32 -47.5t12 -58.5
v-200q0 -21 14.5 -35.5t35.5 -14.5t35.5 14.5t14.5 35.5v200q0 52 -19.5 97.5t-53.5 79.5t-79.5 53.5t-97.5 19.5q-42 0 -80 -13.5t-70 -36.5q0 21 -14.5 35.5t-35.5 14.5t-35.5 -14.5t-14.5 -35.5v-400z" />
    <glyph glyph-name="Eng" unicode="&#x14a;" 
d="M455 34l-300 451v-435q0 -21 -14.5 -35.5t-35.5 -14.5t-35.5 14.5t-14.5 35.5v600q0 21 14.5 35.5t35.5 14.5q13 0 24 -6t18 -16l308 -463v435q0 21 14.5 35.5t35.5 14.5t35.5 -14.5t14.5 -35.5v-650q0 -42 -16 -78.5t-43 -63.5t-63.5 -42.5t-77.5 -15.5
q-21 0 -35.5 14.5t-14.5 35.5t14.5 35.5t35.5 14.5q42 0 71 29t29 71v34z" />
    <glyph glyph-name="eng" unicode="&#x14b;" 
d="M455 250q0 31 -12 58.5t-32 47.5t-47.5 32t-58.5 12t-58.5 -12t-47.5 -32t-32 -47.5t-12 -58.5v-200q0 -21 -14.5 -35.5t-35.5 -14.5t-35.5 14.5t-14.5 35.5v400q0 21 14.5 35.5t35.5 14.5t35.5 -14.5t14.5 -35.5q32 23 70 36.5t80 13.5q52 0 97.5 -19.5t79.5 -53.5
t53.5 -79.5t19.5 -97.5v-250q0 -42 -16 -78.5t-43 -63.5t-63.5 -42.5t-77.5 -15.5q-21 0 -35.5 14.5t-14.5 35.5t14.5 35.5t35.5 14.5q42 0 71 29t29 71v250z" />
    <glyph glyph-name="Omacron" unicode="&#x14c;" 
d="M105 760q-21 0 -35.5 14.5t-14.5 35.5t14.5 35.5t35.5 14.5h400q21 0 35.5 -14.5t14.5 -35.5t-14.5 -35.5t-35.5 -14.5h-400zM555 250q0 -52 -19.5 -97.5t-53.5 -79.5t-79.5 -53.5t-97.5 -19.5t-97.5 19.5t-79.5 53.5t-53.5 79.5t-19.5 97.5v200q0 52 19.5 97.5
t53.5 79.5t79.5 53.5t97.5 19.5t97.5 -19.5t79.5 -53.5t53.5 -79.5t19.5 -97.5v-200zM455 450q0 31 -12 58.5t-32 47.5t-47.5 32t-58.5 12t-58.5 -12t-47.5 -32t-32 -47.5t-12 -58.5v-200q0 -31 12 -58.5t32 -47.5t47.5 -32t58.5 -12t58.5 12t47.5 32t32 47.5t12 58.5v200z
" />
    <glyph glyph-name="omacron" unicode="&#x14d;" 
d="M105 560q-21 0 -35.5 14.5t-14.5 35.5t14.5 35.5t35.5 14.5h400q21 0 35.5 -14.5t14.5 -35.5t-14.5 -35.5t-35.5 -14.5h-400zM305 0q-52 0 -97.5 19.5t-79.5 53.5t-53.5 79.5t-19.5 97.5t19.5 97.5t53.5 79.5t79.5 53.5t97.5 19.5t97.5 -19.5t79.5 -53.5t53.5 -79.5
t19.5 -97.5t-19.5 -97.5t-53.5 -79.5t-79.5 -53.5t-97.5 -19.5zM305 100q31 0 58.5 12t47.5 32t32 47.5t12 58.5t-12 58.5t-32 47.5t-47.5 32t-58.5 12t-58.5 -12t-47.5 -32t-32 -47.5t-12 -58.5t12 -58.5t32 -47.5t47.5 -32t58.5 -12z" />
    <glyph glyph-name="Ohungarumlaut" unicode="&#x150;" 
d="M555 250q0 -52 -19.5 -97.5t-53.5 -79.5t-79.5 -53.5t-97.5 -19.5t-97.5 19.5t-79.5 53.5t-53.5 79.5t-19.5 97.5v200q0 52 19.5 97.5t53.5 79.5t79.5 53.5t97.5 19.5t97.5 -19.5t79.5 -53.5t53.5 -79.5t19.5 -97.5v-200zM455 450q0 31 -12 58.5t-32 47.5t-47.5 32
t-58.5 12t-58.5 -12t-47.5 -32t-32 -47.5t-12 -58.5v-200q0 -31 12 -58.5t32 -47.5t47.5 -32t58.5 -12t58.5 12t47.5 32t32 47.5t12 58.5v200zM218 785q-11 -18 -31 -23.5t-37 5.5q-18 10 -23.5 30t5.5 37l94 165q11 18 31 23.5t38 -5.5t23 -30.5t-5 -37.5zM383 785
q-10 -18 -30 -23.5t-38 5.5q-18 10 -23.5 30t5.5 37l95 165q11 18 31 23.5t37 -5.5q18 -11 23.5 -30.5t-5.5 -37.5z" />
    <glyph glyph-name="ohungarumlaut" unicode="&#x151;" 
d="M305 0q-52 0 -97.5 19.5t-79.5 53.5t-53.5 79.5t-19.5 97.5t19.5 97.5t53.5 79.5t79.5 53.5t97.5 19.5t97.5 -19.5t79.5 -53.5t53.5 -79.5t19.5 -97.5t-19.5 -97.5t-53.5 -79.5t-79.5 -53.5t-97.5 -19.5zM305 100q31 0 58.5 12t47.5 32t32 47.5t12 58.5t-12 58.5
t-32 47.5t-47.5 32t-58.5 12t-58.5 -12t-47.5 -32t-32 -47.5t-12 -58.5t12 -58.5t32 -47.5t47.5 -32t58.5 -12zM218 585q-11 -18 -31 -23.5t-37 5.5q-18 10 -23.5 30t5.5 37l94 165q11 18 31 23.5t38 -5.5t23 -30.5t-5 -37.5zM383 585q-10 -18 -30 -23.5t-38 5.5
q-18 10 -23.5 30t5.5 37l95 165q11 18 31 23.5t37 -5.5q18 -11 23.5 -30.5t-5.5 -37.5z" />
    <glyph glyph-name="OE" unicode="&#x152;" horiz-adv-x="857" 
d="M752 100q21 0 35.5 -14.5t14.5 -35.5t-14.5 -35.5t-35.5 -14.5h-447q-52 0 -97.5 19.5t-79.5 53.5t-53.5 79.5t-19.5 97.5v200q0 52 19.5 97.5t53.5 79.5t79.5 53.5t97.5 19.5h447q21 0 35.5 -14.5t14.5 -35.5t-14.5 -35.5t-35.5 -14.5h-255v-300h189q20 0 35 -14.5
t15 -35.5t-14.5 -34.5t-35.5 -15.5h-189v-100h255zM155 250q0 -31 12 -58.5t32 -47.5t47.5 -32t58.5 -12h92v500h-92q-31 0 -58.5 -12t-47.5 -32t-32 -47.5t-12 -58.5v-200z" />
    <glyph glyph-name="oe" unicode="&#x153;" horiz-adv-x="970" 
d="M550 200q-2 -9 -4.5 -17.5t-4.5 -16.5q20 -30 52.5 -48t71.5 -18q31 0 58.5 12t47.5 32q14 14 35 14t36 -14q14 -15 14 -35.5t-14 -35.5q-35 -34 -80 -53.5t-97 -19.5q-54 0 -100 20.5t-80 56.5q-35 -36 -80.5 -56.5t-99.5 -20.5q-52 0 -97.5 19.5t-79.5 53.5t-53.5 79.5
t-19.5 97.5t19.5 97.5t53.5 79.5t79.5 53.5t97.5 19.5q54 0 99.5 -20.5t80.5 -56.5q34 36 80 56.5t100 20.5q52 0 97.5 -19.5t79.5 -53.5t53.5 -79.5t19.5 -97.5q0 -21 -14.5 -35.5t-35.5 -14.5h-315zM305 100q31 0 58.5 12t47.5 32t32 47.5t12 58.5t-12 58.5t-32 47.5
t-47.5 32t-58.5 12t-58.5 -12t-47.5 -32t-32 -47.5t-12 -58.5t12 -58.5t32 -47.5t47.5 -32t58.5 -12zM806 300q-15 44 -53.5 72t-87.5 28q-38 0 -71 -18t-54 -48q3 -8 5.5 -16.5t4.5 -17.5h256z" />
    <glyph glyph-name="Racute" unicode="&#x154;" 
d="M274 210h1h-120v-160q0 -21 -14.5 -35.5t-35.5 -14.5t-35.5 14.5t-14.5 35.5v600q0 21 14.5 35.5t35.5 14.5h205q51 0 95.5 -19.5t77.5 -52.5t52.5 -77.5t19.5 -95.5q0 -39 -11.5 -74.5t-32.5 -65.5t-49.5 -52.5t-62.5 -35.5l141 -142q15 -14 15 -35t-15 -35
q-14 -15 -35 -15t-35 15zM310 310q30 0 56.5 11.5t46 31t31 46t11.5 56.5t-11.5 56.5t-31 46t-46 31t-56.5 11.5h-155v-290h155zM240 765q-19 -9 -38.5 -2t-27.5 26q-9 19 -2 38.5t26 27.5l172 81q19 8 38.5 1t27.5 -26q9 -19 2 -38t-26 -28z" />
    <glyph glyph-name="racute" unicode="&#x155;" horiz-adv-x="410" 
d="M139 565q-19 -9 -38.5 -2t-27.5 26q-9 19 -2 38.5t26 27.5l172 81q19 8 38.5 1t27.5 -26q9 -19 2 -38t-26 -28zM55 450q0 21 14.5 35.5t35.5 14.5t35.5 -14.5t14.5 -35.5q32 23 70 36.5t80 13.5q21 0 35.5 -14.5t14.5 -35.5t-14.5 -35.5t-35.5 -14.5q-31 0 -58.5 -12
t-47.5 -32t-32 -47.5t-12 -58.5v-200q0 -21 -14.5 -35.5t-35.5 -14.5t-35.5 14.5t-14.5 35.5v400z" />
    <glyph glyph-name="Rcommaaccent" unicode="&#x156;" 
d="M274 210h1h-120v-160q0 -21 -14.5 -35.5t-35.5 -14.5t-35.5 14.5t-14.5 35.5v600q0 21 14.5 35.5t35.5 14.5h205q51 0 95.5 -19.5t77.5 -52.5t52.5 -77.5t19.5 -95.5q0 -39 -11.5 -74.5t-32.5 -65.5t-49.5 -52.5t-62.5 -35.5l141 -142q15 -14 15 -35t-15 -35
q-14 -15 -35 -15t-35 15zM310 310q30 0 56.5 11.5t46 31t31 46t11.5 56.5t-11.5 56.5t-31 46t-46 31t-56.5 11.5h-155v-290h155zM305 -60q21 0 35.5 -14.5t14.5 -35.5v-50q0 -26 -10 -48.5t-27 -39.5t-39.5 -27t-48.5 -10q-21 0 -35.5 14.5t-14.5 35.5t14.5 35.5t35.5 14.5
q11 0 18 7t7 18v50q0 21 14.5 35.5t35.5 14.5z" />
    <glyph glyph-name="rcommaaccent" unicode="&#x157;" horiz-adv-x="415" 
d="M60 450q0 21 14.5 35.5t35.5 14.5t35.5 -14.5t14.5 -35.5q32 23 70 36.5t80 13.5q21 0 35.5 -14.5t14.5 -35.5t-14.5 -35.5t-35.5 -14.5q-31 0 -58.5 -12t-47.5 -32t-32 -47.5t-12 -58.5v-200q0 -21 -14.5 -35.5t-35.5 -14.5t-35.5 14.5t-14.5 35.5v400zM110 -60
q21 0 35.5 -14.5t14.5 -35.5v-50q0 -26 -10 -48.5t-27 -39.5t-39.5 -27t-48.5 -10q-21 0 -35.5 14.5t-14.5 35.5t14.5 35.5t35.5 14.5q11 0 18 7t7 18v50q0 21 14.5 35.5t35.5 14.5z" />
    <glyph glyph-name="Rcaron" unicode="&#x158;" 
d="M310 760l-193 91q-19 8 -26 27.5t2 38.5q8 19 27.5 26t38.5 -2l151 -70l151 70q19 9 38.5 2t27.5 -26q9 -19 2 -38.5t-26 -27.5zM470 15q14 -15 35 -15t35 15q15 14 15 35t-15 35l-141 142q34 13 62.5 35.5t49.5 52.5t32.5 65.5t11.5 74.5q0 51 -19.5 95.5t-52.5 77.5
t-77.5 52.5t-95.5 19.5h-205q-21 0 -35.5 -14.5t-14.5 -35.5v-600q0 -21 14.5 -35.5t35.5 -14.5t35.5 14.5t14.5 35.5v160h120h-1zM155 310v290h155q30 0 56.5 -11.5t46 -31t31 -46t11.5 -56.5t-11.5 -56.5t-31 -46t-46 -31t-56.5 -11.5h-155z" />
    <glyph glyph-name="rcaron" unicode="&#x159;" horiz-adv-x="554" 
d="M277 560l-193 91q-19 8 -26 27.5t2 38.5q8 19 27.5 26t38.5 -2l151 -70l151 70q19 9 38.5 2t27.5 -26q9 -19 2 -38.5t-26 -27.5zM123 50q0 -21 14.5 -35.5t35.5 -14.5t35.5 14.5t14.5 35.5v200q0 31 12 58.5t32 47.5t47.5 32t58.5 12q21 0 35.5 14.5t14.5 35.5
t-14.5 35.5t-35.5 14.5q-42 0 -80 -13.5t-70 -36.5q0 21 -14.5 35.5t-35.5 14.5t-35.5 -14.5t-14.5 -35.5v-400z" />
    <glyph glyph-name="Sacute" unicode="&#x15a;" 
d="M105 0q-21 0 -35.5 14.5t-14.5 35.5t14.5 35.5t35.5 14.5h250q42 0 71 29t29 71t-29 71t-71 29h-100q-42 0 -78.5 15.5t-63.5 42.5t-42.5 63.5t-15.5 78.5q0 41 15.5 77.5t42.5 63.5t63.5 43t78.5 16h170q21 0 35.5 -14.5t14.5 -35.5t-14.5 -35.5t-35.5 -14.5h-170
q-42 0 -71 -29t-29 -71t29 -71t71 -29h100q41 0 77.5 -16t63.5 -43t43 -63.5t16 -77.5q0 -42 -16 -78.5t-43 -63.5t-63.5 -42.5t-77.5 -15.5h-250zM240 765q-19 -9 -38.5 -2t-27.5 26q-9 19 -2 38.5t26 27.5l172 81q19 8 38.5 1t27.5 -26q9 -19 2 -38t-26 -28z" />
    <glyph glyph-name="sacute" unicode="&#x15b;" horiz-adv-x="510" 
d="M105 0q-21 0 -35.5 14.5t-14.5 35.5t14.5 35.5t35.5 14.5h200q21 0 35.5 14.5t14.5 35.5t-14.5 35.5t-35.5 14.5h-100q-31 0 -58.5 12t-47.5 32t-32 47.5t-12 58.5t12 58.5t32 47.5t47.5 32t58.5 12h141q20 0 35 -14.5t15 -35.5t-15 -35.5t-35 -14.5h-141
q-21 0 -35.5 -14.5t-14.5 -35.5t14.5 -35.5t35.5 -14.5h100q31 0 58.5 -12t47.5 -32t32 -47.5t12 -58.5t-12 -58.5t-32 -47.5t-47.5 -32t-58.5 -12h-200zM190 565q-19 -9 -38.5 -2t-27.5 26q-9 19 -2 38.5t26 27.5l172 81q19 8 38.5 1t27.5 -26q9 -19 2 -38t-26 -28z" />
    <glyph glyph-name="Scircumflex" unicode="&#x15c;" 
d="M305 835l-151 -70q-19 -9 -38.5 -2t-27.5 26q-9 19 -2 38.5t26 27.5l193 91l193 -91q19 -8 26 -27.5t-2 -38.5q-8 -19 -27.5 -26t-38.5 2zM105 0q-21 0 -35.5 14.5t-14.5 35.5t14.5 35.5t35.5 14.5h250q42 0 71 29t29 71t-29 71t-71 29h-100q-42 0 -78.5 15.5t-63.5 42.5
t-42.5 63.5t-15.5 78.5q0 41 15.5 77.5t42.5 63.5t63.5 43t78.5 16h170q21 0 35.5 -14.5t14.5 -35.5t-14.5 -35.5t-35.5 -14.5h-170q-42 0 -71 -29t-29 -71t29 -71t71 -29h100q41 0 77.5 -16t63.5 -43t43 -63.5t16 -77.5q0 -42 -16 -78.5t-43 -63.5t-63.5 -42.5t-77.5 -15.5
h-250z" />
    <glyph glyph-name="scircumflex" unicode="&#x15d;" horiz-adv-x="554" 
d="M127 0q-21 0 -35.5 14.5t-14.5 35.5t14.5 35.5t35.5 14.5h200q21 0 35.5 14.5t14.5 35.5t-14.5 35.5t-35.5 14.5h-100q-31 0 -58.5 12t-47.5 32t-32 47.5t-12 58.5t12 58.5t32 47.5t47.5 32t58.5 12h141q20 0 35 -14.5t15 -35.5t-15 -35.5t-35 -14.5h-141
q-21 0 -35.5 -14.5t-14.5 -35.5t14.5 -35.5t35.5 -14.5h100q31 0 58.5 -12t47.5 -32t32 -47.5t12 -58.5t-12 -58.5t-32 -47.5t-47.5 -32t-58.5 -12h-200zM277 635l-151 -70q-19 -9 -38.5 -2t-27.5 26q-9 19 -2 38.5t26 27.5l193 91l193 -91q19 -8 26 -27.5t-2 -38.5
q-8 -19 -27.5 -26t-38.5 2z" />
    <glyph glyph-name="Scedilla" unicode="&#x15e;" 
d="M355 -42q27 -14 43.5 -40t16.5 -58q0 -23 -8.5 -43t-23.5 -35t-35 -23.5t-43 -8.5q-45 0 -77 32q-15 15 -15 36t15 35q14 15 35 15t35 -15q3 -3 7 -3q10 0 10 10t-10 10q-21 0 -35.5 14.5t-14.5 35.5v80h-150q-21 0 -35.5 14.5t-14.5 35.5t14.5 35.5t35.5 14.5h250
q42 0 71 29t29 71t-29 71t-71 29h-100q-42 0 -78.5 15.5t-63.5 42.5t-42.5 63.5t-15.5 78.5q0 41 15.5 77.5t42.5 63.5t63.5 43t78.5 16h170q21 0 35.5 -14.5t14.5 -35.5t-14.5 -35.5t-35.5 -14.5h-170q-42 0 -71 -29t-29 -71t29 -71t71 -29h100q41 0 77.5 -16t63.5 -43
t43 -63.5t16 -77.5q0 -42 -16 -78.5t-43 -63.5t-63.5 -42.5t-77.5 -15.5v-42z" />
    <glyph glyph-name="scedilla" unicode="&#x15f;" horiz-adv-x="510" 
d="M296 0v-42q27 -14 43.5 -40t16.5 -58q0 -23 -8.5 -43t-23.5 -35t-35 -23.5t-43 -8.5q-45 0 -77 32q-15 15 -15 36t15 35q14 15 35 15t35 -15q3 -3 7 -3q10 0 10 10t-10 10q-21 0 -35.5 14.5t-14.5 35.5v80h-91q-21 0 -35.5 14.5t-14.5 35.5t14.5 35.5t35.5 14.5h200
q21 0 35.5 14.5t14.5 35.5t-14.5 35.5t-35.5 14.5h-100q-31 0 -58.5 12t-47.5 32t-32 47.5t-12 58.5t12 58.5t32 47.5t47.5 32t58.5 12h141q20 0 35 -14.5t15 -35.5t-15 -35.5t-35 -14.5h-141q-21 0 -35.5 -14.5t-14.5 -35.5t14.5 -35.5t35.5 -14.5h100q31 0 58.5 -12
t47.5 -32t32 -47.5t12 -58.5t-12 -58.5t-32 -47.5t-47.5 -32t-58.5 -12h-9z" />
    <glyph glyph-name="Scaron" unicode="&#x160;" 
d="M355 0q41 0 77.5 15.5t63.5 42.5t43 63.5t16 78.5q0 41 -16 77.5t-43 63.5t-63.5 43t-77.5 16h-100q-42 0 -71 29t-29 71t29 71t71 29h170q21 0 35.5 14.5t14.5 35.5t-14.5 35.5t-35.5 14.5h-170q-42 0 -78.5 -16t-63.5 -43t-42.5 -63.5t-15.5 -77.5q0 -42 15.5 -78.5
t42.5 -63.5t63.5 -42.5t78.5 -15.5h100q42 0 71 -29t29 -71t-29 -71t-71 -29h-250q-21 0 -35.5 -14.5t-14.5 -35.5t14.5 -35.5t35.5 -14.5h250zM310 760l-193 91q-19 8 -26 27.5t2 38.5q8 19 27.5 26t38.5 -2l151 -70l151 70q19 9 38.5 2t27.5 -26q9 -19 2 -38.5t-26 -27.5z
" />
    <glyph glyph-name="scaron" unicode="&#x161;" horiz-adv-x="554" 
d="M327 0q31 0 58.5 12t47.5 32t32 47.5t12 58.5t-12 58.5t-32 47.5t-47.5 32t-58.5 12h-100q-21 0 -35.5 14.5t-14.5 35.5t14.5 35.5t35.5 14.5h141q20 0 35 14.5t15 35.5t-15 35.5t-35 14.5h-141q-31 0 -58.5 -12t-47.5 -32t-32 -47.5t-12 -58.5t12 -58.5t32 -47.5
t47.5 -32t58.5 -12h100q21 0 35.5 -14.5t14.5 -35.5t-14.5 -35.5t-35.5 -14.5h-200q-21 0 -35.5 -14.5t-14.5 -35.5t14.5 -35.5t35.5 -14.5h200zM277 560l-193 91q-19 8 -26 27.5t2 38.5q8 19 27.5 26t38.5 -2l151 -70l151 70q19 9 38.5 2t27.5 -26q9 -19 2 -38.5t-26 -27.5
z" />
    <glyph glyph-name="Tcommaaccent" unicode="&#x162;" 
d="M255 600h-150q-21 0 -35.5 14.5t-14.5 35.5t14.5 35.5t35.5 14.5h400q21 0 35.5 -14.5t14.5 -35.5t-14.5 -35.5t-35.5 -14.5h-150v-550q0 -21 -14.5 -35.5t-35.5 -14.5t-35.5 14.5t-14.5 35.5v550zM305 -60q21 0 35.5 -14.5t14.5 -35.5v-50q0 -26 -10 -48.5t-27 -39.5
t-39.5 -27t-48.5 -10q-21 0 -35.5 14.5t-14.5 35.5t14.5 35.5t35.5 14.5q11 0 18 7t7 18v50q0 21 14.5 35.5t35.5 14.5z" />
    <glyph glyph-name="tcommaaccent" unicode="&#x163;" horiz-adv-x="381" 
d="M55 650q0 21 14.5 35.5t35.5 14.5t35.5 -14.5t14.5 -35.5v-150h80q21 0 35.5 -14.5t14.5 -35.5t-14.5 -35.5t-35.5 -14.5h-80v-250q0 -20 14.5 -35t35.5 -15q20 0 35 15t36 15t35 -15q15 -14 15 -35t-15 -36q-20 -20 -47.5 -32t-58.5 -12t-58.5 12t-47.5 32t-32 47.5
t-12 58.5v500zM205 -60q21 0 35.5 -14.5t14.5 -35.5v-50q0 -26 -10 -48.5t-27 -39.5t-39.5 -27t-48.5 -10q-21 0 -35.5 14.5t-14.5 35.5t14.5 35.5t35.5 14.5q11 0 18 7t7 18v50q0 21 14.5 35.5t35.5 14.5z" />
    <glyph glyph-name="Tcaron" unicode="&#x164;" 
d="M255 50q0 -21 14.5 -35.5t35.5 -14.5t35.5 14.5t14.5 35.5v550h150q21 0 35.5 14.5t14.5 35.5t-14.5 35.5t-35.5 14.5h-400q-21 0 -35.5 -14.5t-14.5 -35.5t14.5 -35.5t35.5 -14.5h150v-550zM305 760l-193 91q-19 8 -26 27.5t2 38.5q8 19 27.5 26t38.5 -2l151 -70l151 70
q19 9 38.5 2t27.5 -26q9 -19 2 -38.5t-26 -27.5z" />
    <glyph glyph-name="tcaron" unicode="&#x165;" horiz-adv-x="424" 
d="M55 650q0 21 14.5 35.5t35.5 14.5t35.5 -14.5t14.5 -35.5v-150h80q21 0 35.5 -14.5t14.5 -35.5t-14.5 -35.5t-35.5 -14.5h-80v-250q0 -20 14.5 -35t35.5 -15q20 0 35 15t36 15t35 -15q15 -14 15 -35t-15 -36q-20 -20 -47.5 -32t-58.5 -12t-58.5 12t-47.5 32t-32 47.5
t-12 58.5v500zM319 750q21 0 35.5 -14.5t14.5 -35.5v-50q0 -26 -10 -48.5t-27 -39.5t-39.5 -27t-48.5 -10q-21 0 -35.5 14.5t-14.5 35.5t14.5 35.5t35.5 14.5q11 0 18 7t7 18v50q0 21 14.5 35.5t35.5 14.5z" />
    <glyph glyph-name="Tbar" unicode="&#x166;" 
d="M255 420h-150q-21 0 -35.5 14.5t-14.5 35.5t14.5 35.5t35.5 14.5h150v80h-150q-21 0 -35.5 14.5t-14.5 35.5t14.5 35.5t35.5 14.5h400q21 0 35.5 -14.5t14.5 -35.5t-14.5 -35.5t-35.5 -14.5h-150v-80h150q21 0 35.5 -14.5t14.5 -35.5t-14.5 -35.5t-35.5 -14.5h-150v-370
q0 -21 -14.5 -35.5t-35.5 -14.5t-35.5 14.5t-14.5 35.5v370z" />
    <glyph glyph-name="tbar" unicode="&#x167;" horiz-adv-x="436" 
d="M210 242v-92q0 -20 14.5 -35t35.5 -15q20 0 35 15t36 15t35 -15q15 -14 15 -35t-15 -36q-20 -20 -47.5 -32t-58.5 -12t-58.5 12t-47.5 32t-32 47.5t-12 58.5v92h-5q-21 0 -35.5 14.5t-14.5 35.5t14.5 35.5t35.5 14.5h5v58h-5q-21 0 -35.5 14.5t-14.5 35.5t14.5 35.5
t35.5 14.5h5v150q0 21 14.5 35.5t35.5 14.5t35.5 -14.5t14.5 -35.5v-150h80q21 0 35.5 -14.5t14.5 -35.5t-14.5 -35.5t-35.5 -14.5h-80v-58h80q21 0 35.5 -14.5t14.5 -35.5t-14.5 -35.5t-35.5 -14.5h-80z" />
    <glyph glyph-name="Utilde" unicode="&#x168;" 
d="M455 650q0 21 14.5 35.5t35.5 14.5t35.5 -14.5t14.5 -35.5v-400q0 -52 -19.5 -97.5t-53.5 -79.5t-79.5 -53.5t-97.5 -19.5t-97.5 19.5t-79.5 53.5t-53.5 79.5t-19.5 97.5v400q0 21 14.5 35.5t35.5 14.5t35.5 -14.5t14.5 -35.5v-400q0 -31 12 -58.5t32 -47.5t47.5 -32
t58.5 -12t58.5 12t47.5 32t32 47.5t12 58.5v400zM370 985q23 0 43.5 -9t35.5 -24.5t24 -36t9 -43.5v-50q0 -20 -14.5 -35t-35.5 -15q-20 0 -35 15t-15 35v50q0 13 -12 13q-13 0 -13 -13q0 -23 -9 -43.5t-24 -35.5t-35.5 -24t-43.5 -9t-43.5 9t-36 24t-24.5 35.5t-9 43.5v50
q0 21 15 35.5t35 14.5q21 0 35.5 -14.5t14.5 -35.5v-50q0 -5 4 -8.5t9 -3.5t8.5 3.5t3.5 8.5q0 23 9 43.5t24.5 36t36 24.5t43.5 9z" />
    <glyph glyph-name="utilde" unicode="&#x169;" 
d="M555 50q0 -21 -14.5 -35.5t-35.5 -14.5t-35.5 14.5t-14.5 35.5q-32 -23 -70 -36.5t-80 -13.5q-52 0 -97.5 19.5t-79.5 53.5t-53.5 79.5t-19.5 97.5v200q0 21 14.5 35.5t35.5 14.5t35.5 -14.5t14.5 -35.5v-200q0 -31 12 -58.5t32 -47.5t47.5 -32t58.5 -12t58.5 12t47.5 32
t32 47.5t12 58.5v200q0 21 14.5 35.5t35.5 14.5t35.5 -14.5t14.5 -35.5v-400zM370 785q23 0 43.5 -9t35.5 -24.5t24 -36t9 -43.5v-50q0 -20 -14.5 -35t-35.5 -15q-20 0 -35 15t-15 35v50q0 13 -12 13q-13 0 -13 -13q0 -23 -9 -43.5t-24 -35.5t-35.5 -24t-43.5 -9t-43.5 9
t-36 24t-24.5 35.5t-9 43.5v50q0 21 15 35.5t35 14.5q21 0 35.5 -14.5t14.5 -35.5v-50q0 -5 4 -8.5t9 -3.5t8.5 3.5t3.5 8.5q0 23 9 43.5t24.5 36t36 24.5t43.5 9z" />
    <glyph glyph-name="Umacron" unicode="&#x16a;" 
d="M105 760q-21 0 -35.5 14.5t-14.5 35.5t14.5 35.5t35.5 14.5h400q21 0 35.5 -14.5t14.5 -35.5t-14.5 -35.5t-35.5 -14.5h-400zM455 650q0 21 14.5 35.5t35.5 14.5t35.5 -14.5t14.5 -35.5v-400q0 -52 -19.5 -97.5t-53.5 -79.5t-79.5 -53.5t-97.5 -19.5t-97.5 19.5
t-79.5 53.5t-53.5 79.5t-19.5 97.5v400q0 21 14.5 35.5t35.5 14.5t35.5 -14.5t14.5 -35.5v-400q0 -31 12 -58.5t32 -47.5t47.5 -32t58.5 -12t58.5 12t47.5 32t32 47.5t12 58.5v400z" />
    <glyph glyph-name="umacron" unicode="&#x16b;" 
d="M555 50q0 -21 -14.5 -35.5t-35.5 -14.5t-35.5 14.5t-14.5 35.5q-32 -23 -70 -36.5t-80 -13.5q-52 0 -97.5 19.5t-79.5 53.5t-53.5 79.5t-19.5 97.5v200q0 21 14.5 35.5t35.5 14.5t35.5 -14.5t14.5 -35.5v-200q0 -31 12 -58.5t32 -47.5t47.5 -32t58.5 -12t58.5 12t47.5 32
t32 47.5t12 58.5v200q0 21 14.5 35.5t35.5 14.5t35.5 -14.5t14.5 -35.5v-400zM105 560q-21 0 -35.5 14.5t-14.5 35.5t14.5 35.5t35.5 14.5h400q21 0 35.5 -14.5t14.5 -35.5t-14.5 -35.5t-35.5 -14.5h-400z" />
    <glyph glyph-name="Ubreve" unicode="&#x16c;" 
d="M305 761q-26 0 -48.5 10t-39.5 27t-27 39.5t-10 48.5q0 21 14.5 35.5t35.5 14.5t35.5 -14.5t14.5 -35.5q0 -11 7 -18t18 -7t18 7t7 18q0 21 14.5 35.5t35.5 14.5t35.5 -14.5t14.5 -35.5q0 -26 -10 -48.5t-27 -39.5t-39.5 -27t-48.5 -10zM455 650q0 21 14.5 35.5
t35.5 14.5t35.5 -14.5t14.5 -35.5v-400q0 -52 -19.5 -97.5t-53.5 -79.5t-79.5 -53.5t-97.5 -19.5t-97.5 19.5t-79.5 53.5t-53.5 79.5t-19.5 97.5v400q0 21 14.5 35.5t35.5 14.5t35.5 -14.5t14.5 -35.5v-400q0 -31 12 -58.5t32 -47.5t47.5 -32t58.5 -12t58.5 12t47.5 32
t32 47.5t12 58.5v400z" />
    <glyph glyph-name="ubreve" unicode="&#x16d;" 
d="M305 561q-26 0 -48.5 10t-39.5 27t-27 39.5t-10 48.5q0 21 14.5 35.5t35.5 14.5t35.5 -14.5t14.5 -35.5q0 -11 7 -18t18 -7t18 7t7 18q0 21 14.5 35.5t35.5 14.5t35.5 -14.5t14.5 -35.5q0 -26 -10 -48.5t-27 -39.5t-39.5 -27t-48.5 -10zM555 50q0 -21 -14.5 -35.5
t-35.5 -14.5t-35.5 14.5t-14.5 35.5q-32 -23 -70 -36.5t-80 -13.5q-52 0 -97.5 19.5t-79.5 53.5t-53.5 79.5t-19.5 97.5v200q0 21 14.5 35.5t35.5 14.5t35.5 -14.5t14.5 -35.5v-200q0 -31 12 -58.5t32 -47.5t47.5 -32t58.5 -12t58.5 12t47.5 32t32 47.5t12 58.5v200
q0 21 14.5 35.5t35.5 14.5t35.5 -14.5t14.5 -35.5v-400z" />
    <glyph glyph-name="Uring" unicode="&#x16e;" 
d="M305 730q-26 0 -48.5 10t-39.5 27t-27 39.5t-10 48.5t10 48.5t27 39.5t39.5 27t48.5 10t48.5 -10t39.5 -27t27 -39.5t10 -48.5t-10 -48.5t-27 -39.5t-39.5 -27t-48.5 -10zM305 830q11 0 18 7t7 18t-7 18t-18 7t-18 -7t-7 -18t7 -18t18 -7zM455 650q0 21 14.5 35.5
t35.5 14.5t35.5 -14.5t14.5 -35.5v-400q0 -52 -19.5 -97.5t-53.5 -79.5t-79.5 -53.5t-97.5 -19.5t-97.5 19.5t-79.5 53.5t-53.5 79.5t-19.5 97.5v400q0 21 14.5 35.5t35.5 14.5t35.5 -14.5t14.5 -35.5v-400q0 -31 12 -58.5t32 -47.5t47.5 -32t58.5 -12t58.5 12t47.5 32
t32 47.5t12 58.5v400z" />
    <glyph glyph-name="uring" unicode="&#x16f;" 
d="M305 560q-26 0 -48.5 10t-39.5 27t-27 39.5t-10 48.5t10 48.5t27 39.5t39.5 27t48.5 10t48.5 -10t39.5 -27t27 -39.5t10 -48.5t-10 -48.5t-27 -39.5t-39.5 -27t-48.5 -10zM305 660q11 0 18 7t7 18t-7 18t-18 7t-18 -7t-7 -18t7 -18t18 -7zM555 50q0 -21 -14.5 -35.5
t-35.5 -14.5t-35.5 14.5t-14.5 35.5q-32 -23 -70 -36.5t-80 -13.5q-52 0 -97.5 19.5t-79.5 53.5t-53.5 79.5t-19.5 97.5v200q0 21 14.5 35.5t35.5 14.5t35.5 -14.5t14.5 -35.5v-200q0 -31 12 -58.5t32 -47.5t47.5 -32t58.5 -12t58.5 12t47.5 32t32 47.5t12 58.5v200
q0 21 14.5 35.5t35.5 14.5t35.5 -14.5t14.5 -35.5v-400z" />
    <glyph glyph-name="Uhungarumlaut" unicode="&#x170;" 
d="M455 650q0 21 14.5 35.5t35.5 14.5t35.5 -14.5t14.5 -35.5v-400q0 -52 -19.5 -97.5t-53.5 -79.5t-79.5 -53.5t-97.5 -19.5t-97.5 19.5t-79.5 53.5t-53.5 79.5t-19.5 97.5v400q0 21 14.5 35.5t35.5 14.5t35.5 -14.5t14.5 -35.5v-400q0 -31 12 -58.5t32 -47.5t47.5 -32
t58.5 -12t58.5 12t47.5 32t32 47.5t12 58.5v400zM218 785q-11 -18 -31 -23.5t-37 5.5q-18 10 -23.5 30t5.5 37l94 165q11 18 31 23.5t38 -5.5t23 -30.5t-5 -37.5zM383 785q-10 -18 -30 -23.5t-38 5.5q-18 10 -23.5 30t5.5 37l95 165q11 18 31 23.5t37 -5.5
q18 -11 23.5 -30.5t-5.5 -37.5z" />
    <glyph glyph-name="uhungarumlaut" unicode="&#x171;" 
d="M455 450q0 21 14.5 35.5t35.5 14.5t35.5 -14.5t14.5 -35.5v-400q0 -21 -14.5 -35.5t-35.5 -14.5t-35.5 14.5t-14.5 35.5q-32 -23 -70 -36.5t-80 -13.5q-52 0 -97.5 19.5t-79.5 53.5t-53.5 79.5t-19.5 97.5v200q0 21 14.5 35.5t35.5 14.5t35.5 -14.5t14.5 -35.5v-200
q0 -31 12 -58.5t32 -47.5t47.5 -32t58.5 -12t58.5 12t47.5 32t32 47.5t12 58.5v200zM218 585q-11 -18 -31 -23.5t-37 5.5q-18 10 -23.5 30t5.5 37l94 165q11 18 31 23.5t38 -5.5t23 -30.5t-5 -37.5zM383 585q-10 -18 -30 -23.5t-38 5.5q-18 10 -23.5 30t5.5 37l95 165
q11 18 31 23.5t37 -5.5q18 -11 23.5 -30.5t-5.5 -37.5z" />
    <glyph glyph-name="Uogonek" unicode="&#x172;" 
d="M305 -250q-23 0 -43 8.5t-35 23.5t-23.5 35t-8.5 43q0 32 16.5 58t43.5 40v47q-43 9 -79.5 31t-63.5 54.5t-42 73.5t-15 86v400q0 21 14.5 35.5t35.5 14.5t35.5 -14.5t14.5 -35.5v-400q0 -31 12 -58.5t32 -47.5t47.5 -32t58.5 -12t58.5 12t47.5 32t32 47.5t12 58.5v400
q0 21 14.5 35.5t35.5 14.5t35.5 -14.5t14.5 -35.5v-400q0 -45 -15 -86t-42 -73.5t-63.5 -54.5t-79.5 -31v-85q0 -21 -14.5 -35.5t-35.5 -14.5q-10 0 -10 -10t10 -10h70q21 0 35.5 -14.5t14.5 -35.5t-14.5 -35.5t-35.5 -14.5h-70z" />
    <glyph glyph-name="uogonek" unicode="&#x173;" 
d="M505 -250q-23 0 -43 8.5t-35 23.5t-23.5 35t-8.5 43q0 32 16.5 58t43.5 40v92q-32 -23 -70 -36.5t-80 -13.5q-52 0 -97.5 19.5t-79.5 53.5t-53.5 79.5t-19.5 97.5v200q0 21 14.5 35.5t35.5 14.5t35.5 -14.5t14.5 -35.5v-200q0 -31 12 -58.5t32 -47.5t47.5 -32t58.5 -12
t58.5 12t47.5 32t32 47.5t12 58.5v200q0 21 14.5 35.5t35.5 14.5t35.5 -14.5t14.5 -35.5v-530q0 -21 -14.5 -35.5t-35.5 -14.5q-10 0 -10 -10t10 -10h70q21 0 35.5 -14.5t14.5 -35.5t-14.5 -35.5t-35.5 -14.5h-70z" />
    <glyph glyph-name="Ydieresis" unicode="&#x178;" 
d="M255 50q0 -21 14.5 -35.5t35.5 -14.5t35.5 14.5t14.5 35.5v205q43 9 79.5 31t63.5 54.5t42 73.5t15 86v150q0 21 -14.5 35.5t-35.5 14.5t-35.5 -14.5t-14.5 -35.5v-150q0 -31 -12 -58.5t-32 -47.5t-47.5 -32t-58.5 -12t-58.5 12t-47.5 32t-32 47.5t-12 58.5v150
q0 21 -14.5 35.5t-35.5 14.5t-35.5 -14.5t-14.5 -35.5v-150q0 -45 15 -86t42 -73.5t63.5 -54.5t79.5 -31v-205zM265 815q0 -23 -16 -39t-39 -16t-39 16t-16 39t16 39t39 16t39 -16t16 -39zM455 815q0 -23 -16 -39t-39 -16t-39 16t-16 39t16 39t39 16t39 -16t16 -39z" />
    <glyph glyph-name="Zacute" unicode="&#x179;" 
d="M105 0q-21 0 -35.5 14.5t-14.5 35.5q0 15 8 28l349 522h-307q-21 0 -35.5 14.5t-14.5 35.5t14.5 35.5t35.5 14.5h400q21 0 35.5 -14.5t14.5 -35.5q0 -15 -8 -28l-349 -522h307q21 0 35.5 -14.5t14.5 -35.5t-14.5 -35.5t-35.5 -14.5h-400zM240 765q-19 -9 -38.5 -2
t-27.5 26q-9 19 -2 38.5t26 27.5l172 81q19 8 38.5 1t27.5 -26q9 -19 2 -38t-26 -28z" />
    <glyph glyph-name="zacute" unicode="&#x17a;" 
d="M105 0q-21 0 -35.5 14.5t-14.5 35.5q0 20 15 35l314 315h-279q-21 0 -35.5 14.5t-14.5 35.5t14.5 35.5t35.5 14.5h400q21 0 35.5 -14.5t14.5 -35.5q0 -20 -15 -35l-314 -315h279q21 0 35.5 -14.5t14.5 -35.5t-14.5 -35.5t-35.5 -14.5h-400zM240 565q-19 -9 -38.5 -2
t-27.5 26q-9 19 -2 38.5t26 27.5l172 81q19 8 38.5 1t27.5 -26q9 -19 2 -38t-26 -28z" />
    <glyph glyph-name="Zdotaccent" unicode="&#x17b;" 
d="M360 815q0 -23 -16 -39t-39 -16t-39 16t-16 39t16 39t39 16t39 -16t16 -39zM505 0q21 0 35.5 14.5t14.5 35.5t-14.5 35.5t-35.5 14.5h-307l349 522q8 13 8 28q0 21 -14.5 35.5t-35.5 14.5h-400q-21 0 -35.5 -14.5t-14.5 -35.5t14.5 -35.5t35.5 -14.5h307l-349 -522
q-8 -13 -8 -28q0 -21 14.5 -35.5t35.5 -14.5h400z" />
    <glyph glyph-name="zdotaccent" unicode="&#x17c;" 
d="M360 615q0 -23 -16 -39t-39 -16t-39 16t-16 39t16 39t39 16t39 -16t16 -39zM505 0q21 0 35.5 14.5t14.5 35.5t-14.5 35.5t-35.5 14.5h-279l314 315q15 15 15 35q0 21 -14.5 35.5t-35.5 14.5h-400q-21 0 -35.5 -14.5t-14.5 -35.5t14.5 -35.5t35.5 -14.5h279l-314 -315
q-15 -15 -15 -35q0 -21 14.5 -35.5t35.5 -14.5h400z" />
    <glyph glyph-name="Zcaron" unicode="&#x17d;" 
d="M505 0q21 0 35.5 14.5t14.5 35.5t-14.5 35.5t-35.5 14.5h-307l349 522q8 13 8 28q0 21 -14.5 35.5t-35.5 14.5h-400q-21 0 -35.5 -14.5t-14.5 -35.5t14.5 -35.5t35.5 -14.5h307l-349 -522q-8 -13 -8 -28q0 -21 14.5 -35.5t35.5 -14.5h400zM310 760l-193 91
q-19 8 -26 27.5t2 38.5q8 19 27.5 26t38.5 -2l151 -70l151 70q19 9 38.5 2t27.5 -26q9 -19 2 -38.5t-26 -27.5z" />
    <glyph glyph-name="zcaron" unicode="&#x17e;" 
d="M505 0q21 0 35.5 14.5t14.5 35.5t-14.5 35.5t-35.5 14.5h-279l314 315q15 15 15 35q0 21 -14.5 35.5t-35.5 14.5h-400q-21 0 -35.5 -14.5t-14.5 -35.5t14.5 -35.5t35.5 -14.5h279l-314 -315q-15 -15 -15 -35q0 -21 14.5 -35.5t35.5 -14.5h400zM305 560l-193 91
q-19 8 -26 27.5t2 38.5q8 19 27.5 26t38.5 -2l151 -70l151 70q19 9 38.5 2t27.5 -26q9 -19 2 -38.5t-26 -27.5z" />
    <glyph glyph-name="florin" unicode="&#x192;" horiz-adv-x="381" 
d="M55 550q0 31 12 58.5t32 47.5t47.5 32t58.5 12t58.5 -12t47.5 -32q15 -15 15 -36t-15 -35q-14 -15 -35 -15t-36 15t-35 15q-21 0 -35.5 -15t-14.5 -35v-150h118q21 0 35.5 -14.5t14.5 -35.5t-14.5 -35.5t-35.5 -14.5h-118v-300q0 -42 -16 -78.5t-43 -63.5t-63.5 -42.5
t-77.5 -15.5q-21 0 -35.5 14.5t-14.5 35.5t14.5 35.5t35.5 14.5q42 0 71 29t29 71v550z" />
    <glyph glyph-name="Scommaaccent" unicode="&#x218;" 
d="M105 0q-21 0 -35.5 14.5t-14.5 35.5t14.5 35.5t35.5 14.5h250q42 0 71 29t29 71t-29 71t-71 29h-100q-42 0 -78.5 15.5t-63.5 42.5t-42.5 63.5t-15.5 78.5q0 41 15.5 77.5t42.5 63.5t63.5 43t78.5 16h170q21 0 35.5 -14.5t14.5 -35.5t-14.5 -35.5t-35.5 -14.5h-170
q-42 0 -71 -29t-29 -71t29 -71t71 -29h100q41 0 77.5 -16t63.5 -43t43 -63.5t16 -77.5q0 -42 -16 -78.5t-43 -63.5t-63.5 -42.5t-77.5 -15.5h-250zM305 -60q21 0 35.5 -14.5t14.5 -35.5v-50q0 -26 -10 -48.5t-27 -39.5t-39.5 -27t-48.5 -10q-21 0 -35.5 14.5t-14.5 35.5
t14.5 35.5t35.5 14.5q11 0 18 7t7 18v50q0 21 14.5 35.5t35.5 14.5z" />
    <glyph glyph-name="scommaaccent" unicode="&#x219;" horiz-adv-x="510" 
d="M105 0q-21 0 -35.5 14.5t-14.5 35.5t14.5 35.5t35.5 14.5h200q21 0 35.5 14.5t14.5 35.5t-14.5 35.5t-35.5 14.5h-100q-31 0 -58.5 12t-47.5 32t-32 47.5t-12 58.5t12 58.5t32 47.5t47.5 32t58.5 12h141q20 0 35 -14.5t15 -35.5t-15 -35.5t-35 -14.5h-141
q-21 0 -35.5 -14.5t-14.5 -35.5t14.5 -35.5t35.5 -14.5h100q31 0 58.5 -12t47.5 -32t32 -47.5t12 -58.5t-12 -58.5t-32 -47.5t-47.5 -32t-58.5 -12h-200zM255 -60q21 0 35.5 -14.5t14.5 -35.5v-50q0 -26 -10 -48.5t-27 -39.5t-39.5 -27t-48.5 -10q-21 0 -35.5 14.5
t-14.5 35.5t14.5 35.5t35.5 14.5q11 0 18 7t7 18v50q0 21 14.5 35.5t35.5 14.5z" />
    <glyph glyph-name="circumflex" unicode="&#x2c6;" horiz-adv-x="554" 
d="M277 635l-151 -70q-19 -9 -38.5 -2t-27.5 26q-9 19 -2 38.5t26 27.5l193 91l193 -91q19 -8 26 -27.5t-2 -38.5q-8 -19 -27.5 -26t-38.5 2z" />
    <glyph glyph-name="caron" unicode="&#x2c7;" horiz-adv-x="554" 
d="M277 560l-193 91q-19 8 -26 27.5t2 38.5q8 19 27.5 26t38.5 -2l151 -70l151 70q19 9 38.5 2t27.5 -26q9 -19 2 -38.5t-26 -27.5z" />
    <glyph glyph-name="breve" unicode="&#x2d8;" horiz-adv-x="360" 
d="M180 560q-26 0 -48.5 10t-39.5 27t-27 39.5t-10 48.5q0 21 14.5 35.5t35.5 14.5t35.5 -14.5t14.5 -35.5q0 -11 7 -18t18 -7t18 7t7 18q0 21 14.5 35.5t35.5 14.5t35.5 -14.5t14.5 -35.5q0 -26 -10 -48.5t-27 -39.5t-39.5 -27t-48.5 -10z" />
    <glyph glyph-name="dotaccent" unicode="&#x2d9;" horiz-adv-x="220" 
d="M165 500q0 -23 -16 -39t-39 -16t-39 16t-16 39t16 39t39 16t39 -16t16 -39z" />
    <glyph glyph-name="ring" unicode="&#x2da;" horiz-adv-x="360" 
d="M180 560q-26 0 -48.5 10t-39.5 27t-27 39.5t-10 48.5t10 48.5t27 39.5t39.5 27t48.5 10t48.5 -10t39.5 -27t27 -39.5t10 -48.5t-10 -48.5t-27 -39.5t-39.5 -27t-48.5 -10zM180 660q11 0 18 7t7 18t-7 18t-18 7t-18 -7t-7 -18t7 -18t18 -7z" />
    <glyph glyph-name="ogonek" unicode="&#x2db;" horiz-adv-x="340" 
d="M165 -250q-23 0 -43 8.5t-35 23.5t-23.5 35t-8.5 43q0 32 16.5 58t43.5 40v42q0 21 14.5 35.5t35.5 14.5t35.5 -14.5t14.5 -35.5v-80q0 -21 -14.5 -35.5t-35.5 -14.5q-10 0 -10 -10t10 -10h70q21 0 35.5 -14.5t14.5 -35.5t-14.5 -35.5t-35.5 -14.5h-70z" />
    <glyph glyph-name="tilde" unicode="&#x2dc;" horiz-adv-x="460" 
d="M293 785q23 0 43.5 -9t35.5 -24.5t24 -36t9 -43.5v-50q0 -20 -14.5 -35t-35.5 -15q-20 0 -35 15t-15 35v50q0 13 -12 13q-13 0 -13 -13q0 -23 -9 -43.5t-24 -35.5t-35.5 -24t-43.5 -9t-43.5 9t-36 24t-24.5 35.5t-9 43.5v50q0 21 15 35.5t35 14.5q21 0 35.5 -14.5
t14.5 -35.5v-50q0 -5 4 -8.5t9 -3.5t8.5 3.5t3.5 8.5q0 23 9 43.5t24.5 36t36 24.5t43.5 9z" />
    <glyph glyph-name="hungarumlaut" unicode="&#x2dd;" horiz-adv-x="470" 
d="M148 585q-11 -18 -31 -23.5t-37 5.5q-18 10 -23.5 30t5.5 37l94 165q11 18 31 23.5t38 -5.5t23 -30.5t-5 -37.5zM313 585q-10 -18 -30 -23.5t-38 5.5q-18 10 -23.5 30t5.5 37l95 165q11 18 31 23.5t37 -5.5q18 -11 23.5 -30.5t-5.5 -37.5z" />
    <glyph glyph-name="endash" unicode="&#x2013;" horiz-adv-x="710" 
d="M105 200q-21 0 -35.5 14.5t-14.5 35.5t14.5 35.5t35.5 14.5h500q21 0 35.5 -14.5t14.5 -35.5t-14.5 -35.5t-35.5 -14.5h-500z" />
    <glyph glyph-name="emdash" unicode="&#x2014;" horiz-adv-x="810" 
d="M105 200q-21 0 -35.5 14.5t-14.5 35.5t14.5 35.5t35.5 14.5h600q21 0 35.5 -14.5t14.5 -35.5t-14.5 -35.5t-35.5 -14.5h-600z" />
    <glyph glyph-name="quoteleft" unicode="&#x2018;" horiz-adv-x="232" 
d="M92 517q-18 17 -27.5 40t-9.5 48v100q0 21 14.5 35.5t35.5 14.5t35.5 -14.5t14.5 -35.5v-100q0 -7 2.5 -11.5t4.5 -6.5q15 -14 15 -35t-15 -35q-14 -15 -35 -15t-35 15z" />
    <glyph glyph-name="quoteright" unicode="&#x2019;" horiz-adv-x="232" 
d="M140 735q18 -17 27.5 -40t9.5 -48v-100q0 -21 -14.5 -35.5t-35.5 -14.5t-35.5 14.5t-14.5 35.5v100q0 7 -2.5 11.5t-4.5 6.5q-15 14 -15 35t15 35q14 15 35 15t35 -15z" />
    <glyph glyph-name="quotesinglbase" unicode="&#x201a;" horiz-adv-x="232" 
d="M140 85q18 -17 27.5 -40t9.5 -48v-100q0 -21 -14.5 -35.5t-35.5 -14.5t-35.5 14.5t-14.5 35.5v100q0 7 -2.5 11.5t-4.5 6.5q-15 14 -15 35t15 35q14 15 35 15t35 -15z" />
    <glyph glyph-name="quotedblleft" unicode="&#x201c;" horiz-adv-x="382" 
d="M242 517q-18 17 -27.5 40t-9.5 48v100q0 21 14.5 35.5t35.5 14.5t35.5 -14.5t14.5 -35.5v-100q0 -7 2.5 -11.5t4.5 -6.5q15 -14 15 -35t-15 -35q-14 -15 -35 -15t-35 15zM92 517q-18 17 -27.5 40t-9.5 48v100q0 21 14.5 35.5t35.5 14.5t35.5 -14.5t14.5 -35.5v-100
q0 -7 2.5 -11.5t4.5 -6.5q15 -14 15 -35t-15 -35q-14 -15 -35 -15t-35 15z" />
    <glyph glyph-name="quotedblright" unicode="&#x201d;" horiz-adv-x="382" 
d="M140 735q18 -17 27.5 -40t9.5 -48v-100q0 -21 -14.5 -35.5t-35.5 -14.5t-35.5 14.5t-14.5 35.5v100q0 7 -2.5 11.5t-4.5 6.5q-15 14 -15 35t15 35q14 15 35 15t35 -15zM290 735q18 -17 27.5 -40t9.5 -48v-100q0 -21 -14.5 -35.5t-35.5 -14.5t-35.5 14.5t-14.5 35.5v100
q0 7 -2.5 11.5t-4.5 6.5q-15 14 -15 35t15 35q14 15 35 15t35 -15z" />
    <glyph glyph-name="quotedblbase" unicode="&#x201e;" horiz-adv-x="382" 
d="M140 85q18 -17 27.5 -40t9.5 -48v-100q0 -21 -14.5 -35.5t-35.5 -14.5t-35.5 14.5t-14.5 35.5v100q0 7 -2.5 11.5t-4.5 6.5q-15 14 -15 35t15 35q14 15 35 15t35 -15zM290 85q18 -17 27.5 -40t9.5 -48v-100q0 -21 -14.5 -35.5t-35.5 -14.5t-35.5 14.5t-14.5 35.5v100
q0 7 -2.5 11.5t-4.5 6.5q-15 14 -15 35t15 35q14 15 35 15t35 -15z" />
    <glyph glyph-name="dagger" unicode="&#x2020;" horiz-adv-x="530" 
d="M215 400h-110q-21 0 -35.5 14.5t-14.5 35.5t14.5 35.5t35.5 14.5h110v200q0 21 14.5 35.5t35.5 14.5t35.5 -14.5t14.5 -35.5v-200h110q21 0 35.5 -14.5t14.5 -35.5t-14.5 -35.5t-35.5 -14.5h-110v-600q0 -21 -14.5 -35.5t-35.5 -14.5t-35.5 14.5t-14.5 35.5v600z" />
    <glyph glyph-name="daggerdbl" unicode="&#x2021;" horiz-adv-x="530" 
d="M315 0v-200q0 -21 -14.5 -35.5t-35.5 -14.5t-35.5 14.5t-14.5 35.5v200h-110q-21 0 -35.5 14.5t-14.5 35.5t14.5 35.5t35.5 14.5h110v300h-110q-21 0 -35.5 14.5t-14.5 35.5t14.5 35.5t35.5 14.5h110v200q0 21 14.5 35.5t35.5 14.5t35.5 -14.5t14.5 -35.5v-200h110
q21 0 35.5 -14.5t14.5 -35.5t-14.5 -35.5t-35.5 -14.5h-110v-300h110q21 0 35.5 -14.5t14.5 -35.5t-14.5 -35.5t-35.5 -14.5h-110z" />
    <glyph glyph-name="bullet" unicode="&#x2022;" horiz-adv-x="310" 
d="M255 300q0 -42 -29 -71t-71 -29q-21 0 -39.5 8t-32 21.5t-21 31.5t-7.5 39t7.5 39t21 31.5t32 21.5t39.5 8q42 0 71 -29t29 -71z" />
    <glyph glyph-name="ellipsis" unicode="&#x2026;" horiz-adv-x="660" 
d="M165 55q0 -23 -16 -39t-39 -16t-39 16t-16 39t16 39t39 16t39 -16t16 -39zM385 55q0 -23 -16 -39t-39 -16t-39 16t-16 39t16 39t39 16t39 -16t16 -39zM605 55q0 -23 -16 -39t-39 -16t-39 16t-16 39t16 39t39 16t39 -16t16 -39z" />
    <glyph glyph-name="perthousand" unicode="&#x2030;" horiz-adv-x="1190" 
d="M230 350q-36 0 -68 13.5t-56 37.5t-37.5 56t-13.5 68t13.5 68t37.5 56t56 37.5t68 13.5t68 -13.5t56 -37.5t37.5 -56t13.5 -68t-13.5 -68t-37.5 -56t-56 -37.5t-68 -13.5zM305 525q0 31 -22 53t-53 22t-53 -22t-22 -53t22 -53t53 -22t53 22t22 53zM580 0q-36 0 -68 13.5
t-56 37.5t-37.5 56t-13.5 68t13.5 68t37.5 56t56 37.5t68 13.5t68 -13.5t56 -37.5t37.5 -56t13.5 -68t-13.5 -68t-37.5 -56t-56 -37.5t-68 -13.5zM580 100q31 0 53 22t22 53t-22 53t-53 22t-53 -22t-22 -53t22 -53t53 -22zM960 0q-36 0 -68 13.5t-56 37.5t-37.5 56t-13.5 68
t13.5 68t37.5 56t56 37.5t68 13.5t68 -13.5t56 -37.5t37.5 -56t13.5 -68t-13.5 -68t-37.5 -56t-56 -37.5t-68 -13.5zM960 100q31 0 53 22t22 53t-22 53t-53 22t-53 -22t-22 -53t22 -53t53 -22zM140 15q-14 -15 -35 -15t-35 15q-15 14 -15 35t15 35l600 600q14 15 35 15
t35 -15q15 -14 15 -35t-15 -35z" />
    <glyph glyph-name="guilsinglleft" unicode="&#x2039;" horiz-adv-x="360" 
d="M70 214q-15 15 -15 36t15 35l149 149q15 14 35.5 14t35.5 -14q14 -15 14 -35.5t-14 -35.5l-114 -113l112 -111q14 -15 14 -35.5t-14 -35.5q-15 -14 -35.5 -14t-35.5 14z" />
    <glyph glyph-name="guilsinglright" unicode="&#x203a;" horiz-adv-x="360" 
d="M143 68q-15 -14 -35.5 -14t-35.5 14q-14 15 -14 35.5t14 35.5l112 111l-114 113q-14 15 -14 35.5t14 35.5q15 14 35.5 14t35.5 -14l149 -149q15 -14 15 -35t-15 -36z" />
    <glyph glyph-name="fraction" unicode="&#x2044;" horiz-adv-x="720" 
d="M575 731q13 16 33 18.5t37 -10.5t19.5 -33t-10.5 -37l-510 -650q-13 -17 -33 -19t-37 11t-19 33t11 37z" />
    <glyph glyph-name="Euro" unicode="&#x20ac;" horiz-adv-x="597" 
d="M200 240q2 -29 14.5 -54.5t32.5 -44.5t46.5 -30t56.5 -11q31 0 58.5 12t47.5 32q15 15 35.5 15t35.5 -15q14 -14 14 -35t-14 -35q-34 -35 -79.5 -54.5t-97.5 -19.5q-51 0 -95.5 19t-78.5 51.5t-54 76t-22 93.5q-20 2 -32.5 16t-12.5 34t12.5 34t32.5 16v20
q-20 2 -32.5 16t-12.5 34t12.5 34t32.5 16q2 50 22 93.5t54 76t78.5 51.5t95.5 19q52 0 97 -19.5t80 -53.5q14 -15 14 -35.5t-14 -35.5q-15 -14 -36 -14t-35 14q-20 20 -47.5 32t-58.5 12q-30 0 -56.5 -11t-46.5 -30t-32.5 -44.5t-14.5 -54.5h211q21 0 35.5 -14.5
t14.5 -35.5t-14.5 -35.5t-35.5 -14.5h-211v-20h211q21 0 35.5 -14.5t14.5 -35.5t-14.5 -35.5t-35.5 -14.5h-211z" />
    <glyph glyph-name="trademark" unicode="&#x2122;" horiz-adv-x="730" 
d="M130 600h-25q-21 0 -35.5 14.5t-14.5 35.5t14.5 35.5t35.5 14.5h150q21 0 35.5 -14.5t14.5 -35.5t-14.5 -35.5t-35.5 -14.5h-25v-200q0 -21 -14.5 -35.5t-35.5 -14.5t-35.5 14.5t-14.5 35.5v200zM575 489l-19 -27q-7 -10 -17.5 -16t-23.5 -6t-23.5 6t-17.5 16l-19 27v-89
q0 -21 -14.5 -35.5t-35.5 -14.5t-35.5 14.5t-14.5 35.5v250q0 21 14.5 35.5t35.5 14.5q13 0 23.5 -6t17.5 -16l69 -100l69 100q7 10 17.5 16t23.5 6q21 0 35.5 -14.5t14.5 -35.5v-250q0 -21 -14.5 -35.5t-35.5 -14.5t-35.5 14.5t-14.5 35.5v89z" />
    <glyph glyph-name="minus" unicode="&#x2212;" 
d="M105 200q-21 0 -35.5 14.5t-14.5 35.5t14.5 35.5t35.5 14.5h400q21 0 35.5 -14.5t14.5 -35.5t-14.5 -35.5t-35.5 -14.5h-400z" />
    <glyph glyph-name="approxequal" unicode="&#x2248;" horiz-adv-x="623" 
d="M343 209q14 -9 32.5 -14t39 -5t41 5t37.5 15q18 11 37.5 5.5t30.5 -24.5q11 -18 5.5 -37.5t-23.5 -30.5q-64 -37 -134.5 -33.5t-128.5 41.5q-14 9 -32.5 14t-39 5t-41 -5t-37.5 -15q-18 -11 -37.5 -5.5t-30.5 24.5q-11 18 -5.5 37.5t23.5 30.5q64 37 134.5 33.5
t128.5 -41.5zM343 369q14 -9 32.5 -14t39 -5t41 5t37.5 15q18 11 37.5 5.5t30.5 -24.5q11 -18 5.5 -37.5t-23.5 -30.5q-64 -37 -134.5 -33.5t-128.5 41.5q-14 9 -32.5 14t-39 5t-41 -5t-37.5 -15q-18 -11 -37.5 -5.5t-30.5 24.5q-11 18 -5.5 37.5t23.5 30.5
q64 37 134.5 33.5t128.5 -41.5z" />
    <glyph glyph-name="lessequal" unicode="&#x2264;" horiz-adv-x="611" 
d="M106 0q-21 0 -35.5 14.5t-14.5 35.5t14.5 35.5t35.5 14.5h400q21 0 35.5 -14.5t14.5 -35.5t-14.5 -35.5t-35.5 -14.5h-400zM83 356q-8 4 -14 10q-5 5 -9.5 14t-4.5 21t4.5 20.5t9.5 13.5q6 6 14 11l399 200q19 9 38.5 2.5t29.5 -24.5q9 -19 2.5 -38.5t-24.5 -29.5
l-311 -155l310 -155q19 -10 25.5 -29.5t-2.5 -37.5q-10 -19 -29.5 -25.5t-37.5 2.5z" />
    <glyph glyph-name="greaterequal" unicode="&#x2265;" horiz-adv-x="611" 
d="M105 0q-21 0 -35.5 14.5t-14.5 35.5t14.5 35.5t35.5 14.5h400q21 0 35.5 -14.5t14.5 -35.5t-14.5 -35.5t-35.5 -14.5h-400zM128 156q-18 -9 -37.5 -2.5t-29.5 25.5q-9 18 -2.5 37.5t25.5 29.5l310 155l-311 155q-18 10 -24.5 29.5t2.5 38.5q10 18 29.5 24.5t38.5 -2.5
l399 -200q8 -5 14 -11q5 -5 9.5 -13.5t4.5 -20.5t-4.5 -21t-9.5 -14q-6 -6 -14 -10z" />
    <glyph glyph-name="fi" unicode="&#xfb01;" horiz-adv-x="538" 
d="M383 400h-228v-350q0 -21 -14.5 -35.5t-35.5 -14.5t-35.5 14.5t-14.5 35.5v550q0 31 12 58.5t32 47.5t47.5 32t58.5 12t58.5 -12t47.5 -32q15 -15 15 -36t-15 -35q-14 -15 -35 -15t-36 15t-35 15q-21 0 -35.5 -15t-14.5 -35v-100h278q21 0 35.5 -14.5t14.5 -35.5v-400
q0 -21 -14.5 -35.5t-35.5 -14.5t-35.5 14.5t-14.5 35.5v350z" />
    <glyph glyph-name="fl" unicode="&#xfb02;" horiz-adv-x="578" 
d="M155 50q0 -21 -14.5 -35.5t-35.5 -14.5t-35.5 14.5t-14.5 35.5v550q0 31 12 58.5t32 47.5t47.5 32t58.5 12t58.5 -12t47.5 -32q15 -15 15 -36t-15 -35q-14 -15 -35 -15t-36 15t-35 15q-21 0 -35.5 -15t-14.5 -35v-100h118q21 0 35.5 -14.5t14.5 -35.5t-14.5 -35.5
t-35.5 -14.5h-118v-350zM423 50q0 -21 14.5 -35.5t35.5 -14.5t35.5 14.5t14.5 35.5v650q0 21 -14.5 35.5t-35.5 14.5t-35.5 -14.5t-14.5 -35.5v-650z" />
    </font>
</defs>
</svg>
