<svg id="3e21ed48-4e11-4a99-a03b-ab62216643e5" data-name="Layer 1" xmlns="http://www.w3.org/2000/svg" viewBox="0 0 91 12"><title>logo</title><polyline points="91 1 50.23 1 44.25 12" style="fill:#222;opacity:0.8"/><path d="M174.46,156.09h-2.28v-3.55a1,1,0,0,0-.19-0.68,0.58,0.58,0,0,0-.45-0.21,0.94,0.94,0,0,0-.58.25,1.47,1.47,0,0,0-.45.65v3.54h-2.28v-3.55a1,1,0,0,0-.19-0.68,0.58,0.58,0,0,0-.45-0.21,0.93,0.93,0,0,0-.58.25,1.47,1.47,0,0,0-.45.65v3.54h-2.28v-6.31h2.05v0.94a2.15,2.15,0,0,1,.92-0.79,3.32,3.32,0,0,1,1.39-.27,2.26,2.26,0,0,1,.67.09,1.65,1.65,0,0,1,.5.25,1.39,1.39,0,0,1,.34.35,1.74,1.74,0,0,1,.2.41,2.27,2.27,0,0,1,.92-0.8,3,3,0,0,1,1.33-.29,1.82,1.82,0,0,1,1,.23,1.62,1.62,0,0,1,.56.58,2.22,2.22,0,0,1,.25.74,4.84,4.84,0,0,1,.06.72v4.15Z" transform="translate(-142 -147)" style="fill:#222"/><path d="M177.43,156.21a2.43,2.43,0,0,1-.88-0.16,2.17,2.17,0,0,1-.7-0.43,2,2,0,0,1-.46-0.64,1.93,1.93,0,0,1-.17-0.8,1.88,1.88,0,0,1,.2-0.88,2.1,2.1,0,0,1,.56-0.68,2.59,2.59,0,0,1,.86-0.44,3.66,3.66,0,0,1,1.1-.16,3,3,0,0,1,1.27.24v-0.19a0.81,0.81,0,0,0-.26-0.66,1.29,1.29,0,0,0-.83-0.22,2.77,2.77,0,0,0-1,.17,4.92,4.92,0,0,0-1,.51l-0.66-1.42a5.13,5.13,0,0,1,2.84-.8,3.57,3.57,0,0,1,2.33.67,2.46,2.46,0,0,1,.82,2v1.22a0.65,0.65,0,0,0,.12.45,0.66,0.66,0,0,0,.43.15v1.92l-0.59.09-0.49,0A1.62,1.62,0,0,1,180,156a1,1,0,0,1-.41-0.65l0-.23a2.91,2.91,0,0,1-1,.82A2.55,2.55,0,0,1,177.43,156.21Zm0.68-1.63a1.44,1.44,0,0,0,.42-0.07,1.54,1.54,0,0,0,.38-0.17,1,1,0,0,0,.22-0.21,0.39,0.39,0,0,0,.08-0.23v-0.47a3.31,3.31,0,0,0-.44-0.12,2.24,2.24,0,0,0-.43,0,1.14,1.14,0,0,0-.7.2,0.62,0.62,0,0,0-.28.52,0.53,0.53,0,0,0,.21.43A0.83,0.83,0,0,0,178.11,154.58Z" transform="translate(-142 -147)" style="fill:#222"/><path d="M184.53,149.78l0.9,1.55,0.12,0.25,0.12-.25,0.9-1.55h2.32l-2.11,3.16,2.17,3.16h-2.32l-1-1.55-0.11-.24-0.11.24-1,1.55h-2.32l2.17-3.16-2.11-3.16h2.32Z" transform="translate(-142 -147)" style="fill:#222"/><path d="M192.2,156.21a6.54,6.54,0,0,1-.85-0.06q-0.46-.06-0.89-0.16a7.85,7.85,0,0,1-.85-0.23,4.17,4.17,0,0,1-.71-0.31l0.88-1.55a7.05,7.05,0,0,0,1.26.53,3.91,3.91,0,0,0,1.12.18q0.6,0,.6-0.3a0.34,0.34,0,0,0-.24-0.28,5.15,5.15,0,0,0-.91-0.29,10.6,10.6,0,0,1-1.13-.36,2.82,2.82,0,0,1-.73-0.4,1.33,1.33,0,0,1-.4-0.49,1.54,1.54,0,0,1-.12-0.63,2,2,0,0,1,.2-0.89,2.11,2.11,0,0,1,.56-0.71,2.56,2.56,0,0,1,.86-0.46,3.5,3.5,0,0,1,1.09-.16,5.7,5.7,0,0,1,1.36.18,8.38,8.38,0,0,1,1.48.53l-0.88,1.45a9.46,9.46,0,0,0-1.12-.45,2.88,2.88,0,0,0-.85-0.14,1,1,0,0,0-.43.08,0.26,0.26,0,0,0-.16.25,0.27,0.27,0,0,0,0,.16,0.46,0.46,0,0,0,.17.13l0.33,0.13,0.52,0.14a9.47,9.47,0,0,1,1.21.38,3.18,3.18,0,0,1,.79.43,1.37,1.37,0,0,1,.42.53,1.71,1.71,0,0,1,.13.68,1.83,1.83,0,0,1-.74,1.54A3.23,3.23,0,0,1,192.2,156.21Z" transform="translate(-142 -147)" style="fill:#fff"/><path d="M195.68,147.33H198v6.1a0.59,0.59,0,0,0,.59.72,1.14,1.14,0,0,0,.31,0,1.34,1.34,0,0,0,.31-0.13l0.29,1.84a4.21,4.21,0,0,1-.92.3,4.68,4.68,0,0,1-1,.11,2,2,0,0,1-1.4-.47,1.78,1.78,0,0,1-.49-1.36v-7.06Z" transform="translate(-142 -147)" style="fill:#fff"/><path d="M203.11,156.21a3.83,3.83,0,0,1-1.49-.27,3.23,3.23,0,0,1-1.08-.72,3,3,0,0,1-.66-1,3.58,3.58,0,0,1,0-2.48,3,3,0,0,1,.66-1,3.23,3.23,0,0,1,1.08-.72,4.25,4.25,0,0,1,3,0,3.22,3.22,0,0,1,1.09.72,3,3,0,0,1,.66,1,3.58,3.58,0,0,1,0,2.48,3,3,0,0,1-.66,1,3.22,3.22,0,0,1-1.09.72A3.85,3.85,0,0,1,203.11,156.21ZM202,152.93a1.47,1.47,0,0,0,.31,1,1.08,1.08,0,0,0,1.61,0,1.75,1.75,0,0,0,0-2,1.08,1.08,0,0,0-1.61,0A1.47,1.47,0,0,0,202,152.93Z" transform="translate(-142 -147)" style="fill:#fff"/><path d="M211.39,156.21a2.15,2.15,0,0,1-2-1.1v1h-2v-8.76h2.28v3.38a1.87,1.87,0,0,1,.78-0.79,2.48,2.48,0,0,1,1.19-.27,2.35,2.35,0,0,1,1.07.25,2.65,2.65,0,0,1,.86.69,3.26,3.26,0,0,1,.56,1,4.09,4.09,0,0,1,.2,1.31,3.69,3.69,0,0,1-.22,1.3,3.16,3.16,0,0,1-.61,1A2.8,2.8,0,0,1,211.39,156.21Zm-0.66-1.92a1.19,1.19,0,0,0,.91-0.36,1.34,1.34,0,0,0,.34-1,1.6,1.6,0,0,0-.09-0.54,1.57,1.57,0,0,0-.24-0.44,1.08,1.08,0,0,0-.36-0.3,1,1,0,0,0-.46-0.11,1.08,1.08,0,0,0-.68.26,1.61,1.61,0,0,0-.49.68v1.13A1.29,1.29,0,0,0,210.73,154.29Z" transform="translate(-142 -147)" style="fill:#fff"/><polyline points="0 11 40.27 11 46.5 0" style="fill:#fefefe;opacity:0.5"/><path d="M197.56,146.94" transform="translate(-142 -147)" style="fill:#1382b2"/></svg>